{"glyphs":{"0":{"ha":943,"x_min":54,"x_max":888,"o":"m 471 -17 q 256 43 350 -17 q 108 216 161 103 q 54 486 54 329 q 108 756 54 643 q 256 929 161 869 q 471 989 350 989 q 686 929 592 989 q 834 756 781 869 q 888 486 888 643 q 834 216 888 329 q 686 43 781 103 q 471 -17 592 -17 m 471 174 q 610 250 560 174 q 661 486 661 326 q 610 722 661 646 q 471 799 560 799 q 333 722 383 799 q 282 486 282 646 q 333 250 282 326 q 471 174 383 174 z "},"1":{"ha":544,"x_min":10,"x_max":429,"o":"m 429 972 l 429 0 l 204 0 l 204 792 l 10 792 l 10 972 l 429 972 z "},"2":{"ha":819,"x_min":1,"x_max":781,"o":"m 781 183 l 781 0 l 46 0 l 46 146 l 421 500 q 501 598 481 557 q 522 679 522 639 q 483 769 522 738 q 367 800 443 800 q 251 776 303 800 q 165 703 200 751 l 1 808 q 158 941 58 893 q 388 989 258 989 q 577 953 496 989 q 703 853 658 918 q 749 701 749 789 q 715 553 749 622 q 586 394 682 483 l 363 183 l 781 183 z "},"3":{"ha":822,"x_min":-1,"x_max":772,"o":"m 508 576 q 704 481 636 556 q 772 297 772 407 q 728 141 772 213 q 592 26 683 69 q 369 -17 501 -17 q 167 10 267 -17 q -1 88 68 38 l 86 260 q 215 195 142 218 q 364 172 288 172 q 497 205 449 172 q 546 297 546 238 q 364 417 546 417 l 261 417 l 261 565 l 461 792 l 47 792 l 47 972 l 728 972 l 728 826 l 508 576 z "},"4":{"ha":957,"x_min":43,"x_max":944,"o":"m 944 204 l 786 204 l 786 0 l 567 0 l 567 204 l 43 204 l 43 356 l 501 972 l 738 972 l 313 388 l 574 388 l 574 569 l 786 569 l 786 388 l 944 388 l 944 204 z "},"5":{"ha":826,"x_min":14,"x_max":789,"o":"m 388 607 q 691 525 593 607 q 789 306 789 443 q 744 144 789 217 q 609 27 700 71 q 385 -17 518 -17 q 183 10 282 -17 q 14 88 83 38 l 103 260 q 231 195 158 218 q 379 172 303 172 q 513 206 464 172 q 561 299 561 239 q 510 393 561 361 q 335 425 460 425 l 86 425 l 136 972 l 729 972 l 729 792 l 324 792 l 308 607 l 388 607 z "},"6":{"ha":885,"x_min":54,"x_max":857,"o":"m 522 610 q 692 572 615 610 q 813 466 768 535 q 857 307 857 397 q 808 136 857 210 q 676 23 760 63 q 489 -17 592 -17 q 169 108 285 -17 q 54 465 54 233 q 117 749 54 631 q 291 928 179 867 q 550 989 403 989 q 699 972 628 989 q 821 922 771 954 l 738 757 q 556 806 665 806 q 360 733 432 806 q 282 524 288 661 q 522 610 368 610 m 476 151 q 594 190 549 151 q 639 296 639 229 q 594 402 639 363 q 474 442 549 442 q 353 401 400 442 q 306 296 306 360 q 351 192 306 232 q 476 151 397 151 z "},"7":{"ha":861,"x_min":36,"x_max":815,"o":"m 815 972 l 815 826 l 454 0 l 210 0 l 558 789 l 236 789 l 236 631 l 36 631 l 36 972 l 815 972 z "},"8":{"ha":917,"x_min":49,"x_max":868,"o":"m 719 511 q 830 417 792 475 q 868 282 868 358 q 817 124 868 192 q 672 20 765 57 q 457 -17 579 -17 q 242 20 335 -17 q 99 124 150 57 q 49 282 49 192 q 87 417 49 358 q 196 511 125 475 q 113 595 142 544 q 83 711 83 646 q 131 858 83 796 q 263 955 178 921 q 457 989 347 989 q 653 955 568 989 q 786 858 739 921 q 833 711 833 796 q 804 595 833 646 q 719 511 775 544 m 457 824 q 348 791 389 824 q 307 701 307 758 q 347 614 307 646 q 457 582 388 582 q 568 614 526 582 q 610 701 610 646 q 568 791 610 758 q 457 824 526 824 m 457 149 q 591 187 542 149 q 640 289 640 225 q 591 390 640 353 q 457 428 542 428 q 325 390 374 428 q 276 289 276 353 q 325 186 276 224 q 457 149 374 149 z "},"9":{"ha":885,"x_min":28,"x_max":831,"o":"m 396 989 q 715 865 600 989 q 831 507 831 740 q 769 224 831 342 q 594 44 707 106 q 335 -17 482 -17 q 186 1 257 -17 q 65 50 115 18 l 149 215 q 331 167 219 167 q 526 240 454 167 q 604 450 599 313 q 363 363 517 363 q 193 400 269 363 q 72 506 117 438 q 28 665 28 575 q 76 836 28 763 q 209 949 125 910 q 396 989 293 989 m 413 531 q 533 572 486 531 q 579 676 579 613 q 534 781 579 740 q 410 821 489 821 q 292 782 338 821 q 247 676 247 743 q 292 570 247 610 q 413 531 338 531 z "},"\u0000":{"ha":0,"x_min":0,"x_max":0,"o":""},"\r":{"ha":393,"x_min":0,"x_max":0,"o":""}," ":{"ha":393,"x_min":0,"x_max":0,"o":""},"A":{"ha":1064,"x_min":-12,"x_max":1078,"o":"m 756 208 l 304 208 l 218 0 l -12 0 l 421 972 l 643 972 l 1078 0 l 842 0 l 756 208 m 685 379 l 531 751 l 376 379 l 685 379 z "},"Á":{"ha":1064,"x_min":-12,"x_max":1078,"o":"m 756 208 l 304 208 l 218 0 l -12 0 l 421 972 l 643 972 l 1078 0 l 842 0 l 756 208 m 685 379 l 531 751 l 376 379 l 685 379 m 593 1251 l 826 1251 l 575 1051 l 406 1051 l 593 1251 z "},"Ă":{"ha":1064,"x_min":-12,"x_max":1078,"o":"m 756 208 l 304 208 l 218 0 l -12 0 l 421 972 l 643 972 l 1078 0 l 842 0 l 756 208 m 685 379 l 531 751 l 376 379 l 685 379 m 532 1040 q 351 1097 422 1040 q 276 1251 281 1154 l 413 1251 q 448 1180 414 1207 q 532 1153 482 1153 q 616 1180 582 1153 q 651 1251 650 1207 l 788 1251 q 713 1097 783 1154 q 532 1040 642 1040 z "},"Ắ":{"ha":1064,"x_min":-12,"x_max":1078,"o":"m 756 208 l 304 208 l 218 0 l -12 0 l 421 972 l 643 972 l 1078 0 l 842 0 l 756 208 m 685 379 l 531 751 l 376 379 l 685 379 m 532 1040 q 353 1086 424 1040 q 276 1210 283 1132 l 407 1210 q 446 1163 411 1181 q 532 1144 481 1144 q 618 1163 583 1144 q 657 1210 653 1181 l 788 1210 q 710 1086 781 1132 q 532 1040 640 1040 m 567 1419 l 788 1419 l 569 1251 l 413 1251 l 567 1419 z "},"Ặ":{"ha":1064,"x_min":-12,"x_max":1078,"o":"m 756 208 l 304 208 l 218 0 l -12 0 l 421 972 l 643 972 l 1078 0 l 842 0 l 756 208 m 685 379 l 531 751 l 376 379 l 685 379 m 532 -292 q 463 -266 490 -292 q 436 -199 436 -240 q 463 -129 436 -157 q 532 -101 490 -101 q 600 -129 572 -101 q 628 -199 628 -157 q 601 -266 628 -240 q 532 -292 574 -292 m 532 1040 q 351 1097 422 1040 q 276 1251 281 1154 l 413 1251 q 448 1180 414 1207 q 532 1153 482 1153 q 616 1180 582 1153 q 651 1251 650 1207 l 788 1251 q 713 1097 783 1154 q 532 1040 642 1040 z "},"Ằ":{"ha":1064,"x_min":-12,"x_max":1078,"o":"m 756 208 l 304 208 l 218 0 l -12 0 l 421 972 l 643 972 l 1078 0 l 842 0 l 756 208 m 685 379 l 531 751 l 376 379 l 685 379 m 532 1040 q 353 1086 424 1040 q 276 1210 283 1132 l 407 1210 q 446 1163 411 1181 q 532 1144 481 1144 q 618 1163 583 1144 q 657 1210 653 1181 l 788 1210 q 710 1086 781 1132 q 532 1040 640 1040 m 278 1419 l 499 1419 l 651 1251 l 496 1251 l 278 1419 z "},"Ẳ":{"ha":1064,"x_min":-12,"x_max":1078,"o":"m 756 208 l 304 208 l 218 0 l -12 0 l 421 972 l 643 972 l 1078 0 l 842 0 l 756 208 m 685 379 l 531 751 l 376 379 l 685 379 m 532 1040 q 353 1086 424 1040 q 276 1210 283 1132 l 407 1210 q 446 1163 411 1181 q 532 1144 481 1144 q 618 1163 583 1144 q 657 1210 653 1181 l 788 1210 q 710 1086 781 1132 q 532 1040 640 1040 m 514 1264 q 565 1322 565 1289 q 552 1351 565 1340 q 518 1363 539 1363 q 457 1346 489 1363 l 421 1413 q 536 1443 468 1443 q 629 1413 594 1443 q 664 1333 664 1383 q 637 1261 664 1293 q 567 1213 610 1229 l 514 1264 z "},"Ẵ":{"ha":1064,"x_min":-12,"x_max":1078,"o":"m 756 208 l 304 208 l 218 0 l -12 0 l 421 972 l 643 972 l 1078 0 l 842 0 l 756 208 m 685 379 l 531 751 l 376 379 l 685 379 m 532 1040 q 353 1086 424 1040 q 276 1210 283 1132 l 407 1210 q 446 1163 411 1181 q 532 1144 481 1144 q 618 1163 583 1144 q 657 1210 653 1181 l 788 1210 q 710 1086 781 1132 q 532 1040 640 1040 m 635 1249 q 568 1260 597 1249 q 504 1294 539 1272 q 472 1313 488 1304 q 443 1321 456 1321 q 400 1304 415 1321 q 382 1257 385 1288 l 271 1257 q 315 1385 272 1340 q 432 1431 357 1431 q 494 1419 468 1431 q 558 1386 519 1408 q 595 1365 581 1372 q 624 1358 610 1358 q 667 1376 651 1358 q 685 1421 682 1393 l 793 1421 q 750 1294 792 1340 q 635 1249 708 1249 z "},"Ǎ":{"ha":1064,"x_min":-12,"x_max":1078,"o":"m 756 208 l 304 208 l 218 0 l -12 0 l 421 972 l 643 972 l 1078 0 l 842 0 l 756 208 m 685 379 l 531 751 l 376 379 l 685 379 m 811 1251 l 628 1051 l 436 1051 l 253 1251 l 411 1251 l 532 1147 l 653 1251 l 811 1251 z "},"Â":{"ha":1064,"x_min":-12,"x_max":1078,"o":"m 756 208 l 304 208 l 218 0 l -12 0 l 421 972 l 643 972 l 1078 0 l 842 0 l 756 208 m 685 379 l 531 751 l 376 379 l 685 379 m 653 1051 l 532 1157 l 411 1051 l 253 1051 l 436 1251 l 628 1251 l 811 1051 l 653 1051 z "},"Ấ":{"ha":1064,"x_min":-12,"x_max":1078,"o":"m 756 208 l 304 208 l 218 0 l -12 0 l 421 972 l 643 972 l 1078 0 l 842 0 l 756 208 m 685 379 l 531 751 l 376 379 l 685 379 m 651 1051 l 532 1131 l 413 1051 l 253 1051 l 438 1210 l 626 1210 l 811 1051 l 651 1051 m 853 1353 l 1074 1353 l 856 1185 l 699 1185 l 853 1353 z "},"Ậ":{"ha":1064,"x_min":-12,"x_max":1078,"o":"m 756 208 l 304 208 l 218 0 l -12 0 l 421 972 l 643 972 l 1078 0 l 842 0 l 756 208 m 685 379 l 531 751 l 376 379 l 685 379 m 532 -292 q 463 -266 490 -292 q 436 -199 436 -240 q 463 -129 436 -157 q 532 -101 490 -101 q 600 -129 572 -101 q 628 -199 628 -157 q 601 -266 628 -240 q 532 -292 574 -292 m 653 1051 l 532 1157 l 411 1051 l 253 1051 l 436 1251 l 628 1251 l 811 1051 l 653 1051 z "},"Ầ":{"ha":1064,"x_min":-12,"x_max":1078,"o":"m 756 208 l 304 208 l 218 0 l -12 0 l 421 972 l 643 972 l 1078 0 l 842 0 l 756 208 m 685 379 l 531 751 l 376 379 l 685 379 m 651 1051 l 532 1131 l 413 1051 l 253 1051 l 438 1210 l 626 1210 l 811 1051 l 651 1051 m 564 1353 l 785 1353 l 938 1185 l 782 1185 l 564 1353 z "},"Ẩ":{"ha":1064,"x_min":-12,"x_max":1078,"o":"m 756 208 l 304 208 l 218 0 l -12 0 l 421 972 l 643 972 l 1078 0 l 842 0 l 756 208 m 685 379 l 531 751 l 376 379 l 685 379 m 651 1051 l 532 1131 l 413 1051 l 253 1051 l 438 1210 l 626 1210 l 811 1051 l 651 1051 m 726 1210 q 778 1268 778 1235 q 765 1297 778 1286 q 731 1308 751 1308 q 669 1292 701 1308 l 633 1358 q 749 1389 681 1389 q 842 1359 807 1389 q 876 1279 876 1329 q 849 1207 876 1239 q 779 1158 822 1175 l 726 1210 z "},"Ẫ":{"ha":1064,"x_min":-12,"x_max":1078,"o":"m 756 208 l 304 208 l 218 0 l -12 0 l 421 972 l 643 972 l 1078 0 l 842 0 l 756 208 m 685 379 l 531 751 l 376 379 l 685 379 m 651 1051 l 532 1131 l 413 1051 l 253 1051 l 438 1210 l 626 1210 l 811 1051 l 651 1051 m 635 1258 q 568 1270 597 1258 q 504 1304 539 1282 q 472 1322 488 1314 q 443 1331 456 1331 q 400 1314 415 1331 q 382 1267 385 1297 l 271 1267 q 315 1395 272 1350 q 432 1440 357 1440 q 494 1429 468 1440 q 558 1396 519 1418 q 595 1375 581 1382 q 624 1368 610 1368 q 667 1385 651 1368 q 685 1431 682 1403 l 793 1431 q 750 1304 792 1350 q 635 1258 708 1258 z "},"Ȁ":{"ha":1064,"x_min":-12,"x_max":1078,"o":"m 756 208 l 304 208 l 218 0 l -12 0 l 421 972 l 643 972 l 1078 0 l 842 0 l 756 208 m 685 379 l 531 751 l 376 379 l 685 379 m 168 1251 l 371 1251 l 471 1051 l 313 1051 l 168 1251 m 449 1251 l 651 1251 l 751 1051 l 593 1051 l 449 1251 z "},"Ä":{"ha":1064,"x_min":-12,"x_max":1078,"o":"m 756 208 l 304 208 l 218 0 l -12 0 l 421 972 l 643 972 l 1078 0 l 842 0 l 756 208 m 685 379 l 531 751 l 376 379 l 685 379 m 392 1058 q 322 1085 350 1058 q 294 1154 294 1113 q 322 1223 294 1196 q 392 1250 350 1250 q 460 1223 433 1250 q 488 1154 488 1196 q 460 1085 488 1113 q 392 1058 433 1058 m 672 1058 q 603 1085 631 1058 q 576 1154 576 1113 q 603 1223 576 1196 q 672 1250 631 1250 q 742 1223 714 1250 q 769 1154 769 1196 q 742 1085 769 1113 q 672 1058 714 1058 z "},"Ạ":{"ha":1064,"x_min":-12,"x_max":1078,"o":"m 756 208 l 304 208 l 218 0 l -12 0 l 421 972 l 643 972 l 1078 0 l 842 0 l 756 208 m 685 379 l 531 751 l 376 379 l 685 379 m 532 -292 q 463 -266 490 -292 q 436 -199 436 -240 q 463 -129 436 -157 q 532 -101 490 -101 q 600 -129 572 -101 q 628 -199 628 -157 q 601 -266 628 -240 q 532 -292 574 -292 z "},"À":{"ha":1064,"x_min":-12,"x_max":1078,"o":"m 756 208 l 304 208 l 218 0 l -12 0 l 421 972 l 643 972 l 1078 0 l 842 0 l 756 208 m 685 379 l 531 751 l 376 379 l 685 379 m 238 1251 l 471 1251 l 658 1051 l 489 1051 l 238 1251 z "},"Ả":{"ha":1064,"x_min":-12,"x_max":1078,"o":"m 756 208 l 304 208 l 218 0 l -12 0 l 421 972 l 643 972 l 1078 0 l 842 0 l 756 208 m 685 379 l 531 751 l 376 379 l 685 379 m 506 1110 q 560 1149 544 1128 q 576 1194 576 1169 q 558 1237 576 1221 q 511 1253 540 1253 q 429 1226 469 1253 l 385 1314 q 535 1361 444 1361 q 655 1320 608 1361 q 701 1213 701 1279 q 574 1038 701 1096 l 506 1110 z "},"Ȃ":{"ha":1064,"x_min":-12,"x_max":1078,"o":"m 756 208 l 304 208 l 218 0 l -12 0 l 421 972 l 643 972 l 1078 0 l 842 0 l 756 208 m 685 379 l 531 751 l 376 379 l 685 379 m 276 1051 q 351 1206 281 1149 q 532 1263 422 1263 q 713 1206 642 1263 q 788 1051 783 1149 l 651 1051 q 616 1123 650 1096 q 532 1150 582 1150 q 448 1123 482 1150 q 413 1051 414 1096 l 276 1051 z "},"Ā":{"ha":1064,"x_min":-12,"x_max":1078,"o":"m 756 208 l 304 208 l 218 0 l -12 0 l 421 972 l 643 972 l 1078 0 l 842 0 l 756 208 m 685 379 l 531 751 l 376 379 l 685 379 m 275 1213 l 789 1213 l 789 1090 l 275 1090 l 275 1213 z "},"Ą":{"ha":1064,"x_min":-12,"x_max":1110,"o":"m 756 208 l 304 208 l 218 0 l -12 0 l 421 972 l 643 972 l 1078 0 l 842 0 l 756 208 m 685 379 l 531 751 l 376 379 l 685 379 m 969 -322 q 829 -280 881 -322 q 778 -167 778 -237 q 831 -40 778 -99 q 992 57 885 18 l 1078 0 q 953 -74 990 -39 q 915 -149 915 -110 q 937 -195 915 -178 q 994 -212 958 -212 q 1079 -192 1042 -212 l 1110 -290 q 1046 -313 1083 -304 q 969 -322 1008 -322 z "},"Å":{"ha":1064,"x_min":-12,"x_max":1078,"o":"m 756 208 l 304 208 l 218 0 l -12 0 l 421 972 l 643 972 l 1078 0 l 842 0 l 756 208 m 685 379 l 531 751 l 376 379 l 685 379 m 531 1047 q 409 1096 458 1047 q 360 1215 360 1144 q 409 1335 360 1286 q 531 1383 458 1383 q 654 1335 604 1383 q 704 1215 704 1286 q 654 1096 704 1144 q 531 1047 604 1047 m 531 1131 q 591 1155 567 1131 q 615 1215 615 1179 q 591 1276 615 1251 q 531 1300 567 1300 q 472 1276 496 1300 q 447 1215 447 1251 q 471 1155 447 1179 q 531 1131 494 1131 z "},"Ǻ":{"ha":1064,"x_min":-12,"x_max":1078,"o":"m 756 208 l 304 208 l 218 0 l -12 0 l 421 972 l 643 972 l 1078 0 l 842 0 l 756 208 m 685 379 l 531 751 l 376 379 l 685 379 m 681 1303 q 704 1215 704 1263 q 654 1096 704 1144 q 531 1047 604 1047 q 409 1096 458 1047 q 360 1215 360 1144 q 409 1335 360 1286 q 531 1383 458 1383 q 603 1369 565 1383 l 724 1494 l 831 1411 l 681 1303 m 531 1131 q 591 1155 567 1131 q 615 1215 615 1179 q 591 1276 615 1251 q 531 1300 567 1300 q 472 1276 496 1300 q 447 1215 447 1251 q 471 1155 447 1179 q 531 1131 494 1131 z "},"Ã":{"ha":1064,"x_min":-12,"x_max":1078,"o":"m 756 208 l 304 208 l 218 0 l -12 0 l 421 972 l 643 972 l 1078 0 l 842 0 l 756 208 m 685 379 l 531 751 l 376 379 l 685 379 m 636 1047 q 570 1062 599 1047 q 507 1101 542 1076 q 470 1126 485 1118 q 442 1135 456 1135 q 394 1115 413 1135 q 375 1057 376 1094 l 265 1057 q 312 1205 268 1150 q 428 1260 356 1260 q 492 1245 464 1260 q 557 1204 521 1231 q 594 1179 579 1188 q 622 1171 608 1171 q 669 1191 650 1171 q 689 1246 688 1211 l 799 1246 q 752 1101 796 1156 q 636 1047 708 1047 z "},"Æ":{"ha":1500,"x_min":-12,"x_max":1436,"o":"m 1436 181 l 1436 0 l 683 0 l 683 208 l 332 208 l 218 0 l -12 0 l 536 972 l 1418 972 l 1418 792 l 907 792 l 907 581 l 1360 581 l 1360 406 l 907 406 l 907 181 l 1436 181 m 683 379 l 683 792 l 651 792 l 425 379 l 683 379 z "},"Ǽ":{"ha":1500,"x_min":-12,"x_max":1436,"o":"m 1436 181 l 1436 0 l 683 0 l 683 208 l 332 208 l 218 0 l -12 0 l 536 972 l 1418 972 l 1418 792 l 907 792 l 907 581 l 1360 581 l 1360 406 l 907 406 l 907 181 l 1436 181 m 683 379 l 683 792 l 651 792 l 425 379 l 683 379 m 856 1251 l 1089 1251 l 838 1051 l 668 1051 l 856 1251 z "},"B":{"ha":1063,"x_min":115,"x_max":1007,"o":"m 829 506 q 960 417 913 479 q 1007 265 1007 356 q 908 69 1007 138 q 618 0 808 0 l 115 0 l 115 972 l 590 972 q 863 904 768 972 q 958 719 958 836 q 924 593 958 649 q 829 506 890 538 m 339 803 l 339 574 l 563 574 q 689 603 646 574 q 732 689 732 632 q 689 774 732 746 q 563 803 646 803 l 339 803 m 601 169 q 735 199 690 169 q 781 289 781 228 q 601 410 781 410 l 339 410 l 339 169 l 601 169 z "},"C":{"ha":1018,"x_min":54,"x_max":982,"o":"m 581 -17 q 312 48 432 -17 q 123 227 192 113 q 54 486 54 342 q 123 745 54 631 q 312 924 192 860 q 582 989 432 989 q 810 944 708 989 q 982 817 913 900 l 838 683 q 593 797 739 797 q 432 758 503 797 q 322 647 361 718 q 282 486 282 576 q 322 325 282 396 q 432 215 361 254 q 593 175 503 175 q 838 290 739 175 l 982 157 q 810 28 913 72 q 581 -17 707 -17 z "},"Ć":{"ha":1018,"x_min":54,"x_max":982,"o":"m 581 -17 q 312 48 432 -17 q 123 227 192 113 q 54 486 54 342 q 123 745 54 631 q 312 924 192 860 q 582 989 432 989 q 810 944 708 989 q 982 817 913 900 l 838 683 q 593 797 739 797 q 432 758 503 797 q 322 647 361 718 q 282 486 282 576 q 322 325 282 396 q 432 215 361 254 q 593 175 503 175 q 838 290 739 175 l 982 157 q 810 28 913 72 q 581 -17 707 -17 m 636 1251 l 869 1251 l 618 1051 l 449 1051 l 636 1251 z "},"Č":{"ha":1018,"x_min":54,"x_max":982,"o":"m 581 -17 q 312 48 432 -17 q 123 227 192 113 q 54 486 54 342 q 123 745 54 631 q 312 924 192 860 q 582 989 432 989 q 810 944 708 989 q 982 817 913 900 l 838 683 q 593 797 739 797 q 432 758 503 797 q 322 647 361 718 q 282 486 282 576 q 322 325 282 396 q 432 215 361 254 q 593 175 503 175 q 838 290 739 175 l 982 157 q 810 28 913 72 q 581 -17 707 -17 m 854 1251 l 671 1051 l 479 1051 l 296 1251 l 454 1251 l 575 1147 l 696 1251 l 854 1251 z "},"Ç":{"ha":1018,"x_min":54,"x_max":982,"o":"m 581 -17 q 312 48 432 -17 q 123 227 192 113 q 54 486 54 342 q 123 745 54 631 q 312 924 192 860 q 582 989 432 989 q 810 944 708 989 q 982 817 913 900 l 838 683 q 593 797 739 797 q 432 758 503 797 q 322 647 361 718 q 282 486 282 576 q 322 325 282 396 q 432 215 361 254 q 593 175 503 175 q 838 290 739 175 l 982 157 q 810 28 913 72 q 581 -17 707 -17 m 506 -322 q 435 -315 469 -322 q 376 -293 400 -307 l 410 -200 q 500 -221 454 -221 q 572 -176 572 -221 q 504 -136 572 -136 l 457 -136 l 493 11 l 608 11 l 589 -69 q 680 -108 650 -76 q 710 -185 710 -139 q 654 -285 710 -249 q 506 -322 599 -322 z "},"Ḉ":{"ha":1018,"x_min":54,"x_max":982,"o":"m 581 -17 q 312 48 432 -17 q 123 227 192 113 q 54 486 54 342 q 123 745 54 631 q 312 924 192 860 q 582 989 432 989 q 810 944 708 989 q 982 817 913 900 l 838 683 q 593 797 739 797 q 432 758 503 797 q 322 647 361 718 q 282 486 282 576 q 322 325 282 396 q 432 215 361 254 q 593 175 503 175 q 838 290 739 175 l 982 157 q 810 28 913 72 q 581 -17 707 -17 m 506 -322 q 435 -315 469 -322 q 376 -293 400 -307 l 410 -200 q 500 -221 454 -221 q 572 -176 572 -221 q 504 -136 572 -136 l 457 -136 l 493 11 l 608 11 l 589 -69 q 680 -108 650 -76 q 710 -185 710 -139 q 654 -285 710 -249 q 506 -322 599 -322 m 636 1251 l 869 1251 l 618 1051 l 449 1051 l 636 1251 z "},"Ĉ":{"ha":1018,"x_min":54,"x_max":982,"o":"m 581 -17 q 312 48 432 -17 q 123 227 192 113 q 54 486 54 342 q 123 745 54 631 q 312 924 192 860 q 582 989 432 989 q 810 944 708 989 q 982 817 913 900 l 838 683 q 593 797 739 797 q 432 758 503 797 q 322 647 361 718 q 282 486 282 576 q 322 325 282 396 q 432 215 361 254 q 593 175 503 175 q 838 290 739 175 l 982 157 q 810 28 913 72 q 581 -17 707 -17 m 696 1051 l 575 1157 l 454 1051 l 296 1051 l 479 1251 l 671 1251 l 854 1051 l 696 1051 z "},"Ċ":{"ha":1018,"x_min":54,"x_max":982,"o":"m 581 -17 q 312 48 432 -17 q 123 227 192 113 q 54 486 54 342 q 123 745 54 631 q 312 924 192 860 q 582 989 432 989 q 810 944 708 989 q 982 817 913 900 l 838 683 q 593 797 739 797 q 432 758 503 797 q 322 647 361 718 q 282 486 282 576 q 322 325 282 396 q 432 215 361 254 q 593 175 503 175 q 838 290 739 175 l 982 157 q 810 28 913 72 q 581 -17 707 -17 m 575 1058 q 491 1092 524 1058 q 458 1176 458 1125 q 491 1260 458 1226 q 575 1293 524 1293 q 659 1260 626 1293 q 692 1176 692 1226 q 659 1092 692 1125 q 575 1058 626 1058 z "},"D":{"ha":1147,"x_min":115,"x_max":1093,"o":"m 115 972 l 557 972 q 837 912 715 972 q 1026 742 958 851 q 1093 486 1093 632 q 1026 231 1093 340 q 837 60 958 121 q 557 0 715 0 l 115 0 l 115 972 m 546 185 q 778 266 692 185 q 865 486 865 347 q 778 706 865 625 q 546 788 692 788 l 340 788 l 340 185 l 546 185 z "},"Ǆ":{"ha":2013,"x_min":115,"x_max":1982,"o":"m 115 972 l 557 972 q 837 912 715 972 q 1026 742 958 851 q 1093 486 1093 632 q 1026 231 1093 340 q 837 60 958 121 q 557 0 715 0 l 115 0 l 115 972 m 546 185 q 778 266 692 185 q 865 486 865 347 q 778 706 865 625 q 546 788 692 788 l 340 788 l 340 185 l 546 185 m 1982 183 l 1982 0 l 1132 0 l 1132 146 l 1665 789 l 1143 789 l 1143 972 l 1961 972 l 1961 826 l 1429 183 l 1982 183 m 1836 1251 l 1653 1051 l 1461 1051 l 1278 1251 l 1436 1251 l 1557 1147 l 1678 1251 l 1836 1251 z "},"Ð":{"ha":1165,"x_min":1,"x_max":1111,"o":"m 133 972 l 575 972 q 855 912 733 972 q 1044 742 976 851 q 1111 486 1111 632 q 1044 231 1111 340 q 855 60 976 121 q 575 0 733 0 l 133 0 l 133 972 m 564 185 q 797 266 710 185 q 883 486 883 347 q 797 706 883 625 q 564 788 710 788 l 358 788 l 358 185 l 564 185 m 1 569 l 601 569 l 601 419 l 1 419 l 1 569 z "},"Ď":{"ha":1147,"x_min":115,"x_max":1093,"o":"m 115 972 l 557 972 q 837 912 715 972 q 1026 742 958 851 q 1093 486 1093 632 q 1026 231 1093 340 q 837 60 958 121 q 557 0 715 0 l 115 0 l 115 972 m 546 185 q 778 266 692 185 q 865 486 865 347 q 778 706 865 625 q 546 788 692 788 l 340 788 l 340 185 l 546 185 m 793 1250 l 610 1050 l 418 1050 l 235 1250 l 393 1250 l 514 1146 l 635 1250 l 793 1250 z "},"Đ":{"ha":1165,"x_min":1,"x_max":1111,"o":"m 133 972 l 575 972 q 855 912 733 972 q 1044 742 976 851 q 1111 486 1111 632 q 1044 231 1111 340 q 855 60 976 121 q 575 0 733 0 l 133 0 l 133 972 m 564 185 q 797 266 710 185 q 883 486 883 347 q 797 706 883 625 q 564 788 710 788 l 358 788 l 358 185 l 564 185 m 1 569 l 601 569 l 601 419 l 1 419 l 1 569 z "},"Ḍ":{"ha":1147,"x_min":115,"x_max":1093,"o":"m 115 972 l 557 972 q 837 912 715 972 q 1026 742 958 851 q 1093 486 1093 632 q 1026 231 1093 340 q 837 60 958 121 q 557 0 715 0 l 115 0 l 115 972 m 546 185 q 778 266 692 185 q 865 486 865 347 q 778 706 865 625 q 546 788 692 788 l 340 788 l 340 185 l 546 185 m 518 -292 q 449 -266 476 -292 q 422 -199 422 -240 q 449 -129 422 -157 q 518 -101 476 -101 q 586 -129 558 -101 q 614 -199 614 -157 q 587 -266 614 -240 q 518 -292 560 -292 z "},"Ḏ":{"ha":1147,"x_min":115,"x_max":1093,"o":"m 115 972 l 557 972 q 837 912 715 972 q 1026 742 958 851 q 1093 486 1093 632 q 1026 231 1093 340 q 837 60 958 121 q 557 0 715 0 l 115 0 l 115 972 m 546 185 q 778 266 692 185 q 865 486 865 347 q 778 706 865 625 q 546 788 692 788 l 340 788 l 340 185 l 546 185 m 261 -132 l 775 -132 l 775 -253 l 261 -253 l 261 -132 z "},"ǅ":{"ha":1901,"x_min":115,"x_max":1863,"o":"m 115 972 l 557 972 q 837 912 715 972 q 1026 742 958 851 q 1093 486 1093 632 q 1026 231 1093 340 q 837 60 958 121 q 557 0 715 0 l 115 0 l 115 972 m 546 185 q 778 266 692 185 q 865 486 865 347 q 778 706 865 625 q 546 788 692 788 l 340 788 l 340 185 l 546 185 m 1863 167 l 1863 0 l 1196 0 l 1196 131 l 1576 581 l 1206 581 l 1206 747 l 1850 747 l 1850 617 l 1469 167 l 1863 167 m 1808 1043 l 1625 843 l 1433 843 l 1250 1043 l 1408 1043 l 1529 939 l 1650 1043 l 1808 1043 z "},"E":{"ha":932,"x_min":115,"x_max":868,"o":"m 868 181 l 868 0 l 115 0 l 115 972 l 850 972 l 850 792 l 339 792 l 339 581 l 790 581 l 790 406 l 339 406 l 339 181 l 868 181 z "},"É":{"ha":932,"x_min":115,"x_max":868,"o":"m 868 181 l 868 0 l 115 0 l 115 972 l 850 972 l 850 792 l 339 792 l 339 581 l 790 581 l 790 406 l 339 406 l 339 181 l 868 181 m 544 1251 l 778 1251 l 526 1051 l 357 1051 l 544 1251 z "},"Ĕ":{"ha":932,"x_min":115,"x_max":868,"o":"m 868 181 l 868 0 l 115 0 l 115 972 l 850 972 l 850 792 l 339 792 l 339 581 l 790 581 l 790 406 l 339 406 l 339 181 l 868 181 m 483 1040 q 303 1097 374 1040 q 228 1251 232 1154 l 364 1251 q 399 1180 365 1207 q 483 1153 433 1153 q 567 1180 533 1153 q 603 1251 601 1207 l 739 1251 q 664 1097 735 1154 q 483 1040 593 1040 z "},"Ě":{"ha":932,"x_min":115,"x_max":868,"o":"m 868 181 l 868 0 l 115 0 l 115 972 l 850 972 l 850 792 l 339 792 l 339 581 l 790 581 l 790 406 l 339 406 l 339 181 l 868 181 m 763 1251 l 579 1051 l 388 1051 l 204 1251 l 363 1251 l 483 1147 l 604 1251 l 763 1251 z "},"Ḝ":{"ha":932,"x_min":115,"x_max":868,"o":"m 868 181 l 868 0 l 115 0 l 115 972 l 850 972 l 850 792 l 339 792 l 339 581 l 790 581 l 790 406 l 339 406 l 339 181 l 868 181 m 444 -322 q 374 -315 408 -322 q 315 -293 339 -307 l 349 -200 q 439 -221 393 -221 q 511 -176 511 -221 q 443 -136 511 -136 l 396 -136 l 432 11 l 547 11 l 528 -69 q 619 -108 589 -76 q 649 -185 649 -139 q 593 -285 649 -249 q 444 -322 538 -322 m 483 1040 q 303 1097 374 1040 q 228 1251 232 1154 l 364 1251 q 399 1180 365 1207 q 483 1153 433 1153 q 567 1180 533 1153 q 603 1251 601 1207 l 739 1251 q 664 1097 735 1154 q 483 1040 593 1040 z "},"Ê":{"ha":932,"x_min":115,"x_max":868,"o":"m 868 181 l 868 0 l 115 0 l 115 972 l 850 972 l 850 792 l 339 792 l 339 581 l 790 581 l 790 406 l 339 406 l 339 181 l 868 181 m 604 1051 l 483 1157 l 363 1051 l 204 1051 l 388 1251 l 579 1251 l 763 1051 l 604 1051 z "},"Ế":{"ha":932,"x_min":115,"x_max":1025,"o":"m 868 181 l 868 0 l 115 0 l 115 972 l 850 972 l 850 792 l 339 792 l 339 581 l 790 581 l 790 406 l 339 406 l 339 181 l 868 181 m 603 1051 l 483 1131 l 364 1051 l 204 1051 l 389 1210 l 578 1210 l 763 1051 l 603 1051 m 804 1353 l 1025 1353 l 807 1185 l 650 1185 l 804 1353 z "},"Ệ":{"ha":932,"x_min":115,"x_max":868,"o":"m 868 181 l 868 0 l 115 0 l 115 972 l 850 972 l 850 792 l 339 792 l 339 581 l 790 581 l 790 406 l 339 406 l 339 181 l 868 181 m 490 -292 q 422 -266 449 -292 q 394 -199 394 -240 q 422 -129 394 -157 q 490 -101 449 -101 q 558 -129 531 -101 q 586 -199 586 -157 q 559 -266 586 -240 q 490 -292 532 -292 m 604 1051 l 483 1157 l 363 1051 l 204 1051 l 388 1251 l 579 1251 l 763 1051 l 604 1051 z "},"Ề":{"ha":932,"x_min":115,"x_max":889,"o":"m 868 181 l 868 0 l 115 0 l 115 972 l 850 972 l 850 792 l 339 792 l 339 581 l 790 581 l 790 406 l 339 406 l 339 181 l 868 181 m 603 1051 l 483 1131 l 364 1051 l 204 1051 l 389 1210 l 578 1210 l 763 1051 l 603 1051 m 515 1353 l 736 1353 l 889 1185 l 733 1185 l 515 1353 z "},"Ể":{"ha":932,"x_min":115,"x_max":868,"o":"m 868 181 l 868 0 l 115 0 l 115 972 l 850 972 l 850 792 l 339 792 l 339 581 l 790 581 l 790 406 l 339 406 l 339 181 l 868 181 m 603 1051 l 483 1131 l 364 1051 l 204 1051 l 389 1210 l 578 1210 l 763 1051 l 603 1051 m 678 1210 q 729 1268 729 1235 q 716 1297 729 1286 q 682 1308 703 1308 q 621 1292 653 1308 l 585 1358 q 700 1389 632 1389 q 793 1359 758 1389 q 828 1279 828 1329 q 801 1207 828 1239 q 731 1158 774 1175 l 678 1210 z "},"Ễ":{"ha":932,"x_min":115,"x_max":868,"o":"m 868 181 l 868 0 l 115 0 l 115 972 l 850 972 l 850 792 l 339 792 l 339 581 l 790 581 l 790 406 l 339 406 l 339 181 l 868 181 m 603 1051 l 483 1131 l 364 1051 l 204 1051 l 389 1210 l 578 1210 l 763 1051 l 603 1051 m 586 1258 q 519 1270 549 1258 q 456 1304 490 1282 q 423 1322 439 1314 q 394 1331 407 1331 q 351 1314 367 1331 q 333 1267 336 1297 l 222 1267 q 266 1395 224 1350 q 383 1440 308 1440 q 445 1429 419 1440 q 510 1396 471 1418 q 547 1375 532 1382 q 575 1368 561 1368 q 618 1385 603 1368 q 636 1431 633 1403 l 744 1431 q 701 1304 743 1350 q 586 1258 660 1258 z "},"Ȅ":{"ha":932,"x_min":115,"x_max":868,"o":"m 868 181 l 868 0 l 115 0 l 115 972 l 850 972 l 850 792 l 339 792 l 339 581 l 790 581 l 790 406 l 339 406 l 339 181 l 868 181 m 119 1251 l 322 1251 l 422 1051 l 264 1051 l 119 1251 m 400 1251 l 603 1251 l 703 1051 l 544 1051 l 400 1251 z "},"Ë":{"ha":932,"x_min":115,"x_max":868,"o":"m 868 181 l 868 0 l 115 0 l 115 972 l 850 972 l 850 792 l 339 792 l 339 581 l 790 581 l 790 406 l 339 406 l 339 181 l 868 181 m 343 1058 q 274 1085 301 1058 q 246 1154 246 1113 q 274 1223 246 1196 q 343 1250 301 1250 q 412 1223 385 1250 q 439 1154 439 1196 q 412 1085 439 1113 q 343 1058 385 1058 m 624 1058 q 555 1085 582 1058 q 528 1154 528 1113 q 555 1223 528 1196 q 624 1250 582 1250 q 693 1223 665 1250 q 721 1154 721 1196 q 693 1085 721 1113 q 624 1058 665 1058 z "},"Ė":{"ha":932,"x_min":115,"x_max":868,"o":"m 868 181 l 868 0 l 115 0 l 115 972 l 850 972 l 850 792 l 339 792 l 339 581 l 790 581 l 790 406 l 339 406 l 339 181 l 868 181 m 483 1058 q 399 1092 432 1058 q 367 1176 367 1125 q 399 1260 367 1226 q 483 1293 432 1293 q 567 1260 535 1293 q 600 1176 600 1226 q 567 1092 600 1125 q 483 1058 535 1058 z "},"Ẹ":{"ha":932,"x_min":115,"x_max":868,"o":"m 868 181 l 868 0 l 115 0 l 115 972 l 850 972 l 850 792 l 339 792 l 339 581 l 790 581 l 790 406 l 339 406 l 339 181 l 868 181 m 490 -292 q 422 -266 449 -292 q 394 -199 394 -240 q 422 -129 394 -157 q 490 -101 449 -101 q 558 -129 531 -101 q 586 -199 586 -157 q 559 -266 586 -240 q 490 -292 532 -292 z "},"È":{"ha":932,"x_min":115,"x_max":868,"o":"m 868 181 l 868 0 l 115 0 l 115 972 l 850 972 l 850 792 l 339 792 l 339 581 l 790 581 l 790 406 l 339 406 l 339 181 l 868 181 m 189 1251 l 422 1251 l 610 1051 l 440 1051 l 189 1251 z "},"Ẻ":{"ha":932,"x_min":115,"x_max":868,"o":"m 868 181 l 868 0 l 115 0 l 115 972 l 850 972 l 850 792 l 339 792 l 339 581 l 790 581 l 790 406 l 339 406 l 339 181 l 868 181 m 457 1110 q 512 1149 496 1128 q 528 1194 528 1169 q 510 1237 528 1221 q 463 1253 492 1253 q 381 1226 421 1253 l 336 1314 q 486 1361 396 1361 q 606 1320 560 1361 q 653 1213 653 1279 q 525 1038 653 1096 l 457 1110 z "},"Ȇ":{"ha":932,"x_min":115,"x_max":868,"o":"m 868 181 l 868 0 l 115 0 l 115 972 l 850 972 l 850 792 l 339 792 l 339 581 l 790 581 l 790 406 l 339 406 l 339 181 l 868 181 m 228 1051 q 303 1206 232 1149 q 483 1263 374 1263 q 664 1206 593 1263 q 739 1051 735 1149 l 603 1051 q 567 1123 601 1096 q 483 1150 533 1150 q 399 1123 433 1150 q 364 1051 365 1096 l 228 1051 z "},"Ē":{"ha":932,"x_min":115,"x_max":868,"o":"m 868 181 l 868 0 l 115 0 l 115 972 l 850 972 l 850 792 l 339 792 l 339 581 l 790 581 l 790 406 l 339 406 l 339 181 l 868 181 m 226 1213 l 740 1213 l 740 1090 l 226 1090 l 226 1213 z "},"Ḗ":{"ha":932,"x_min":115,"x_max":868,"o":"m 868 181 l 868 0 l 115 0 l 115 972 l 850 972 l 850 792 l 339 792 l 339 581 l 790 581 l 790 406 l 339 406 l 339 181 l 868 181 m 226 1189 l 740 1189 l 740 1074 l 226 1074 l 226 1189 m 518 1443 l 739 1443 l 521 1275 l 364 1275 l 518 1443 z "},"Ḕ":{"ha":932,"x_min":115,"x_max":868,"o":"m 868 181 l 868 0 l 115 0 l 115 972 l 850 972 l 850 792 l 339 792 l 339 581 l 790 581 l 790 406 l 339 406 l 339 181 l 868 181 m 226 1189 l 740 1189 l 740 1074 l 226 1074 l 226 1189 m 229 1443 l 450 1443 l 603 1275 l 447 1275 l 229 1443 z "},"Ę":{"ha":932,"x_min":115,"x_max":900,"o":"m 868 181 l 868 0 l 115 0 l 115 972 l 850 972 l 850 792 l 339 792 l 339 581 l 790 581 l 790 406 l 339 406 l 339 181 l 868 181 m 760 -322 q 619 -280 671 -322 q 568 -167 568 -237 q 622 -40 568 -99 q 782 57 675 18 l 868 0 q 743 -74 781 -39 q 706 -149 706 -110 q 727 -195 706 -178 q 785 -212 749 -212 q 869 -192 832 -212 l 900 -290 q 836 -313 874 -304 q 760 -322 799 -322 z "},"Ẽ":{"ha":932,"x_min":115,"x_max":868,"o":"m 868 181 l 868 0 l 115 0 l 115 972 l 850 972 l 850 792 l 339 792 l 339 581 l 790 581 l 790 406 l 339 406 l 339 181 l 868 181 m 588 1047 q 522 1062 550 1047 q 458 1101 493 1076 q 422 1126 436 1118 q 393 1135 407 1135 q 346 1115 364 1135 q 326 1057 328 1094 l 217 1057 q 263 1205 219 1150 q 379 1260 307 1260 q 444 1245 415 1260 q 508 1204 472 1231 q 545 1179 531 1188 q 574 1171 560 1171 q 620 1191 601 1171 q 640 1246 639 1211 l 750 1246 q 703 1101 747 1156 q 588 1047 660 1047 z "},"Ʒ":{"ha":886,"x_min":35,"x_max":835,"o":"m 549 578 q 761 483 688 557 q 835 299 835 410 q 789 141 835 213 q 649 26 743 69 q 415 -17 554 -17 q 204 10 307 -17 q 35 86 101 38 l 111 260 q 248 193 169 217 q 408 169 326 169 q 554 203 501 169 q 607 297 607 238 q 558 388 607 356 q 410 419 510 419 l 306 419 l 306 565 l 522 793 l 75 793 l 75 972 l 785 972 l 785 826 l 549 578 z "},"Ǯ":{"ha":886,"x_min":35,"x_max":835,"o":"m 549 578 q 761 483 688 557 q 835 299 835 410 q 789 141 835 213 q 649 26 743 69 q 415 -17 554 -17 q 204 10 307 -17 q 35 86 101 38 l 111 260 q 248 193 169 217 q 408 169 326 169 q 554 203 501 169 q 607 297 607 238 q 558 388 607 356 q 410 419 510 419 l 306 419 l 306 565 l 522 793 l 75 793 l 75 972 l 785 972 l 785 826 l 549 578 m 710 1251 l 526 1051 l 335 1051 l 151 1251 l 310 1251 l 431 1147 l 551 1251 l 710 1251 z "},"F":{"ha":888,"x_min":115,"x_max":850,"o":"m 340 792 l 340 535 l 790 535 l 790 354 l 340 354 l 340 0 l 115 0 l 115 972 l 850 972 l 850 792 l 340 792 z "},"G":{"ha":1071,"x_min":54,"x_max":996,"o":"m 772 501 l 978 501 l 978 107 q 794 15 899 47 q 585 -17 690 -17 q 313 48 433 -17 q 123 227 192 113 q 54 486 54 342 q 123 745 54 631 q 314 924 192 860 q 589 989 436 989 q 821 946 717 989 q 996 821 925 903 l 851 688 q 600 797 747 797 q 435 758 507 797 q 322 649 363 719 q 282 486 282 578 q 322 325 282 396 q 434 215 363 254 q 597 175 506 175 q 772 217 694 175 l 772 501 z "},"Ğ":{"ha":1071,"x_min":54,"x_max":996,"o":"m 772 501 l 978 501 l 978 107 q 794 15 899 47 q 585 -17 690 -17 q 313 48 433 -17 q 123 227 192 113 q 54 486 54 342 q 123 745 54 631 q 314 924 192 860 q 589 989 436 989 q 821 946 717 989 q 996 821 925 903 l 851 688 q 600 797 747 797 q 435 758 507 797 q 322 649 363 719 q 282 486 282 578 q 322 325 282 396 q 434 215 363 254 q 597 175 506 175 q 772 217 694 175 l 772 501 m 579 1040 q 399 1097 469 1040 q 324 1251 328 1154 l 460 1251 q 495 1180 461 1207 q 579 1153 529 1153 q 663 1180 629 1153 q 699 1251 697 1207 l 835 1251 q 760 1097 831 1154 q 579 1040 689 1040 z "},"Ǧ":{"ha":1071,"x_min":54,"x_max":996,"o":"m 772 501 l 978 501 l 978 107 q 794 15 899 47 q 585 -17 690 -17 q 313 48 433 -17 q 123 227 192 113 q 54 486 54 342 q 123 745 54 631 q 314 924 192 860 q 589 989 436 989 q 821 946 717 989 q 996 821 925 903 l 851 688 q 600 797 747 797 q 435 758 507 797 q 322 649 363 719 q 282 486 282 578 q 322 325 282 396 q 434 215 363 254 q 597 175 506 175 q 772 217 694 175 l 772 501 m 858 1251 l 675 1051 l 483 1051 l 300 1251 l 458 1251 l 579 1147 l 700 1251 l 858 1251 z "},"Ĝ":{"ha":1071,"x_min":54,"x_max":996,"o":"m 772 501 l 978 501 l 978 107 q 794 15 899 47 q 585 -17 690 -17 q 313 48 433 -17 q 123 227 192 113 q 54 486 54 342 q 123 745 54 631 q 314 924 192 860 q 589 989 436 989 q 821 946 717 989 q 996 821 925 903 l 851 688 q 600 797 747 797 q 435 758 507 797 q 322 649 363 719 q 282 486 282 578 q 322 325 282 396 q 434 215 363 254 q 597 175 506 175 q 772 217 694 175 l 772 501 m 700 1051 l 579 1157 l 458 1051 l 300 1051 l 483 1251 l 675 1251 l 858 1051 l 700 1051 z "},"Ģ":{"ha":1071,"x_min":54,"x_max":996,"o":"m 772 501 l 978 501 l 978 107 q 794 15 899 47 q 585 -17 690 -17 q 313 48 433 -17 q 123 227 192 113 q 54 486 54 342 q 123 745 54 631 q 314 924 192 860 q 589 989 436 989 q 821 946 717 989 q 996 821 925 903 l 851 688 q 600 797 747 797 q 435 758 507 797 q 322 649 363 719 q 282 486 282 578 q 322 325 282 396 q 434 215 363 254 q 597 175 506 175 q 772 217 694 175 l 772 501 m 565 -101 q 635 -124 610 -101 q 661 -185 661 -147 q 636 -275 661 -228 l 588 -369 l 486 -369 l 521 -258 q 483 -231 496 -250 q 469 -185 469 -212 q 495 -124 469 -147 q 565 -101 521 -101 z "},"Ġ":{"ha":1071,"x_min":54,"x_max":996,"o":"m 772 501 l 978 501 l 978 107 q 794 15 899 47 q 585 -17 690 -17 q 313 48 433 -17 q 123 227 192 113 q 54 486 54 342 q 123 745 54 631 q 314 924 192 860 q 589 989 436 989 q 821 946 717 989 q 996 821 925 903 l 851 688 q 600 797 747 797 q 435 758 507 797 q 322 649 363 719 q 282 486 282 578 q 322 325 282 396 q 434 215 363 254 q 597 175 506 175 q 772 217 694 175 l 772 501 m 579 1058 q 495 1092 528 1058 q 463 1176 463 1125 q 495 1260 463 1226 q 579 1293 528 1293 q 663 1260 631 1293 q 696 1176 696 1226 q 663 1092 696 1125 q 579 1058 631 1058 z "},"Ḡ":{"ha":1071,"x_min":54,"x_max":996,"o":"m 772 501 l 978 501 l 978 107 q 794 15 899 47 q 585 -17 690 -17 q 313 48 433 -17 q 123 227 192 113 q 54 486 54 342 q 123 745 54 631 q 314 924 192 860 q 589 989 436 989 q 821 946 717 989 q 996 821 925 903 l 851 688 q 600 797 747 797 q 435 758 507 797 q 322 649 363 719 q 282 486 282 578 q 322 325 282 396 q 434 215 363 254 q 597 175 506 175 q 772 217 694 175 l 772 501 m 322 1213 l 836 1213 l 836 1090 l 322 1090 l 322 1213 z "},"Ǥ":{"ha":1126,"x_min":54,"x_max":1100,"o":"m 772 501 l 978 501 l 978 107 q 794 15 899 47 q 585 -17 690 -17 q 313 48 433 -17 q 123 227 192 113 q 54 486 54 342 q 123 745 54 631 q 314 924 192 860 q 589 989 436 989 q 821 946 717 989 q 996 821 925 903 l 851 688 q 600 797 747 797 q 435 758 507 797 q 322 649 363 719 q 282 486 282 578 q 322 325 282 396 q 434 215 363 254 q 597 175 506 175 q 772 217 694 175 l 772 501 m 546 423 l 1099 423 l 1099 274 l 546 274 l 546 423 z "},"H":{"ha":1122,"x_min":115,"x_max":1007,"o":"m 1007 972 l 1007 0 l 782 0 l 782 399 l 340 399 l 340 0 l 115 0 l 115 972 l 340 972 l 340 589 l 782 589 l 782 972 l 1007 972 z "},"Ħ":{"ha":1158,"x_min":1,"x_max":1157,"o":"m 1025 972 l 1025 0 l 800 0 l 800 399 l 358 399 l 358 0 l 133 0 l 133 972 l 358 972 l 358 589 l 800 589 l 800 972 l 1025 972 m 1 858 l 1157 858 l 1157 708 l 1 708 l 1 858 z "},"Ḫ":{"ha":1122,"x_min":115,"x_max":1007,"o":"m 1007 972 l 1007 0 l 782 0 l 782 399 l 340 399 l 340 0 l 115 0 l 115 972 l 340 972 l 340 589 l 782 589 l 782 972 l 1007 972 m 561 -301 q 382 -247 453 -301 q 306 -103 311 -192 l 435 -103 q 472 -170 436 -144 q 561 -196 507 -196 q 651 -170 615 -196 q 688 -103 686 -144 l 817 -103 q 740 -247 811 -192 q 561 -301 669 -301 z "},"Ȟ":{"ha":1122,"x_min":115,"x_max":1007,"o":"m 1007 972 l 1007 0 l 782 0 l 782 399 l 340 399 l 340 0 l 115 0 l 115 972 l 340 972 l 340 589 l 782 589 l 782 972 l 1007 972 m 840 1251 l 657 1051 l 465 1051 l 282 1251 l 440 1251 l 561 1147 l 682 1251 l 840 1251 z "},"Ĥ":{"ha":1122,"x_min":115,"x_max":1007,"o":"m 1007 972 l 1007 0 l 782 0 l 782 399 l 340 399 l 340 0 l 115 0 l 115 972 l 340 972 l 340 589 l 782 589 l 782 972 l 1007 972 m 682 1051 l 561 1157 l 440 1051 l 282 1051 l 465 1251 l 657 1251 l 840 1051 l 682 1051 z "},"Ḥ":{"ha":1122,"x_min":115,"x_max":1007,"o":"m 1007 972 l 1007 0 l 782 0 l 782 399 l 340 399 l 340 0 l 115 0 l 115 972 l 340 972 l 340 589 l 782 589 l 782 972 l 1007 972 m 561 -292 q 492 -266 519 -292 q 465 -199 465 -240 q 492 -129 465 -157 q 561 -101 519 -101 q 629 -129 601 -101 q 657 -199 657 -157 q 630 -266 657 -240 q 561 -292 603 -292 z "},"I":{"ha":456,"x_min":115,"x_max":340,"o":"m 115 972 l 340 972 l 340 0 l 115 0 l 115 972 z "},"Ĳ":{"ha":1006,"x_min":85,"x_max":899,"o":"m 454 -17 q 252 12 347 -17 q 85 90 157 40 l 169 260 q 306 194 233 217 q 450 172 379 172 q 674 426 674 172 l 674 972 l 899 972 l 899 438 q 844 190 899 292 q 689 35 789 88 q 454 -17 589 -17 m 107 972 l 332 972 l 332 447 l 107 447 l 107 972 z "},"Í":{"ha":456,"x_min":101,"x_max":522,"o":"m 115 972 l 340 972 l 340 0 l 115 0 l 115 972 m 289 1251 l 522 1251 l 271 1051 l 101 1051 l 289 1251 z "},"Ĭ":{"ha":456,"x_min":-28,"x_max":483,"o":"m 115 972 l 340 972 l 340 0 l 115 0 l 115 972 m 228 1040 q 47 1097 118 1040 q -28 1251 -24 1154 l 108 1251 q 144 1180 110 1207 q 228 1153 178 1153 q 312 1180 278 1153 q 347 1251 346 1207 l 483 1251 q 408 1097 479 1154 q 228 1040 338 1040 z "},"Î":{"ha":456,"x_min":-51,"x_max":507,"o":"m 115 972 l 340 972 l 340 0 l 115 0 l 115 972 m 349 1051 l 228 1157 l 107 1051 l -51 1051 l 132 1251 l 324 1251 l 507 1051 l 349 1051 z "},"Ȉ":{"ha":456,"x_min":-136,"x_max":447,"o":"m 115 972 l 340 972 l 340 0 l 115 0 l 115 972 m -136 1251 l 67 1251 l 167 1051 l 8 1051 l -136 1251 m 144 1251 l 347 1251 l 447 1051 l 289 1051 l 144 1251 z "},"Ï":{"ha":456,"x_min":-10,"x_max":465,"o":"m 115 972 l 340 972 l 340 0 l 115 0 l 115 972 m 88 1058 q 18 1085 46 1058 q -10 1154 -10 1113 q 18 1223 -10 1196 q 88 1250 46 1250 q 156 1223 129 1250 q 183 1154 183 1196 q 156 1085 183 1113 q 88 1058 129 1058 m 368 1058 q 299 1085 326 1058 q 272 1154 272 1113 q 299 1223 272 1196 q 368 1250 326 1250 q 438 1223 410 1250 q 465 1154 465 1196 q 438 1085 465 1113 q 368 1058 410 1058 z "},"Ḯ":{"ha":456,"x_min":0,"x_max":483,"o":"m 115 972 l 340 972 l 340 0 l 115 0 l 115 972 m 92 1058 q 26 1084 53 1058 q 0 1150 0 1110 q 26 1215 0 1189 q 92 1242 53 1242 q 158 1215 132 1242 q 185 1150 185 1189 q 158 1084 185 1110 q 92 1058 132 1058 m 364 1058 q 299 1084 325 1058 q 272 1150 272 1110 q 299 1215 272 1189 q 364 1242 326 1242 q 429 1215 403 1242 q 456 1150 456 1189 q 429 1084 456 1110 q 364 1058 403 1058 m 263 1443 l 483 1443 l 265 1275 l 108 1275 l 263 1443 z "},"İ":{"ha":456,"x_min":111,"x_max":344,"o":"m 115 972 l 340 972 l 340 0 l 115 0 l 115 972 m 228 1058 q 144 1092 176 1058 q 111 1176 111 1125 q 144 1260 111 1226 q 228 1293 176 1293 q 312 1260 279 1293 q 344 1176 344 1226 q 312 1092 344 1125 q 228 1058 279 1058 z "},"Ị":{"ha":456,"x_min":115,"x_max":340,"o":"m 115 972 l 340 972 l 340 0 l 115 0 l 115 972 m 228 -292 q 159 -266 186 -292 q 132 -199 132 -240 q 159 -129 132 -157 q 228 -101 186 -101 q 296 -129 268 -101 q 324 -199 324 -157 q 297 -266 324 -240 q 228 -292 269 -292 z "},"Ì":{"ha":456,"x_min":-67,"x_max":354,"o":"m 115 972 l 340 972 l 340 0 l 115 0 l 115 972 m -67 1251 l 167 1251 l 354 1051 l 185 1051 l -67 1251 z "},"Ỉ":{"ha":456,"x_min":81,"x_max":397,"o":"m 115 972 l 340 972 l 340 0 l 115 0 l 115 972 m 201 1110 q 256 1149 240 1128 q 272 1194 272 1169 q 254 1237 272 1221 q 207 1253 236 1253 q 125 1226 165 1253 l 81 1314 q 231 1361 140 1361 q 351 1320 304 1361 q 397 1213 397 1279 q 269 1038 397 1096 l 201 1110 z "},"Ȋ":{"ha":456,"x_min":-28,"x_max":483,"o":"m 115 972 l 340 972 l 340 0 l 115 0 l 115 972 m -28 1051 q 47 1206 -24 1149 q 228 1263 118 1263 q 408 1206 338 1263 q 483 1051 479 1149 l 347 1051 q 312 1123 346 1096 q 228 1150 278 1150 q 144 1123 178 1150 q 108 1051 110 1096 l -28 1051 z "},"Ī":{"ha":456,"x_min":19,"x_max":436,"o":"m 115 972 l 340 972 l 340 0 l 115 0 l 115 972 m 19 1213 l 436 1213 l 436 1090 l 19 1090 l 19 1213 z "},"Į":{"ha":456,"x_min":114,"x_max":383,"o":"m 115 972 l 340 972 l 340 0 l 115 0 l 115 972 m 281 -322 q 160 -280 206 -322 q 114 -168 114 -237 q 154 -45 114 -103 q 274 57 194 13 l 340 0 q 270 -76 290 -40 q 250 -147 250 -111 q 267 -194 250 -176 q 308 -212 283 -212 q 353 -199 333 -212 l 383 -293 q 281 -322 343 -322 z "},"Ĩ":{"ha":456,"x_min":-39,"x_max":494,"o":"m 115 972 l 340 972 l 340 0 l 115 0 l 115 972 m 332 1047 q 266 1062 294 1047 q 203 1101 238 1076 q 166 1126 181 1118 q 138 1135 151 1135 q 90 1115 108 1135 q 71 1057 72 1094 l -39 1057 q 8 1205 -36 1150 q 124 1260 51 1260 q 188 1245 160 1260 q 253 1204 217 1231 q 290 1179 275 1188 q 318 1171 304 1171 q 365 1191 346 1171 q 385 1246 383 1211 l 494 1246 q 448 1101 492 1156 q 332 1047 404 1047 z "},"J":{"ha":751,"x_min":-22,"x_max":644,"o":"m 294 -17 q 113 20 196 -17 q -22 125 31 57 l 103 275 q 283 168 182 168 q 421 329 421 168 l 421 792 l 79 792 l 79 972 l 644 972 l 644 342 q 556 73 644 163 q 294 -17 467 -17 z "},"Ĵ":{"ha":751,"x_min":-22,"x_max":644,"o":"m 294 -17 q 113 20 196 -17 q -22 125 31 57 l 103 275 q 283 168 182 168 q 421 329 421 168 l 421 792 l 79 792 l 79 972 l 644 972 l 644 342 q 556 73 644 163 q 294 -17 467 -17 m 483 1051 l 363 1157 l 242 1051 l 83 1051 l 267 1251 l 458 1251 l 642 1051 l 483 1051 z "},"K":{"ha":1028,"x_min":115,"x_max":1043,"o":"m 469 382 l 339 246 l 339 0 l 115 0 l 115 972 l 339 972 l 339 518 l 769 972 l 1019 972 l 617 539 l 1043 0 l 781 0 l 469 382 z "},"Ǩ":{"ha":1028,"x_min":115,"x_max":1043,"o":"m 469 382 l 339 246 l 339 0 l 115 0 l 115 972 l 339 972 l 339 518 l 769 972 l 1019 972 l 617 539 l 1043 0 l 781 0 l 469 382 m 806 1251 l 622 1051 l 431 1051 l 247 1251 l 406 1251 l 526 1147 l 647 1251 l 806 1251 z "},"Ķ":{"ha":1028,"x_min":115,"x_max":1043,"o":"m 469 382 l 339 246 l 339 0 l 115 0 l 115 972 l 339 972 l 339 518 l 769 972 l 1019 972 l 617 539 l 1043 0 l 781 0 l 469 382 m 526 -101 q 597 -124 571 -101 q 622 -185 622 -147 q 597 -275 622 -228 l 549 -369 l 447 -369 l 482 -258 q 444 -231 457 -250 q 431 -185 431 -212 q 456 -124 431 -147 q 526 -101 482 -101 z "},"L":{"ha":839,"x_min":115,"x_max":828,"o":"m 115 972 l 340 972 l 340 183 l 828 183 l 828 0 l 115 0 l 115 972 z "},"Ǉ":{"ha":1590,"x_min":115,"x_max":1483,"o":"m 115 972 l 340 972 l 340 183 l 828 183 l 828 0 l 115 0 l 115 972 m 1133 -17 q 952 20 1035 -17 q 817 125 869 57 l 942 275 q 1122 168 1021 168 q 1260 329 1260 168 l 1260 792 l 918 792 l 918 972 l 1483 972 l 1483 342 q 1394 73 1483 163 q 1133 -17 1306 -17 z "},"Ĺ":{"ha":839,"x_min":101,"x_max":828,"o":"m 115 972 l 340 972 l 340 183 l 828 183 l 828 0 l 115 0 l 115 972 m 289 1251 l 522 1251 l 271 1051 l 101 1051 l 289 1251 z "},"Ľ":{"ha":839,"x_min":115,"x_max":828,"o":"m 115 972 l 340 972 l 340 183 l 828 183 l 828 0 l 115 0 l 115 972 m 599 1029 l 761 1029 l 733 750 l 599 750 l 599 1029 z "},"Ļ":{"ha":839,"x_min":115,"x_max":828,"o":"m 115 972 l 340 972 l 340 183 l 828 183 l 828 0 l 115 0 l 115 972 m 488 -101 q 558 -124 532 -101 q 583 -185 583 -147 q 558 -275 583 -228 l 510 -369 l 408 -369 l 443 -258 q 405 -231 418 -250 q 392 -185 392 -212 q 417 -124 392 -147 q 488 -101 443 -101 z "},"Ŀ":{"ha":839,"x_min":115,"x_max":828,"o":"m 115 972 l 340 972 l 340 183 l 828 183 l 828 0 l 115 0 l 115 972 m 649 457 q 564 491 597 457 q 531 578 531 525 q 564 665 531 631 q 649 699 597 699 q 733 665 700 699 q 767 578 767 631 q 733 491 767 525 q 649 457 700 457 z "},"Ḷ":{"ha":839,"x_min":115,"x_max":828,"o":"m 115 972 l 340 972 l 340 183 l 828 183 l 828 0 l 115 0 l 115 972 m 488 -292 q 419 -266 446 -292 q 392 -199 392 -240 q 419 -129 392 -157 q 488 -101 446 -101 q 556 -129 528 -101 q 583 -199 583 -157 q 556 -266 583 -240 q 488 -292 529 -292 z "},"ǈ":{"ha":1265,"x_min":115,"x_max":1192,"o":"m 115 972 l 340 972 l 340 183 l 828 183 l 828 0 l 115 0 l 115 972 m 883 -281 q 710 -239 769 -281 l 768 -82 q 860 -108 806 -108 q 925 -81 901 -108 q 949 0 949 -54 l 949 747 l 1165 747 l 1165 1 q 1091 -205 1165 -129 q 883 -281 1017 -281 m 1057 851 q 960 886 997 851 q 922 972 922 921 q 960 1058 922 1024 q 1057 1093 997 1093 q 1154 1060 1117 1093 q 1192 976 1192 1026 q 1154 887 1192 922 q 1057 851 1117 851 z "},"Ḻ":{"ha":839,"x_min":115,"x_max":828,"o":"m 115 972 l 340 972 l 340 183 l 828 183 l 828 0 l 115 0 l 115 972 m 231 -132 l 744 -132 l 744 -253 l 231 -253 l 231 -132 z "},"Ł":{"ha":857,"x_min":-19,"x_max":846,"o":"m 133 972 l 358 972 l 358 183 l 846 183 l 846 0 l 133 0 l 133 972 m -19 422 l 503 814 l 583 706 l 61 314 l -19 422 z "},"M":{"ha":1326,"x_min":115,"x_max":1211,"o":"m 1000 0 l 999 583 l 713 103 l 611 103 l 326 571 l 326 0 l 115 0 l 115 972 l 301 972 l 665 368 l 1024 972 l 1208 972 l 1211 0 l 1000 0 z "},"Ṃ":{"ha":1326,"x_min":115,"x_max":1211,"o":"m 1000 0 l 999 583 l 713 103 l 611 103 l 326 571 l 326 0 l 115 0 l 115 972 l 301 972 l 665 368 l 1024 972 l 1208 972 l 1211 0 l 1000 0 m 663 -292 q 594 -266 621 -292 q 567 -199 567 -240 q 594 -129 567 -157 q 663 -101 621 -101 q 731 -129 703 -101 q 758 -199 758 -157 q 731 -266 758 -240 q 663 -292 704 -292 z "},"N":{"ha":1122,"x_min":115,"x_max":1007,"o":"m 1007 972 l 1007 0 l 822 0 l 338 590 l 338 0 l 115 0 l 115 972 l 301 972 l 785 382 l 785 972 l 1007 972 z "},"Ǌ":{"ha":1874,"x_min":115,"x_max":1767,"o":"m 1007 972 l 1007 0 l 822 0 l 338 590 l 338 0 l 115 0 l 115 972 l 301 972 l 785 382 l 785 972 l 1007 972 m 1417 -17 q 1235 20 1318 -17 q 1100 125 1153 57 l 1225 275 q 1406 168 1304 168 q 1543 329 1543 168 l 1543 792 l 1201 792 l 1201 972 l 1767 972 l 1767 342 q 1678 73 1767 163 q 1417 -17 1589 -17 z "},"Ń":{"ha":1122,"x_min":115,"x_max":1007,"o":"m 1007 972 l 1007 0 l 822 0 l 338 590 l 338 0 l 115 0 l 115 972 l 301 972 l 785 382 l 785 972 l 1007 972 m 622 1251 l 856 1251 l 604 1051 l 435 1051 l 622 1251 z "},"Ň":{"ha":1122,"x_min":115,"x_max":1007,"o":"m 1007 972 l 1007 0 l 822 0 l 338 590 l 338 0 l 115 0 l 115 972 l 301 972 l 785 382 l 785 972 l 1007 972 m 840 1251 l 657 1051 l 465 1051 l 282 1251 l 440 1251 l 561 1147 l 682 1251 l 840 1251 z "},"Ņ":{"ha":1122,"x_min":115,"x_max":1007,"o":"m 1007 972 l 1007 0 l 822 0 l 338 590 l 338 0 l 115 0 l 115 972 l 301 972 l 785 382 l 785 972 l 1007 972 m 561 -101 q 631 -124 606 -101 q 657 -185 657 -147 q 632 -275 657 -228 l 583 -369 l 482 -369 l 517 -258 q 478 -231 492 -250 q 465 -185 465 -212 q 491 -124 465 -147 q 561 -101 517 -101 z "},"Ṅ":{"ha":1122,"x_min":115,"x_max":1007,"o":"m 1007 972 l 1007 0 l 822 0 l 338 590 l 338 0 l 115 0 l 115 972 l 301 972 l 785 382 l 785 972 l 1007 972 m 561 1058 q 477 1092 510 1058 q 444 1176 444 1125 q 477 1260 444 1226 q 561 1293 510 1293 q 645 1260 613 1293 q 678 1176 678 1226 q 645 1092 678 1125 q 561 1058 613 1058 z "},"Ṇ":{"ha":1122,"x_min":115,"x_max":1007,"o":"m 1007 972 l 1007 0 l 822 0 l 338 590 l 338 0 l 115 0 l 115 972 l 301 972 l 785 382 l 785 972 l 1007 972 m 561 -292 q 492 -266 519 -292 q 465 -199 465 -240 q 492 -129 465 -157 q 561 -101 519 -101 q 629 -129 601 -101 q 657 -199 657 -157 q 630 -266 657 -240 q 561 -292 603 -292 z "},"Ŋ":{"ha":1122,"x_min":115,"x_max":1007,"o":"m 1007 972 l 1007 99 q 920 -187 1007 -94 q 661 -281 833 -281 q 518 -258 585 -281 q 401 -189 451 -235 l 507 -32 q 650 -96 567 -96 q 785 46 776 -96 l 338 590 l 338 0 l 115 0 l 115 972 l 301 972 l 785 382 l 785 972 l 1007 972 z "},"ǋ":{"ha":1549,"x_min":115,"x_max":1475,"o":"m 1007 972 l 1007 0 l 822 0 l 338 590 l 338 0 l 115 0 l 115 972 l 301 972 l 785 382 l 785 972 l 1007 972 m 1167 -281 q 993 -239 1053 -281 l 1051 -82 q 1143 -108 1089 -108 q 1208 -81 1185 -108 q 1232 0 1232 -54 l 1232 747 l 1449 747 l 1449 1 q 1374 -205 1449 -129 q 1167 -281 1300 -281 m 1340 851 q 1243 886 1281 851 q 1206 972 1206 921 q 1243 1058 1206 1024 q 1340 1093 1281 1093 q 1438 1060 1400 1093 q 1475 976 1475 1026 q 1438 887 1475 922 q 1340 851 1400 851 z "},"Ṉ":{"ha":1122,"x_min":115,"x_max":1007,"o":"m 1007 972 l 1007 0 l 822 0 l 338 590 l 338 0 l 115 0 l 115 972 l 301 972 l 785 382 l 785 972 l 1007 972 m 304 -132 l 818 -132 l 818 -253 l 304 -253 l 304 -132 z "},"Ñ":{"ha":1122,"x_min":115,"x_max":1007,"o":"m 1007 972 l 1007 0 l 822 0 l 338 590 l 338 0 l 115 0 l 115 972 l 301 972 l 785 382 l 785 972 l 1007 972 m 665 1047 q 599 1062 628 1047 q 536 1101 571 1076 q 499 1126 514 1118 q 471 1135 485 1135 q 424 1115 442 1135 q 404 1057 406 1094 l 294 1057 q 341 1205 297 1150 q 457 1260 385 1260 q 522 1245 493 1260 q 586 1204 550 1231 q 623 1179 608 1188 q 651 1171 638 1171 q 698 1191 679 1171 q 718 1246 717 1211 l 828 1246 q 781 1101 825 1156 q 665 1047 738 1047 z "},"O":{"ha":1172,"x_min":54,"x_max":1118,"o":"m 586 -17 q 313 49 435 -17 q 123 228 192 114 q 54 486 54 343 q 123 744 54 629 q 313 924 192 858 q 586 989 435 989 q 858 924 738 989 q 1049 744 979 858 q 1118 486 1118 629 q 1049 228 1118 343 q 858 49 979 114 q 586 -17 738 -17 m 586 175 q 742 215 672 175 q 851 325 811 254 q 890 486 890 396 q 851 647 890 576 q 742 758 811 718 q 586 797 672 797 q 431 758 500 797 q 322 647 361 718 q 282 486 282 576 q 322 325 282 396 q 431 215 361 254 q 586 175 500 175 z "},"Ó":{"ha":1172,"x_min":54,"x_max":1118,"o":"m 586 -17 q 313 49 435 -17 q 123 228 192 114 q 54 486 54 343 q 123 744 54 629 q 313 924 192 858 q 586 989 435 989 q 858 924 738 989 q 1049 744 979 858 q 1118 486 1118 629 q 1049 228 1118 343 q 858 49 979 114 q 586 -17 738 -17 m 586 175 q 742 215 672 175 q 851 325 811 254 q 890 486 890 396 q 851 647 890 576 q 742 758 811 718 q 586 797 672 797 q 431 758 500 797 q 322 647 361 718 q 282 486 282 576 q 322 325 282 396 q 431 215 361 254 q 586 175 500 175 m 647 1251 l 881 1251 l 629 1051 l 460 1051 l 647 1251 z "},"Ŏ":{"ha":1172,"x_min":54,"x_max":1118,"o":"m 586 -17 q 313 49 435 -17 q 123 228 192 114 q 54 486 54 343 q 123 744 54 629 q 313 924 192 858 q 586 989 435 989 q 858 924 738 989 q 1049 744 979 858 q 1118 486 1118 629 q 1049 228 1118 343 q 858 49 979 114 q 586 -17 738 -17 m 586 175 q 742 215 672 175 q 851 325 811 254 q 890 486 890 396 q 851 647 890 576 q 742 758 811 718 q 586 797 672 797 q 431 758 500 797 q 322 647 361 718 q 282 486 282 576 q 322 325 282 396 q 431 215 361 254 q 586 175 500 175 m 586 1040 q 406 1097 476 1040 q 331 1251 335 1154 l 467 1251 q 502 1180 468 1207 q 586 1153 536 1153 q 670 1180 636 1153 q 706 1251 704 1207 l 842 1251 q 767 1097 838 1154 q 586 1040 696 1040 z "},"Ô":{"ha":1172,"x_min":54,"x_max":1118,"o":"m 586 -17 q 313 49 435 -17 q 123 228 192 114 q 54 486 54 343 q 123 744 54 629 q 313 924 192 858 q 586 989 435 989 q 858 924 738 989 q 1049 744 979 858 q 1118 486 1118 629 q 1049 228 1118 343 q 858 49 979 114 q 586 -17 738 -17 m 586 175 q 742 215 672 175 q 851 325 811 254 q 890 486 890 396 q 851 647 890 576 q 742 758 811 718 q 586 797 672 797 q 431 758 500 797 q 322 647 361 718 q 282 486 282 576 q 322 325 282 396 q 431 215 361 254 q 586 175 500 175 m 707 1051 l 586 1157 l 465 1051 l 307 1051 l 490 1251 l 682 1251 l 865 1051 l 707 1051 z "},"Ố":{"ha":1172,"x_min":54,"x_max":1128,"o":"m 586 -17 q 313 49 435 -17 q 123 228 192 114 q 54 486 54 343 q 123 744 54 629 q 313 924 192 858 q 586 989 435 989 q 858 924 738 989 q 1049 744 979 858 q 1118 486 1118 629 q 1049 228 1118 343 q 858 49 979 114 q 586 -17 738 -17 m 586 175 q 742 215 672 175 q 851 325 811 254 q 890 486 890 396 q 851 647 890 576 q 742 758 811 718 q 586 797 672 797 q 431 758 500 797 q 322 647 361 718 q 282 486 282 576 q 322 325 282 396 q 431 215 361 254 q 586 175 500 175 m 706 1051 l 586 1131 l 467 1051 l 307 1051 l 492 1210 l 681 1210 l 865 1051 l 706 1051 m 907 1353 l 1128 1353 l 910 1185 l 753 1185 l 907 1353 z "},"Ộ":{"ha":1172,"x_min":54,"x_max":1118,"o":"m 586 -17 q 313 49 435 -17 q 123 228 192 114 q 54 486 54 343 q 123 744 54 629 q 313 924 192 858 q 586 989 435 989 q 858 924 738 989 q 1049 744 979 858 q 1118 486 1118 629 q 1049 228 1118 343 q 858 49 979 114 q 586 -17 738 -17 m 586 175 q 742 215 672 175 q 851 325 811 254 q 890 486 890 396 q 851 647 890 576 q 742 758 811 718 q 586 797 672 797 q 431 758 500 797 q 322 647 361 718 q 282 486 282 576 q 322 325 282 396 q 431 215 361 254 q 586 175 500 175 m 586 -292 q 517 -266 544 -292 q 490 -199 490 -240 q 517 -129 490 -157 q 586 -101 544 -101 q 654 -129 626 -101 q 682 -199 682 -157 q 655 -266 682 -240 q 586 -292 628 -292 m 707 1051 l 586 1157 l 465 1051 l 307 1051 l 490 1251 l 682 1251 l 865 1051 l 707 1051 z "},"Ồ":{"ha":1172,"x_min":54,"x_max":1118,"o":"m 586 -17 q 313 49 435 -17 q 123 228 192 114 q 54 486 54 343 q 123 744 54 629 q 313 924 192 858 q 586 989 435 989 q 858 924 738 989 q 1049 744 979 858 q 1118 486 1118 629 q 1049 228 1118 343 q 858 49 979 114 q 586 -17 738 -17 m 586 175 q 742 215 672 175 q 851 325 811 254 q 890 486 890 396 q 851 647 890 576 q 742 758 811 718 q 586 797 672 797 q 431 758 500 797 q 322 647 361 718 q 282 486 282 576 q 322 325 282 396 q 431 215 361 254 q 586 175 500 175 m 706 1051 l 586 1131 l 467 1051 l 307 1051 l 492 1210 l 681 1210 l 865 1051 l 706 1051 m 618 1353 l 839 1353 l 992 1185 l 836 1185 l 618 1353 z "},"Ổ":{"ha":1172,"x_min":54,"x_max":1118,"o":"m 586 -17 q 313 49 435 -17 q 123 228 192 114 q 54 486 54 343 q 123 744 54 629 q 313 924 192 858 q 586 989 435 989 q 858 924 738 989 q 1049 744 979 858 q 1118 486 1118 629 q 1049 228 1118 343 q 858 49 979 114 q 586 -17 738 -17 m 586 175 q 742 215 672 175 q 851 325 811 254 q 890 486 890 396 q 851 647 890 576 q 742 758 811 718 q 586 797 672 797 q 431 758 500 797 q 322 647 361 718 q 282 486 282 576 q 322 325 282 396 q 431 215 361 254 q 586 175 500 175 m 706 1051 l 586 1131 l 467 1051 l 307 1051 l 492 1210 l 681 1210 l 865 1051 l 706 1051 m 781 1210 q 832 1268 832 1235 q 819 1297 832 1286 q 785 1308 806 1308 q 724 1292 756 1308 l 688 1358 q 803 1389 735 1389 q 896 1359 861 1389 q 931 1279 931 1329 q 903 1207 931 1239 q 833 1158 876 1175 l 781 1210 z "},"Ỗ":{"ha":1172,"x_min":54,"x_max":1118,"o":"m 586 -17 q 313 49 435 -17 q 123 228 192 114 q 54 486 54 343 q 123 744 54 629 q 313 924 192 858 q 586 989 435 989 q 858 924 738 989 q 1049 744 979 858 q 1118 486 1118 629 q 1049 228 1118 343 q 858 49 979 114 q 586 -17 738 -17 m 586 175 q 742 215 672 175 q 851 325 811 254 q 890 486 890 396 q 851 647 890 576 q 742 758 811 718 q 586 797 672 797 q 431 758 500 797 q 322 647 361 718 q 282 486 282 576 q 322 325 282 396 q 431 215 361 254 q 586 175 500 175 m 706 1051 l 586 1131 l 467 1051 l 307 1051 l 492 1210 l 681 1210 l 865 1051 l 706 1051 m 689 1258 q 622 1270 651 1258 q 558 1304 593 1282 q 526 1322 542 1314 q 497 1331 510 1331 q 454 1314 469 1331 q 436 1267 439 1297 l 325 1267 q 369 1395 326 1350 q 486 1440 411 1440 q 548 1429 522 1440 q 613 1396 574 1418 q 649 1375 635 1382 q 678 1368 664 1368 q 721 1385 706 1368 q 739 1431 736 1403 l 847 1431 q 804 1304 846 1350 q 689 1258 763 1258 z "},"Ȍ":{"ha":1172,"x_min":54,"x_max":1118,"o":"m 586 -17 q 313 49 435 -17 q 123 228 192 114 q 54 486 54 343 q 123 744 54 629 q 313 924 192 858 q 586 989 435 989 q 858 924 738 989 q 1049 744 979 858 q 1118 486 1118 629 q 1049 228 1118 343 q 858 49 979 114 q 586 -17 738 -17 m 586 175 q 742 215 672 175 q 851 325 811 254 q 890 486 890 396 q 851 647 890 576 q 742 758 811 718 q 586 797 672 797 q 431 758 500 797 q 322 647 361 718 q 282 486 282 576 q 322 325 282 396 q 431 215 361 254 q 586 175 500 175 m 222 1251 l 425 1251 l 525 1051 l 367 1051 l 222 1251 m 503 1251 l 706 1251 l 806 1051 l 647 1051 l 503 1251 z "},"Ö":{"ha":1172,"x_min":54,"x_max":1118,"o":"m 586 -17 q 313 49 435 -17 q 123 228 192 114 q 54 486 54 343 q 123 744 54 629 q 313 924 192 858 q 586 989 435 989 q 858 924 738 989 q 1049 744 979 858 q 1118 486 1118 629 q 1049 228 1118 343 q 858 49 979 114 q 586 -17 738 -17 m 586 175 q 742 215 672 175 q 851 325 811 254 q 890 486 890 396 q 851 647 890 576 q 742 758 811 718 q 586 797 672 797 q 431 758 500 797 q 322 647 361 718 q 282 486 282 576 q 322 325 282 396 q 431 215 361 254 q 586 175 500 175 m 446 1058 q 376 1085 404 1058 q 349 1154 349 1113 q 376 1223 349 1196 q 446 1250 404 1250 q 515 1223 488 1250 q 542 1154 542 1196 q 515 1085 542 1113 q 446 1058 488 1058 m 726 1058 q 658 1085 685 1058 q 631 1154 631 1113 q 658 1223 631 1196 q 726 1250 685 1250 q 796 1223 768 1250 q 824 1154 824 1196 q 796 1085 824 1113 q 726 1058 768 1058 z "},"Ȫ":{"ha":1172,"x_min":54,"x_max":1118,"o":"m 586 -17 q 313 49 435 -17 q 123 228 192 114 q 54 486 54 343 q 123 744 54 629 q 313 924 192 858 q 586 989 435 989 q 858 924 738 989 q 1049 744 979 858 q 1118 486 1118 629 q 1049 228 1118 343 q 858 49 979 114 q 586 -17 738 -17 m 586 175 q 742 215 672 175 q 851 325 811 254 q 890 486 890 396 q 851 647 890 576 q 742 758 811 718 q 586 797 672 797 q 431 758 500 797 q 322 647 361 718 q 282 486 282 576 q 322 325 282 396 q 431 215 361 254 q 586 175 500 175 m 450 1058 q 385 1084 411 1058 q 358 1150 358 1110 q 385 1215 358 1189 q 450 1242 411 1242 q 517 1215 490 1242 q 543 1150 543 1189 q 517 1084 543 1110 q 450 1058 490 1058 m 722 1058 q 657 1084 683 1058 q 631 1150 631 1110 q 658 1215 631 1189 q 722 1242 685 1242 q 788 1215 761 1242 q 814 1150 814 1189 q 788 1084 814 1110 q 722 1058 761 1058 m 329 1413 l 843 1413 l 843 1297 l 329 1297 l 329 1413 z "},"Ȱ":{"ha":1172,"x_min":54,"x_max":1118,"o":"m 586 -17 q 313 49 435 -17 q 123 228 192 114 q 54 486 54 343 q 123 744 54 629 q 313 924 192 858 q 586 989 435 989 q 858 924 738 989 q 1049 744 979 858 q 1118 486 1118 629 q 1049 228 1118 343 q 858 49 979 114 q 586 -17 738 -17 m 586 175 q 742 215 672 175 q 851 325 811 254 q 890 486 890 396 q 851 647 890 576 q 742 758 811 718 q 586 797 672 797 q 431 758 500 797 q 322 647 361 718 q 282 486 282 576 q 322 325 282 396 q 431 215 361 254 q 586 175 500 175 m 586 1057 q 517 1083 544 1057 q 490 1151 490 1110 q 517 1220 490 1193 q 586 1247 544 1247 q 655 1220 628 1247 q 682 1151 682 1193 q 655 1083 682 1110 q 586 1057 628 1057 m 329 1422 l 843 1422 l 843 1307 l 329 1307 l 329 1422 z "},"Ọ":{"ha":1172,"x_min":54,"x_max":1118,"o":"m 586 -17 q 313 49 435 -17 q 123 228 192 114 q 54 486 54 343 q 123 744 54 629 q 313 924 192 858 q 586 989 435 989 q 858 924 738 989 q 1049 744 979 858 q 1118 486 1118 629 q 1049 228 1118 343 q 858 49 979 114 q 586 -17 738 -17 m 586 175 q 742 215 672 175 q 851 325 811 254 q 890 486 890 396 q 851 647 890 576 q 742 758 811 718 q 586 797 672 797 q 431 758 500 797 q 322 647 361 718 q 282 486 282 576 q 322 325 282 396 q 431 215 361 254 q 586 175 500 175 m 586 -292 q 517 -266 544 -292 q 490 -199 490 -240 q 517 -129 490 -157 q 586 -101 544 -101 q 654 -129 626 -101 q 682 -199 682 -157 q 655 -266 682 -240 q 586 -292 628 -292 z "},"Ò":{"ha":1172,"x_min":54,"x_max":1118,"o":"m 586 -17 q 313 49 435 -17 q 123 228 192 114 q 54 486 54 343 q 123 744 54 629 q 313 924 192 858 q 586 989 435 989 q 858 924 738 989 q 1049 744 979 858 q 1118 486 1118 629 q 1049 228 1118 343 q 858 49 979 114 q 586 -17 738 -17 m 586 175 q 742 215 672 175 q 851 325 811 254 q 890 486 890 396 q 851 647 890 576 q 742 758 811 718 q 586 797 672 797 q 431 758 500 797 q 322 647 361 718 q 282 486 282 576 q 322 325 282 396 q 431 215 361 254 q 586 175 500 175 m 292 1251 l 525 1251 l 713 1051 l 543 1051 l 292 1251 z "},"Ỏ":{"ha":1172,"x_min":54,"x_max":1118,"o":"m 586 -17 q 313 49 435 -17 q 123 228 192 114 q 54 486 54 343 q 123 744 54 629 q 313 924 192 858 q 586 989 435 989 q 858 924 738 989 q 1049 744 979 858 q 1118 486 1118 629 q 1049 228 1118 343 q 858 49 979 114 q 586 -17 738 -17 m 586 175 q 742 215 672 175 q 851 325 811 254 q 890 486 890 396 q 851 647 890 576 q 742 758 811 718 q 586 797 672 797 q 431 758 500 797 q 322 647 361 718 q 282 486 282 576 q 322 325 282 396 q 431 215 361 254 q 586 175 500 175 m 560 1110 q 615 1149 599 1128 q 631 1194 631 1169 q 613 1237 631 1221 q 565 1253 594 1253 q 483 1226 524 1253 l 439 1314 q 589 1361 499 1361 q 709 1320 663 1361 q 756 1213 756 1279 q 628 1038 756 1096 l 560 1110 z "},"Ơ":{"ha":1172,"x_min":54,"x_max":1118,"o":"m 954 853 q 1074 692 1031 788 q 1118 486 1118 597 q 1049 228 1118 343 q 858 49 979 114 q 586 -17 738 -17 q 313 49 435 -17 q 123 228 192 114 q 54 486 54 343 q 124 744 54 629 q 317 924 193 858 q 596 989 440 989 q 749 978 657 989 q 850 969 821 969 q 934 993 904 969 q 964 1061 964 1017 q 936 1144 964 1104 l 1064 1192 q 1108 1053 1108 1129 q 1068 925 1108 976 q 954 853 1028 874 m 586 175 q 742 215 672 175 q 851 325 811 254 q 890 486 890 396 q 851 647 890 576 q 742 758 811 718 q 586 797 672 797 q 431 758 500 797 q 322 647 361 718 q 282 486 282 576 q 322 325 282 396 q 431 215 361 254 q 586 175 500 175 z "},"Ớ":{"ha":1172,"x_min":54,"x_max":1118,"o":"m 954 853 q 1074 692 1031 788 q 1118 486 1118 597 q 1049 228 1118 343 q 858 49 979 114 q 586 -17 738 -17 q 313 49 435 -17 q 123 228 192 114 q 54 486 54 343 q 124 744 54 629 q 317 924 193 858 q 596 989 440 989 q 749 978 657 989 q 850 969 821 969 q 934 993 904 969 q 964 1061 964 1017 q 936 1144 964 1104 l 1064 1192 q 1108 1053 1108 1129 q 1068 925 1108 976 q 954 853 1028 874 m 586 175 q 742 215 672 175 q 851 325 811 254 q 890 486 890 396 q 851 647 890 576 q 742 758 811 718 q 586 797 672 797 q 431 758 500 797 q 322 647 361 718 q 282 486 282 576 q 322 325 282 396 q 431 215 361 254 q 586 175 500 175 m 647 1251 l 881 1251 l 629 1051 l 460 1051 l 647 1251 z "},"Ợ":{"ha":1172,"x_min":54,"x_max":1118,"o":"m 954 853 q 1074 692 1031 788 q 1118 486 1118 597 q 1049 228 1118 343 q 858 49 979 114 q 586 -17 738 -17 q 313 49 435 -17 q 123 228 192 114 q 54 486 54 343 q 124 744 54 629 q 317 924 193 858 q 596 989 440 989 q 749 978 657 989 q 850 969 821 969 q 934 993 904 969 q 964 1061 964 1017 q 936 1144 964 1104 l 1064 1192 q 1108 1053 1108 1129 q 1068 925 1108 976 q 954 853 1028 874 m 586 175 q 742 215 672 175 q 851 325 811 254 q 890 486 890 396 q 851 647 890 576 q 742 758 811 718 q 586 797 672 797 q 431 758 500 797 q 322 647 361 718 q 282 486 282 576 q 322 325 282 396 q 431 215 361 254 q 586 175 500 175 m 586 -292 q 517 -266 544 -292 q 490 -199 490 -240 q 517 -129 490 -157 q 586 -101 544 -101 q 654 -129 626 -101 q 682 -199 682 -157 q 655 -266 682 -240 q 586 -292 628 -292 z "},"Ờ":{"ha":1172,"x_min":54,"x_max":1118,"o":"m 954 853 q 1074 692 1031 788 q 1118 486 1118 597 q 1049 228 1118 343 q 858 49 979 114 q 586 -17 738 -17 q 313 49 435 -17 q 123 228 192 114 q 54 486 54 343 q 124 744 54 629 q 317 924 193 858 q 596 989 440 989 q 749 978 657 989 q 850 969 821 969 q 934 993 904 969 q 964 1061 964 1017 q 936 1144 964 1104 l 1064 1192 q 1108 1053 1108 1129 q 1068 925 1108 976 q 954 853 1028 874 m 586 175 q 742 215 672 175 q 851 325 811 254 q 890 486 890 396 q 851 647 890 576 q 742 758 811 718 q 586 797 672 797 q 431 758 500 797 q 322 647 361 718 q 282 486 282 576 q 322 325 282 396 q 431 215 361 254 q 586 175 500 175 m 292 1251 l 525 1251 l 713 1051 l 543 1051 l 292 1251 z "},"Ở":{"ha":1172,"x_min":54,"x_max":1118,"o":"m 954 853 q 1074 692 1031 788 q 1118 486 1118 597 q 1049 228 1118 343 q 858 49 979 114 q 586 -17 738 -17 q 313 49 435 -17 q 123 228 192 114 q 54 486 54 343 q 124 744 54 629 q 317 924 193 858 q 596 989 440 989 q 749 978 657 989 q 850 969 821 969 q 934 993 904 969 q 964 1061 964 1017 q 936 1144 964 1104 l 1064 1192 q 1108 1053 1108 1129 q 1068 925 1108 976 q 954 853 1028 874 m 586 175 q 742 215 672 175 q 851 325 811 254 q 890 486 890 396 q 851 647 890 576 q 742 758 811 718 q 586 797 672 797 q 431 758 500 797 q 322 647 361 718 q 282 486 282 576 q 322 325 282 396 q 431 215 361 254 q 586 175 500 175 m 560 1110 q 615 1149 599 1128 q 631 1194 631 1169 q 613 1237 631 1221 q 565 1253 594 1253 q 483 1226 524 1253 l 439 1314 q 589 1361 499 1361 q 709 1320 663 1361 q 756 1213 756 1279 q 628 1038 756 1096 l 560 1110 z "},"Ỡ":{"ha":1172,"x_min":54,"x_max":1118,"o":"m 954 853 q 1074 692 1031 788 q 1118 486 1118 597 q 1049 228 1118 343 q 858 49 979 114 q 586 -17 738 -17 q 313 49 435 -17 q 123 228 192 114 q 54 486 54 343 q 124 744 54 629 q 317 924 193 858 q 596 989 440 989 q 749 978 657 989 q 850 969 821 969 q 934 993 904 969 q 964 1061 964 1017 q 936 1144 964 1104 l 1064 1192 q 1108 1053 1108 1129 q 1068 925 1108 976 q 954 853 1028 874 m 586 175 q 742 215 672 175 q 851 325 811 254 q 890 486 890 396 q 851 647 890 576 q 742 758 811 718 q 586 797 672 797 q 431 758 500 797 q 322 647 361 718 q 282 486 282 576 q 322 325 282 396 q 431 215 361 254 q 586 175 500 175 m 690 1047 q 624 1062 653 1047 q 561 1101 596 1076 q 524 1126 539 1118 q 496 1135 510 1135 q 449 1115 467 1135 q 429 1057 431 1094 l 319 1057 q 366 1205 322 1150 q 482 1260 410 1260 q 547 1245 518 1260 q 611 1204 575 1231 q 648 1179 633 1188 q 676 1171 663 1171 q 723 1191 704 1171 q 743 1246 742 1211 l 853 1246 q 806 1101 850 1156 q 690 1047 763 1047 z "},"Ő":{"ha":1172,"x_min":54,"x_max":1118,"o":"m 586 -17 q 313 49 435 -17 q 123 228 192 114 q 54 486 54 343 q 123 744 54 629 q 313 924 192 858 q 586 989 435 989 q 858 924 738 989 q 1049 744 979 858 q 1118 486 1118 629 q 1049 228 1118 343 q 858 49 979 114 q 586 -17 738 -17 m 586 175 q 742 215 672 175 q 851 325 811 254 q 890 486 890 396 q 851 647 890 576 q 742 758 811 718 q 586 797 672 797 q 431 758 500 797 q 322 647 361 718 q 282 486 282 576 q 322 325 282 396 q 431 215 361 254 q 586 175 500 175 m 467 1251 l 669 1251 l 525 1051 l 367 1051 l 467 1251 m 747 1251 l 950 1251 l 806 1051 l 647 1051 l 747 1251 z "},"Ȏ":{"ha":1172,"x_min":54,"x_max":1118,"o":"m 586 -17 q 313 49 435 -17 q 123 228 192 114 q 54 486 54 343 q 123 744 54 629 q 313 924 192 858 q 586 989 435 989 q 858 924 738 989 q 1049 744 979 858 q 1118 486 1118 629 q 1049 228 1118 343 q 858 49 979 114 q 586 -17 738 -17 m 586 175 q 742 215 672 175 q 851 325 811 254 q 890 486 890 396 q 851 647 890 576 q 742 758 811 718 q 586 797 672 797 q 431 758 500 797 q 322 647 361 718 q 282 486 282 576 q 322 325 282 396 q 431 215 361 254 q 586 175 500 175 m 331 1051 q 406 1206 335 1149 q 586 1263 476 1263 q 767 1206 696 1263 q 842 1051 838 1149 l 706 1051 q 670 1123 704 1096 q 586 1150 636 1150 q 502 1123 536 1150 q 467 1051 468 1096 l 331 1051 z "},"Ō":{"ha":1172,"x_min":54,"x_max":1118,"o":"m 586 -17 q 313 49 435 -17 q 123 228 192 114 q 54 486 54 343 q 123 744 54 629 q 313 924 192 858 q 586 989 435 989 q 858 924 738 989 q 1049 744 979 858 q 1118 486 1118 629 q 1049 228 1118 343 q 858 49 979 114 q 586 -17 738 -17 m 586 175 q 742 215 672 175 q 851 325 811 254 q 890 486 890 396 q 851 647 890 576 q 742 758 811 718 q 586 797 672 797 q 431 758 500 797 q 322 647 361 718 q 282 486 282 576 q 322 325 282 396 q 431 215 361 254 q 586 175 500 175 m 329 1213 l 843 1213 l 843 1090 l 329 1090 l 329 1213 z "},"Ṓ":{"ha":1172,"x_min":54,"x_max":1118,"o":"m 586 -17 q 313 49 435 -17 q 123 228 192 114 q 54 486 54 343 q 123 744 54 629 q 313 924 192 858 q 586 989 435 989 q 858 924 738 989 q 1049 744 979 858 q 1118 486 1118 629 q 1049 228 1118 343 q 858 49 979 114 q 586 -17 738 -17 m 586 175 q 742 215 672 175 q 851 325 811 254 q 890 486 890 396 q 851 647 890 576 q 742 758 811 718 q 586 797 672 797 q 431 758 500 797 q 322 647 361 718 q 282 486 282 576 q 322 325 282 396 q 431 215 361 254 q 586 175 500 175 m 329 1189 l 843 1189 l 843 1074 l 329 1074 l 329 1189 m 621 1443 l 842 1443 l 624 1275 l 467 1275 l 621 1443 z "},"Ṑ":{"ha":1172,"x_min":54,"x_max":1118,"o":"m 586 -17 q 313 49 435 -17 q 123 228 192 114 q 54 486 54 343 q 123 744 54 629 q 313 924 192 858 q 586 989 435 989 q 858 924 738 989 q 1049 744 979 858 q 1118 486 1118 629 q 1049 228 1118 343 q 858 49 979 114 q 586 -17 738 -17 m 586 175 q 742 215 672 175 q 851 325 811 254 q 890 486 890 396 q 851 647 890 576 q 742 758 811 718 q 586 797 672 797 q 431 758 500 797 q 322 647 361 718 q 282 486 282 576 q 322 325 282 396 q 431 215 361 254 q 586 175 500 175 m 329 1189 l 843 1189 l 843 1074 l 329 1074 l 329 1189 m 332 1443 l 553 1443 l 706 1275 l 550 1275 l 332 1443 z "},"Ǫ":{"ha":1172,"x_min":54,"x_max":1118,"o":"m 753 8 q 608 -62 657 -21 q 560 -149 560 -103 q 581 -195 560 -178 q 640 -212 603 -212 q 724 -192 686 -212 l 756 -290 q 691 -313 729 -304 q 615 -322 653 -322 q 474 -280 525 -322 q 424 -167 424 -237 q 507 -11 424 -78 q 272 74 375 6 q 112 249 169 142 q 54 486 54 356 q 124 744 54 629 q 314 924 193 858 q 586 989 435 989 q 858 924 738 989 q 1049 744 979 858 q 1118 486 1118 629 q 1070 270 1118 368 q 940 106 1022 172 q 753 8 857 39 m 282 486 q 322 325 282 396 q 431 215 361 254 q 586 175 500 175 q 742 215 672 175 q 851 325 811 254 q 890 486 890 396 q 851 647 890 576 q 742 758 811 718 q 586 797 672 797 q 431 758 500 797 q 322 647 361 718 q 282 486 282 576 z "},"Ø":{"ha":1172,"x_min":54,"x_max":1118,"o":"m 586 -17 q 313 49 435 -17 q 123 228 192 114 q 54 486 54 343 q 123 744 54 629 q 313 924 192 858 q 586 989 435 989 q 858 924 738 989 q 1049 744 979 858 q 1118 486 1118 629 q 1049 228 1118 343 q 858 49 979 114 q 586 -17 738 -17 m 586 175 q 742 215 672 175 q 851 325 811 254 q 890 486 890 396 q 851 647 890 576 q 742 758 811 718 q 586 797 672 797 q 431 758 500 797 q 322 647 361 718 q 282 486 282 576 q 322 325 282 396 q 431 215 361 254 q 586 175 500 175 m 929 1069 l 1075 1069 l 244 -97 l 99 -97 l 929 1069 z "},"Ǿ":{"ha":1172,"x_min":54,"x_max":1118,"o":"m 586 -17 q 313 49 435 -17 q 123 228 192 114 q 54 486 54 343 q 123 744 54 629 q 313 924 192 858 q 586 989 435 989 q 858 924 738 989 q 1049 744 979 858 q 1118 486 1118 629 q 1049 228 1118 343 q 858 49 979 114 q 586 -17 738 -17 m 586 175 q 742 215 672 175 q 851 325 811 254 q 890 486 890 396 q 851 647 890 576 q 742 758 811 718 q 586 797 672 797 q 431 758 500 797 q 322 647 361 718 q 282 486 282 576 q 322 325 282 396 q 431 215 361 254 q 586 175 500 175 m 929 1069 l 1075 1069 l 244 -97 l 99 -97 l 929 1069 m 647 1251 l 881 1251 l 629 1051 l 460 1051 l 647 1251 z "},"Õ":{"ha":1172,"x_min":54,"x_max":1118,"o":"m 586 -17 q 313 49 435 -17 q 123 228 192 114 q 54 486 54 343 q 123 744 54 629 q 313 924 192 858 q 586 989 435 989 q 858 924 738 989 q 1049 744 979 858 q 1118 486 1118 629 q 1049 228 1118 343 q 858 49 979 114 q 586 -17 738 -17 m 586 175 q 742 215 672 175 q 851 325 811 254 q 890 486 890 396 q 851 647 890 576 q 742 758 811 718 q 586 797 672 797 q 431 758 500 797 q 322 647 361 718 q 282 486 282 576 q 322 325 282 396 q 431 215 361 254 q 586 175 500 175 m 690 1047 q 624 1062 653 1047 q 561 1101 596 1076 q 524 1126 539 1118 q 496 1135 510 1135 q 449 1115 467 1135 q 429 1057 431 1094 l 319 1057 q 366 1205 322 1150 q 482 1260 410 1260 q 547 1245 518 1260 q 611 1204 575 1231 q 648 1179 633 1188 q 676 1171 663 1171 q 723 1191 704 1171 q 743 1246 742 1211 l 853 1246 q 806 1101 850 1156 q 690 1047 763 1047 z "},"Ṍ":{"ha":1172,"x_min":54,"x_max":1118,"o":"m 586 -17 q 313 49 435 -17 q 123 228 192 114 q 54 486 54 343 q 123 744 54 629 q 313 924 192 858 q 586 989 435 989 q 858 924 738 989 q 1049 744 979 858 q 1118 486 1118 629 q 1049 228 1118 343 q 858 49 979 114 q 586 -17 738 -17 m 586 175 q 742 215 672 175 q 851 325 811 254 q 890 486 890 396 q 851 647 890 576 q 742 758 811 718 q 586 797 672 797 q 431 758 500 797 q 322 647 361 718 q 282 486 282 576 q 322 325 282 396 q 431 215 361 254 q 586 175 500 175 m 689 1049 q 622 1060 651 1049 q 558 1094 593 1072 q 526 1113 542 1104 q 497 1121 510 1121 q 454 1104 469 1121 q 436 1057 439 1088 l 325 1057 q 369 1185 326 1140 q 486 1231 411 1231 q 548 1219 522 1231 q 613 1186 574 1208 q 649 1165 635 1172 q 678 1158 664 1158 q 721 1176 706 1158 q 739 1221 736 1193 l 847 1221 q 804 1094 846 1140 q 689 1049 763 1049 m 621 1443 l 842 1443 l 624 1275 l 467 1275 l 621 1443 z "},"Ṏ":{"ha":1172,"x_min":54,"x_max":1118,"o":"m 586 -17 q 313 49 435 -17 q 123 228 192 114 q 54 486 54 343 q 123 744 54 629 q 313 924 192 858 q 586 989 435 989 q 858 924 738 989 q 1049 744 979 858 q 1118 486 1118 629 q 1049 228 1118 343 q 858 49 979 114 q 586 -17 738 -17 m 586 175 q 742 215 672 175 q 851 325 811 254 q 890 486 890 396 q 851 647 890 576 q 742 758 811 718 q 586 797 672 797 q 431 758 500 797 q 322 647 361 718 q 282 486 282 576 q 322 325 282 396 q 431 215 361 254 q 586 175 500 175 m 689 1049 q 622 1060 651 1049 q 558 1094 593 1072 q 526 1113 542 1104 q 497 1121 510 1121 q 454 1104 469 1121 q 436 1057 439 1088 l 325 1057 q 369 1185 326 1140 q 486 1231 411 1231 q 548 1219 522 1231 q 613 1186 574 1208 q 649 1165 635 1172 q 678 1158 664 1158 q 721 1176 706 1158 q 739 1221 736 1193 l 847 1221 q 804 1094 846 1140 q 689 1049 763 1049 m 450 1282 q 385 1308 411 1282 q 358 1374 358 1333 q 385 1439 358 1413 q 450 1465 411 1465 q 517 1439 490 1465 q 543 1374 543 1413 q 517 1308 543 1333 q 450 1282 490 1282 m 722 1282 q 657 1308 683 1282 q 631 1374 631 1333 q 658 1439 631 1413 q 722 1465 685 1465 q 788 1439 761 1465 q 814 1374 814 1413 q 788 1308 814 1333 q 722 1282 761 1282 z "},"Ȭ":{"ha":1172,"x_min":54,"x_max":1118,"o":"m 586 -17 q 313 49 435 -17 q 123 228 192 114 q 54 486 54 343 q 123 744 54 629 q 313 924 192 858 q 586 989 435 989 q 858 924 738 989 q 1049 744 979 858 q 1118 486 1118 629 q 1049 228 1118 343 q 858 49 979 114 q 586 -17 738 -17 m 586 175 q 742 215 672 175 q 851 325 811 254 q 890 486 890 396 q 851 647 890 576 q 742 758 811 718 q 586 797 672 797 q 431 758 500 797 q 322 647 361 718 q 282 486 282 576 q 322 325 282 396 q 431 215 361 254 q 586 175 500 175 m 689 1049 q 622 1060 651 1049 q 558 1094 593 1072 q 526 1113 542 1104 q 497 1121 510 1121 q 454 1104 469 1121 q 436 1057 439 1088 l 325 1057 q 369 1185 326 1140 q 486 1231 411 1231 q 548 1219 522 1231 q 613 1186 574 1208 q 649 1165 635 1172 q 678 1158 664 1158 q 721 1176 706 1158 q 739 1221 736 1193 l 847 1221 q 804 1094 846 1140 q 689 1049 763 1049 m 329 1413 l 843 1413 l 843 1297 l 329 1297 l 329 1413 z "},"Œ":{"ha":1578,"x_min":54,"x_max":1514,"o":"m 1514 181 l 1514 0 l 590 0 q 310 60 432 0 q 122 231 189 121 q 54 485 54 340 q 122 741 54 631 q 310 912 189 851 q 590 972 432 972 l 1496 972 l 1496 792 l 985 792 l 985 581 l 1436 581 l 1436 406 l 985 406 l 985 181 l 1514 181 m 761 185 l 761 788 l 601 788 q 369 706 456 788 q 282 485 282 625 q 369 266 282 347 q 601 185 456 185 l 761 185 z "},"P":{"ha":1017,"x_min":115,"x_max":958,"o":"m 536 972 q 760 929 665 972 q 907 807 856 886 q 958 619 958 728 q 907 433 958 513 q 760 310 856 353 q 536 268 665 268 l 340 268 l 340 0 l 115 0 l 115 972 l 536 972 m 524 451 q 678 495 625 451 q 731 619 731 539 q 678 745 731 701 q 524 789 625 789 l 340 789 l 340 451 l 524 451 z "},"Þ":{"ha":1017,"x_min":115,"x_max":958,"o":"m 536 865 q 760 822 665 865 q 907 700 856 779 q 958 513 958 621 q 907 325 958 404 q 760 203 856 246 q 536 160 665 160 l 340 160 l 340 0 l 115 0 l 115 972 l 340 972 l 340 865 l 536 865 m 524 343 q 678 387 625 343 q 731 513 731 431 q 678 638 731 594 q 524 682 625 682 l 340 682 l 340 343 l 524 343 z "},"Q":{"ha":1172,"x_min":54,"x_max":1167,"o":"m 1167 -104 q 1052 -193 1119 -162 q 904 -224 985 -224 q 708 -177 796 -224 q 508 -12 621 -131 q 273 72 376 4 q 112 248 169 140 q 54 486 54 356 q 123 744 54 629 q 313 924 192 858 q 586 989 435 989 q 858 924 738 989 q 1049 744 979 858 q 1118 486 1118 629 q 1023 189 1118 317 q 771 11 928 61 q 838 -41 806 -25 q 908 -57 871 -57 q 1067 15 999 -57 l 1167 -104 m 282 486 q 322 325 282 396 q 431 215 361 254 q 586 175 500 175 q 742 215 672 175 q 851 325 811 254 q 890 486 890 396 q 851 647 890 576 q 742 758 811 718 q 586 797 672 797 q 431 758 500 797 q 322 647 361 718 q 282 486 282 576 z "},"R":{"ha":1021,"x_min":115,"x_max":976,"o":"m 735 0 l 547 271 l 536 271 l 340 271 l 340 0 l 115 0 l 115 972 l 536 972 q 760 929 665 972 q 907 807 856 886 q 958 619 958 728 q 906 433 958 511 q 758 313 854 354 l 976 0 l 735 0 m 731 619 q 678 745 731 701 q 524 789 625 789 l 340 789 l 340 450 l 524 450 q 678 494 625 450 q 731 619 731 539 z "},"Ŕ":{"ha":1021,"x_min":115,"x_max":976,"o":"m 735 0 l 547 271 l 536 271 l 340 271 l 340 0 l 115 0 l 115 972 l 536 972 q 760 929 665 972 q 907 807 856 886 q 958 619 958 728 q 906 433 958 511 q 758 313 854 354 l 976 0 l 735 0 m 731 619 q 678 745 731 701 q 524 789 625 789 l 340 789 l 340 450 l 524 450 q 678 494 625 450 q 731 619 731 539 m 582 1251 l 815 1251 l 564 1051 l 394 1051 l 582 1251 z "},"Ř":{"ha":1021,"x_min":115,"x_max":976,"o":"m 735 0 l 547 271 l 536 271 l 340 271 l 340 0 l 115 0 l 115 972 l 536 972 q 760 929 665 972 q 907 807 856 886 q 958 619 958 728 q 906 433 958 511 q 758 313 854 354 l 976 0 l 735 0 m 731 619 q 678 745 731 701 q 524 789 625 789 l 340 789 l 340 450 l 524 450 q 678 494 625 450 q 731 619 731 539 m 800 1251 l 617 1051 l 425 1051 l 242 1251 l 400 1251 l 521 1147 l 642 1251 l 800 1251 z "},"Ŗ":{"ha":1021,"x_min":115,"x_max":976,"o":"m 735 0 l 547 271 l 536 271 l 340 271 l 340 0 l 115 0 l 115 972 l 536 972 q 760 929 665 972 q 907 807 856 886 q 958 619 958 728 q 906 433 958 511 q 758 313 854 354 l 976 0 l 735 0 m 731 619 q 678 745 731 701 q 524 789 625 789 l 340 789 l 340 450 l 524 450 q 678 494 625 450 q 731 619 731 539 m 521 -101 q 591 -124 565 -101 q 617 -185 617 -147 q 592 -275 617 -228 l 543 -369 l 442 -369 l 476 -258 q 438 -231 451 -250 q 425 -185 425 -212 q 451 -124 425 -147 q 521 -101 476 -101 z "},"Ȑ":{"ha":1021,"x_min":115,"x_max":976,"o":"m 735 0 l 547 271 l 536 271 l 340 271 l 340 0 l 115 0 l 115 972 l 536 972 q 760 929 665 972 q 907 807 856 886 q 958 619 958 728 q 906 433 958 511 q 758 313 854 354 l 976 0 l 735 0 m 731 619 q 678 745 731 701 q 524 789 625 789 l 340 789 l 340 450 l 524 450 q 678 494 625 450 q 731 619 731 539 m 157 1251 l 360 1251 l 460 1051 l 301 1051 l 157 1251 m 438 1251 l 640 1251 l 740 1051 l 582 1051 l 438 1251 z "},"Ṛ":{"ha":1021,"x_min":115,"x_max":976,"o":"m 735 0 l 547 271 l 536 271 l 340 271 l 340 0 l 115 0 l 115 972 l 536 972 q 760 929 665 972 q 907 807 856 886 q 958 619 958 728 q 906 433 958 511 q 758 313 854 354 l 976 0 l 735 0 m 731 619 q 678 745 731 701 q 524 789 625 789 l 340 789 l 340 450 l 524 450 q 678 494 625 450 q 731 619 731 539 m 521 -292 q 452 -266 479 -292 q 425 -199 425 -240 q 452 -129 425 -157 q 521 -101 479 -101 q 589 -129 561 -101 q 617 -199 617 -157 q 590 -266 617 -240 q 521 -292 563 -292 z "},"Ȓ":{"ha":1021,"x_min":115,"x_max":976,"o":"m 735 0 l 547 271 l 536 271 l 340 271 l 340 0 l 115 0 l 115 972 l 536 972 q 760 929 665 972 q 907 807 856 886 q 958 619 958 728 q 906 433 958 511 q 758 313 854 354 l 976 0 l 735 0 m 731 619 q 678 745 731 701 q 524 789 625 789 l 340 789 l 340 450 l 524 450 q 678 494 625 450 q 731 619 731 539 m 265 1051 q 340 1206 269 1149 q 521 1263 411 1263 q 701 1206 631 1263 q 776 1051 772 1149 l 640 1051 q 605 1123 639 1096 q 521 1150 571 1150 q 437 1123 471 1150 q 401 1051 403 1096 l 265 1051 z "},"Ṟ":{"ha":1021,"x_min":115,"x_max":976,"o":"m 735 0 l 547 271 l 536 271 l 340 271 l 340 0 l 115 0 l 115 972 l 536 972 q 760 929 665 972 q 907 807 856 886 q 958 619 958 728 q 906 433 958 511 q 758 313 854 354 l 976 0 l 735 0 m 731 619 q 678 745 731 701 q 524 789 625 789 l 340 789 l 340 450 l 524 450 q 678 494 625 450 q 731 619 731 539 m 264 -132 l 778 -132 l 778 -253 l 264 -253 l 264 -132 z "},"S":{"ha":886,"x_min":39,"x_max":847,"o":"m 435 -17 q 212 15 319 -17 q 39 96 104 46 l 115 265 q 264 192 178 219 q 436 164 350 164 q 578 192 532 164 q 624 268 624 221 q 597 326 624 303 q 527 363 569 349 q 413 393 485 376 q 231 446 301 419 q 109 531 160 472 q 58 686 58 589 q 104 840 58 771 q 242 949 150 908 q 468 989 335 989 q 650 967 561 989 q 806 903 739 944 l 736 732 q 467 808 601 808 q 327 778 372 808 q 282 697 282 747 q 334 623 282 647 q 493 575 386 599 q 675 522 604 549 q 797 439 746 496 q 847 285 847 382 q 801 133 847 201 q 661 24 754 64 q 435 -17 568 -17 z "},"Ś":{"ha":886,"x_min":39,"x_max":847,"o":"m 435 -17 q 212 15 319 -17 q 39 96 104 46 l 115 265 q 264 192 178 219 q 436 164 350 164 q 578 192 532 164 q 624 268 624 221 q 597 326 624 303 q 527 363 569 349 q 413 393 485 376 q 231 446 301 419 q 109 531 160 472 q 58 686 58 589 q 104 840 58 771 q 242 949 150 908 q 468 989 335 989 q 650 967 561 989 q 806 903 739 944 l 736 732 q 467 808 601 808 q 327 778 372 808 q 282 697 282 747 q 334 623 282 647 q 493 575 386 599 q 675 522 604 549 q 797 439 746 496 q 847 285 847 382 q 801 133 847 201 q 661 24 754 64 q 435 -17 568 -17 m 513 1251 l 746 1251 l 494 1051 l 325 1051 l 513 1251 z "},"Ṥ":{"ha":886,"x_min":39,"x_max":847,"o":"m 435 -17 q 212 15 319 -17 q 39 96 104 46 l 115 265 q 264 192 178 219 q 436 164 350 164 q 578 192 532 164 q 624 268 624 221 q 597 326 624 303 q 527 363 569 349 q 413 393 485 376 q 231 446 301 419 q 109 531 160 472 q 58 686 58 589 q 104 840 58 771 q 242 949 150 908 q 468 989 335 989 q 650 967 561 989 q 806 903 739 944 l 736 732 q 467 808 601 808 q 327 778 372 808 q 282 697 282 747 q 334 623 282 647 q 493 575 386 599 q 675 522 604 549 q 797 439 746 496 q 847 285 847 382 q 801 133 847 201 q 661 24 754 64 q 435 -17 568 -17 m 486 1219 l 707 1219 l 489 1051 l 332 1051 l 486 1219 m 451 1281 q 383 1307 410 1281 q 356 1375 356 1333 q 383 1444 356 1417 q 451 1471 410 1471 q 520 1444 493 1471 q 547 1375 547 1417 q 520 1307 547 1333 q 451 1281 493 1281 z "},"Ꞌ":{"ha":413,"x_min":94,"x_max":317,"o":"m 94 972 l 317 972 l 289 413 l 94 413 l 94 972 z "},"Š":{"ha":886,"x_min":39,"x_max":847,"o":"m 435 -17 q 212 15 319 -17 q 39 96 104 46 l 115 265 q 264 192 178 219 q 436 164 350 164 q 578 192 532 164 q 624 268 624 221 q 597 326 624 303 q 527 363 569 349 q 413 393 485 376 q 231 446 301 419 q 109 531 160 472 q 58 686 58 589 q 104 840 58 771 q 242 949 150 908 q 468 989 335 989 q 650 967 561 989 q 806 903 739 944 l 736 732 q 467 808 601 808 q 327 778 372 808 q 282 697 282 747 q 334 623 282 647 q 493 575 386 599 q 675 522 604 549 q 797 439 746 496 q 847 285 847 382 q 801 133 847 201 q 661 24 754 64 q 435 -17 568 -17 m 731 1251 l 547 1051 l 356 1051 l 172 1251 l 331 1251 l 451 1147 l 572 1251 l 731 1251 z "},"Ṧ":{"ha":886,"x_min":39,"x_max":847,"o":"m 435 -17 q 212 15 319 -17 q 39 96 104 46 l 115 265 q 264 192 178 219 q 436 164 350 164 q 578 192 532 164 q 624 268 624 221 q 597 326 624 303 q 527 363 569 349 q 413 393 485 376 q 231 446 301 419 q 109 531 160 472 q 58 686 58 589 q 104 840 58 771 q 242 949 150 908 q 468 989 335 989 q 650 967 561 989 q 806 903 739 944 l 736 732 q 467 808 601 808 q 327 778 372 808 q 282 697 282 747 q 334 623 282 647 q 493 575 386 599 q 675 522 604 549 q 797 439 746 496 q 847 285 847 382 q 801 133 847 201 q 661 24 754 64 q 435 -17 568 -17 m 731 1210 l 546 1051 l 357 1051 l 172 1210 l 332 1210 l 451 1131 l 571 1210 l 731 1210 m 451 1249 q 383 1275 410 1249 q 356 1343 356 1301 q 383 1412 356 1385 q 451 1439 410 1439 q 520 1412 493 1439 q 547 1343 547 1385 q 520 1275 547 1301 q 451 1249 493 1249 z "},"Ş":{"ha":886,"x_min":39,"x_max":847,"o":"m 435 -17 q 212 15 319 -17 q 39 96 104 46 l 115 265 q 264 192 178 219 q 436 164 350 164 q 578 192 532 164 q 624 268 624 221 q 597 326 624 303 q 527 363 569 349 q 413 393 485 376 q 231 446 301 419 q 109 531 160 472 q 58 686 58 589 q 104 840 58 771 q 242 949 150 908 q 468 989 335 989 q 650 967 561 989 q 806 903 739 944 l 736 732 q 467 808 601 808 q 327 778 372 808 q 282 697 282 747 q 334 623 282 647 q 493 575 386 599 q 675 522 604 549 q 797 439 746 496 q 847 285 847 382 q 801 133 847 201 q 661 24 754 64 q 435 -17 568 -17 m 406 -322 q 335 -315 369 -322 q 276 -293 300 -307 l 310 -200 q 400 -221 354 -221 q 472 -176 472 -221 q 404 -136 472 -136 l 357 -136 l 393 11 l 508 11 l 489 -69 q 580 -108 550 -76 q 610 -185 610 -139 q 554 -285 610 -249 q 406 -322 499 -322 z "},"Ŝ":{"ha":886,"x_min":39,"x_max":847,"o":"m 435 -17 q 212 15 319 -17 q 39 96 104 46 l 115 265 q 264 192 178 219 q 436 164 350 164 q 578 192 532 164 q 624 268 624 221 q 597 326 624 303 q 527 363 569 349 q 413 393 485 376 q 231 446 301 419 q 109 531 160 472 q 58 686 58 589 q 104 840 58 771 q 242 949 150 908 q 468 989 335 989 q 650 967 561 989 q 806 903 739 944 l 736 732 q 467 808 601 808 q 327 778 372 808 q 282 697 282 747 q 334 623 282 647 q 493 575 386 599 q 675 522 604 549 q 797 439 746 496 q 847 285 847 382 q 801 133 847 201 q 661 24 754 64 q 435 -17 568 -17 m 572 1051 l 451 1157 l 331 1051 l 172 1051 l 356 1251 l 547 1251 l 731 1051 l 572 1051 z "},"Ș":{"ha":886,"x_min":39,"x_max":847,"o":"m 435 -17 q 212 15 319 -17 q 39 96 104 46 l 115 265 q 264 192 178 219 q 436 164 350 164 q 578 192 532 164 q 624 268 624 221 q 597 326 624 303 q 527 363 569 349 q 413 393 485 376 q 231 446 301 419 q 109 531 160 472 q 58 686 58 589 q 104 840 58 771 q 242 949 150 908 q 468 989 335 989 q 650 967 561 989 q 806 903 739 944 l 736 732 q 467 808 601 808 q 327 778 372 808 q 282 697 282 747 q 334 623 282 647 q 493 575 386 599 q 675 522 604 549 q 797 439 746 496 q 847 285 847 382 q 801 133 847 201 q 661 24 754 64 q 435 -17 568 -17 m 451 -101 q 522 -124 496 -101 q 547 -185 547 -147 q 522 -275 547 -228 l 474 -369 l 372 -369 l 407 -258 q 369 -231 382 -250 q 356 -185 356 -212 q 381 -124 356 -147 q 451 -101 407 -101 z "},"Ṡ":{"ha":886,"x_min":39,"x_max":847,"o":"m 435 -17 q 212 15 319 -17 q 39 96 104 46 l 115 265 q 264 192 178 219 q 436 164 350 164 q 578 192 532 164 q 624 268 624 221 q 597 326 624 303 q 527 363 569 349 q 413 393 485 376 q 231 446 301 419 q 109 531 160 472 q 58 686 58 589 q 104 840 58 771 q 242 949 150 908 q 468 989 335 989 q 650 967 561 989 q 806 903 739 944 l 736 732 q 467 808 601 808 q 327 778 372 808 q 282 697 282 747 q 334 623 282 647 q 493 575 386 599 q 675 522 604 549 q 797 439 746 496 q 847 285 847 382 q 801 133 847 201 q 661 24 754 64 q 435 -17 568 -17 m 451 1058 q 367 1092 400 1058 q 335 1176 335 1125 q 367 1260 335 1226 q 451 1293 400 1293 q 535 1260 503 1293 q 568 1176 568 1226 q 535 1092 568 1125 q 451 1058 503 1058 z "},"Ṣ":{"ha":886,"x_min":39,"x_max":847,"o":"m 435 -17 q 212 15 319 -17 q 39 96 104 46 l 115 265 q 264 192 178 219 q 436 164 350 164 q 578 192 532 164 q 624 268 624 221 q 597 326 624 303 q 527 363 569 349 q 413 393 485 376 q 231 446 301 419 q 109 531 160 472 q 58 686 58 589 q 104 840 58 771 q 242 949 150 908 q 468 989 335 989 q 650 967 561 989 q 806 903 739 944 l 736 732 q 467 808 601 808 q 327 778 372 808 q 282 697 282 747 q 334 623 282 647 q 493 575 386 599 q 675 522 604 549 q 797 439 746 496 q 847 285 847 382 q 801 133 847 201 q 661 24 754 64 q 435 -17 568 -17 m 451 -292 q 383 -266 410 -292 q 356 -199 356 -240 q 383 -129 356 -157 q 451 -101 410 -101 q 519 -129 492 -101 q 547 -199 547 -157 q 520 -266 547 -240 q 451 -292 493 -292 z "},"Ṩ":{"ha":886,"x_min":39,"x_max":847,"o":"m 435 -17 q 212 15 319 -17 q 39 96 104 46 l 115 265 q 264 192 178 219 q 436 164 350 164 q 578 192 532 164 q 624 268 624 221 q 597 326 624 303 q 527 363 569 349 q 413 393 485 376 q 231 446 301 419 q 109 531 160 472 q 58 686 58 589 q 104 840 58 771 q 242 949 150 908 q 468 989 335 989 q 650 967 561 989 q 806 903 739 944 l 736 732 q 467 808 601 808 q 327 778 372 808 q 282 697 282 747 q 334 623 282 647 q 493 575 386 599 q 675 522 604 549 q 797 439 746 496 q 847 285 847 382 q 801 133 847 201 q 661 24 754 64 q 435 -17 568 -17 m 451 -292 q 383 -266 410 -292 q 356 -199 356 -240 q 383 -129 356 -157 q 451 -101 410 -101 q 519 -129 492 -101 q 547 -199 547 -157 q 520 -266 547 -240 q 451 -292 493 -292 m 451 1058 q 367 1092 400 1058 q 335 1176 335 1125 q 367 1260 335 1226 q 451 1293 400 1293 q 535 1260 503 1293 q 568 1176 568 1226 q 535 1092 568 1125 q 451 1058 503 1058 z "},"ẞ":{"ha":1082,"x_min":107,"x_max":1028,"o":"m 774 581 q 958 480 888 557 q 1028 286 1028 403 q 981 124 1028 192 q 852 19 933 56 q 669 -17 771 -17 q 460 17 546 -17 l 493 194 q 635 164 554 164 q 758 197 715 164 q 800 296 800 231 q 757 394 800 360 q 636 428 714 428 q 533 413 576 428 l 494 510 l 733 786 q 586 810 665 810 q 397 740 463 810 q 332 539 332 669 l 332 0 l 107 0 l 107 544 q 163 782 107 682 q 326 936 218 882 q 583 990 433 990 q 772 966 678 990 q 931 897 867 942 l 931 761 l 774 581 z "},"Ə":{"ha":1135,"x_min":54,"x_max":1081,"o":"m 553 989 q 825 924 704 989 q 1013 745 946 860 q 1081 488 1081 631 q 1014 228 1081 343 q 831 48 947 113 q 568 -17 714 -17 q 303 49 421 -17 q 120 231 186 114 q 54 496 54 347 l 54 543 l 850 543 q 797 674 839 617 q 692 765 756 732 q 551 797 628 797 q 397 767 474 797 q 269 683 321 738 l 135 829 q 317 945 206 901 q 553 989 428 989 m 568 163 q 755 224 682 163 q 847 390 828 285 l 288 390 q 381 223 307 283 q 568 163 454 163 z "},"T":{"ha":858,"x_min":6,"x_max":853,"o":"m 317 789 l 6 789 l 6 972 l 853 972 l 853 789 l 542 789 l 542 0 l 317 0 l 317 789 z "},"Ŧ":{"ha":858,"x_min":6,"x_max":853,"o":"m 317 789 l 6 789 l 6 972 l 853 972 l 853 789 l 542 789 l 542 0 l 317 0 l 317 789 m 129 531 l 729 531 l 729 381 l 129 381 l 129 531 z "},"Ť":{"ha":858,"x_min":6,"x_max":853,"o":"m 317 789 l 6 789 l 6 972 l 853 972 l 853 789 l 542 789 l 542 0 l 317 0 l 317 789 m 708 1251 l 525 1051 l 333 1051 l 150 1251 l 308 1251 l 429 1147 l 550 1251 l 708 1251 z "},"Ţ":{"ha":858,"x_min":6,"x_max":853,"o":"m 317 789 l 6 789 l 6 972 l 853 972 l 853 789 l 542 789 l 542 0 l 317 0 l 317 789 m 383 -322 q 313 -315 347 -322 q 254 -293 278 -307 l 288 -200 q 378 -221 332 -221 q 450 -176 450 -221 q 382 -136 450 -136 l 335 -136 l 371 11 l 486 11 l 467 -69 q 558 -108 528 -76 q 588 -185 588 -139 q 532 -285 588 -249 q 383 -322 476 -322 z "},"Ț":{"ha":858,"x_min":6,"x_max":853,"o":"m 317 789 l 6 789 l 6 972 l 853 972 l 853 789 l 542 789 l 542 0 l 317 0 l 317 789 m 429 -101 q 499 -124 474 -101 q 525 -185 525 -147 q 500 -275 525 -228 l 451 -369 l 350 -369 l 385 -258 q 347 -231 360 -250 q 333 -185 333 -212 q 359 -124 333 -147 q 429 -101 385 -101 z "},"Ṭ":{"ha":858,"x_min":6,"x_max":853,"o":"m 317 789 l 6 789 l 6 972 l 853 972 l 853 789 l 542 789 l 542 0 l 317 0 l 317 789 m 429 -292 q 360 -266 388 -292 q 333 -199 333 -240 q 360 -129 333 -157 q 429 -101 388 -101 q 497 -129 469 -101 q 525 -199 525 -157 q 498 -266 525 -240 q 429 -292 471 -292 z "},"Ṯ":{"ha":858,"x_min":6,"x_max":853,"o":"m 317 789 l 6 789 l 6 972 l 853 972 l 853 789 l 542 789 l 542 0 l 317 0 l 317 789 m 172 -132 l 686 -132 l 686 -253 l 172 -253 l 172 -132 z "},"U":{"ha":1094,"x_min":107,"x_max":988,"o":"m 547 -17 q 223 99 339 -17 q 107 428 107 214 l 107 972 l 332 972 l 332 436 q 549 175 332 175 q 710 238 654 175 q 765 436 765 301 l 765 972 l 988 972 l 988 428 q 872 99 988 214 q 547 -17 756 -17 z "},"Ú":{"ha":1094,"x_min":107,"x_max":988,"o":"m 547 -17 q 223 99 339 -17 q 107 428 107 214 l 107 972 l 332 972 l 332 436 q 549 175 332 175 q 710 238 654 175 q 765 436 765 301 l 765 972 l 988 972 l 988 428 q 872 99 988 214 q 547 -17 756 -17 m 610 1251 l 843 1251 l 592 1051 l 422 1051 l 610 1251 z "},"Ŭ":{"ha":1094,"x_min":107,"x_max":988,"o":"m 547 -17 q 223 99 339 -17 q 107 428 107 214 l 107 972 l 332 972 l 332 436 q 549 175 332 175 q 710 238 654 175 q 765 436 765 301 l 765 972 l 988 972 l 988 428 q 872 99 988 214 q 547 -17 756 -17 m 549 1040 q 368 1097 439 1040 q 293 1251 297 1154 l 429 1251 q 465 1180 431 1207 q 549 1153 499 1153 q 633 1180 599 1153 q 668 1251 667 1207 l 804 1251 q 729 1097 800 1154 q 549 1040 658 1040 z "},"Ǔ":{"ha":1094,"x_min":107,"x_max":988,"o":"m 547 -17 q 223 99 339 -17 q 107 428 107 214 l 107 972 l 332 972 l 332 436 q 549 175 332 175 q 710 238 654 175 q 765 436 765 301 l 765 972 l 988 972 l 988 428 q 872 99 988 214 q 547 -17 756 -17 m 828 1251 l 644 1051 l 453 1051 l 269 1251 l 428 1251 l 549 1147 l 669 1251 l 828 1251 z "},"Û":{"ha":1094,"x_min":107,"x_max":988,"o":"m 547 -17 q 223 99 339 -17 q 107 428 107 214 l 107 972 l 332 972 l 332 436 q 549 175 332 175 q 710 238 654 175 q 765 436 765 301 l 765 972 l 988 972 l 988 428 q 872 99 988 214 q 547 -17 756 -17 m 669 1051 l 549 1157 l 428 1051 l 269 1051 l 453 1251 l 644 1251 l 828 1051 l 669 1051 z "},"Ȕ":{"ha":1094,"x_min":107,"x_max":988,"o":"m 547 -17 q 223 99 339 -17 q 107 428 107 214 l 107 972 l 332 972 l 332 436 q 549 175 332 175 q 710 238 654 175 q 765 436 765 301 l 765 972 l 988 972 l 988 428 q 872 99 988 214 q 547 -17 756 -17 m 185 1251 l 388 1251 l 488 1051 l 329 1051 l 185 1251 m 465 1251 l 668 1251 l 768 1051 l 610 1051 l 465 1251 z "},"Ü":{"ha":1094,"x_min":107,"x_max":988,"o":"m 547 -17 q 223 99 339 -17 q 107 428 107 214 l 107 972 l 332 972 l 332 436 q 549 175 332 175 q 710 238 654 175 q 765 436 765 301 l 765 972 l 988 972 l 988 428 q 872 99 988 214 q 547 -17 756 -17 m 408 1058 q 339 1085 367 1058 q 311 1154 311 1113 q 339 1223 311 1196 q 408 1250 367 1250 q 477 1223 450 1250 q 504 1154 504 1196 q 477 1085 504 1113 q 408 1058 450 1058 m 689 1058 q 620 1085 647 1058 q 593 1154 593 1113 q 620 1223 593 1196 q 689 1250 647 1250 q 758 1223 731 1250 q 786 1154 786 1196 q 758 1085 786 1113 q 689 1058 731 1058 z "},"Ụ":{"ha":1094,"x_min":107,"x_max":988,"o":"m 547 -17 q 223 99 339 -17 q 107 428 107 214 l 107 972 l 332 972 l 332 436 q 549 175 332 175 q 710 238 654 175 q 765 436 765 301 l 765 972 l 988 972 l 988 428 q 872 99 988 214 q 547 -17 756 -17 m 549 -292 q 480 -266 507 -292 q 453 -199 453 -240 q 480 -129 453 -157 q 549 -101 507 -101 q 617 -129 589 -101 q 644 -199 644 -157 q 617 -266 644 -240 q 549 -292 590 -292 z "},"Ù":{"ha":1094,"x_min":107,"x_max":988,"o":"m 547 -17 q 223 99 339 -17 q 107 428 107 214 l 107 972 l 332 972 l 332 436 q 549 175 332 175 q 710 238 654 175 q 765 436 765 301 l 765 972 l 988 972 l 988 428 q 872 99 988 214 q 547 -17 756 -17 m 254 1251 l 488 1251 l 675 1051 l 506 1051 l 254 1251 z "},"Ủ":{"ha":1094,"x_min":107,"x_max":988,"o":"m 547 -17 q 223 99 339 -17 q 107 428 107 214 l 107 972 l 332 972 l 332 436 q 549 175 332 175 q 710 238 654 175 q 765 436 765 301 l 765 972 l 988 972 l 988 428 q 872 99 988 214 q 547 -17 756 -17 m 522 1110 q 577 1149 561 1128 q 593 1194 593 1169 q 575 1237 593 1221 q 528 1253 557 1253 q 446 1226 486 1253 l 401 1314 q 551 1361 461 1361 q 672 1320 625 1361 q 718 1213 718 1279 q 590 1038 718 1096 l 522 1110 z "},"Ư":{"ha":1113,"x_min":107,"x_max":1138,"o":"m 547 -17 q 223 99 339 -17 q 107 428 107 214 l 107 972 l 332 972 l 332 436 q 549 175 332 175 q 710 238 654 175 q 765 436 765 301 l 765 972 l 988 972 l 988 428 q 872 99 988 214 q 547 -17 756 -17 m 872 972 l 910 972 q 970 997 947 972 q 993 1060 993 1021 q 965 1143 993 1108 l 1093 1190 q 1138 1051 1138 1132 q 1076 888 1138 947 q 904 828 1014 828 l 872 828 l 872 972 z "},"Ứ":{"ha":1113,"x_min":107,"x_max":1138,"o":"m 547 -17 q 223 99 339 -17 q 107 428 107 214 l 107 972 l 332 972 l 332 436 q 549 175 332 175 q 710 238 654 175 q 765 436 765 301 l 765 972 l 988 972 l 988 428 q 872 99 988 214 q 547 -17 756 -17 m 872 972 l 910 972 q 970 997 947 972 q 993 1060 993 1021 q 965 1143 993 1108 l 1093 1190 q 1138 1051 1138 1132 q 1076 888 1138 947 q 904 828 1014 828 l 872 828 l 872 972 m 610 1251 l 843 1251 l 592 1051 l 422 1051 l 610 1251 z "},"Ự":{"ha":1113,"x_min":107,"x_max":1138,"o":"m 547 -17 q 223 99 339 -17 q 107 428 107 214 l 107 972 l 332 972 l 332 436 q 549 175 332 175 q 710 238 654 175 q 765 436 765 301 l 765 972 l 988 972 l 988 428 q 872 99 988 214 q 547 -17 756 -17 m 872 972 l 910 972 q 970 997 947 972 q 993 1060 993 1021 q 965 1143 993 1108 l 1093 1190 q 1138 1051 1138 1132 q 1076 888 1138 947 q 904 828 1014 828 l 872 828 l 872 972 m 549 -292 q 480 -266 507 -292 q 453 -199 453 -240 q 480 -129 453 -157 q 549 -101 507 -101 q 617 -129 589 -101 q 644 -199 644 -157 q 617 -266 644 -240 q 549 -292 590 -292 z "},"Ừ":{"ha":1113,"x_min":107,"x_max":1138,"o":"m 547 -17 q 223 99 339 -17 q 107 428 107 214 l 107 972 l 332 972 l 332 436 q 549 175 332 175 q 710 238 654 175 q 765 436 765 301 l 765 972 l 988 972 l 988 428 q 872 99 988 214 q 547 -17 756 -17 m 872 972 l 910 972 q 970 997 947 972 q 993 1060 993 1021 q 965 1143 993 1108 l 1093 1190 q 1138 1051 1138 1132 q 1076 888 1138 947 q 904 828 1014 828 l 872 828 l 872 972 m 254 1251 l 488 1251 l 675 1051 l 506 1051 l 254 1251 z "},"Ử":{"ha":1113,"x_min":107,"x_max":1138,"o":"m 547 -17 q 223 99 339 -17 q 107 428 107 214 l 107 972 l 332 972 l 332 436 q 549 175 332 175 q 710 238 654 175 q 765 436 765 301 l 765 972 l 988 972 l 988 428 q 872 99 988 214 q 547 -17 756 -17 m 872 972 l 910 972 q 970 997 947 972 q 993 1060 993 1021 q 965 1143 993 1108 l 1093 1190 q 1138 1051 1138 1132 q 1076 888 1138 947 q 904 828 1014 828 l 872 828 l 872 972 m 522 1110 q 577 1149 561 1128 q 593 1194 593 1169 q 575 1237 593 1221 q 528 1253 557 1253 q 446 1226 486 1253 l 401 1314 q 551 1361 461 1361 q 672 1320 625 1361 q 718 1213 718 1279 q 590 1038 718 1096 l 522 1110 z "},"Ữ":{"ha":1113,"x_min":107,"x_max":1138,"o":"m 547 -17 q 223 99 339 -17 q 107 428 107 214 l 107 972 l 332 972 l 332 436 q 549 175 332 175 q 710 238 654 175 q 765 436 765 301 l 765 972 l 988 972 l 988 428 q 872 99 988 214 q 547 -17 756 -17 m 872 972 l 910 972 q 970 997 947 972 q 993 1060 993 1021 q 965 1143 993 1108 l 1093 1190 q 1138 1051 1138 1132 q 1076 888 1138 947 q 904 828 1014 828 l 872 828 l 872 972 m 653 1047 q 587 1062 615 1047 q 524 1101 558 1076 q 487 1126 501 1118 q 458 1135 472 1135 q 411 1115 429 1135 q 392 1057 393 1094 l 282 1057 q 328 1205 285 1150 q 444 1260 372 1260 q 509 1245 481 1260 q 574 1204 538 1231 q 610 1179 596 1188 q 639 1171 625 1171 q 685 1191 667 1171 q 706 1246 704 1211 l 815 1246 q 769 1101 813 1156 q 653 1047 725 1047 z "},"Ű":{"ha":1094,"x_min":107,"x_max":988,"o":"m 547 -17 q 223 99 339 -17 q 107 428 107 214 l 107 972 l 332 972 l 332 436 q 549 175 332 175 q 710 238 654 175 q 765 436 765 301 l 765 972 l 988 972 l 988 428 q 872 99 988 214 q 547 -17 756 -17 m 429 1251 l 632 1251 l 488 1051 l 329 1051 l 429 1251 m 710 1251 l 913 1251 l 768 1051 l 610 1051 l 710 1251 z "},"Ȗ":{"ha":1094,"x_min":107,"x_max":988,"o":"m 547 -17 q 223 99 339 -17 q 107 428 107 214 l 107 972 l 332 972 l 332 436 q 549 175 332 175 q 710 238 654 175 q 765 436 765 301 l 765 972 l 988 972 l 988 428 q 872 99 988 214 q 547 -17 756 -17 m 293 1051 q 368 1206 297 1149 q 549 1263 439 1263 q 729 1206 658 1263 q 804 1051 800 1149 l 668 1051 q 633 1123 667 1096 q 549 1150 599 1150 q 465 1123 499 1150 q 429 1051 431 1096 l 293 1051 z "},"Ū":{"ha":1094,"x_min":107,"x_max":988,"o":"m 547 -17 q 223 99 339 -17 q 107 428 107 214 l 107 972 l 332 972 l 332 436 q 549 175 332 175 q 710 238 654 175 q 765 436 765 301 l 765 972 l 988 972 l 988 428 q 872 99 988 214 q 547 -17 756 -17 m 292 1213 l 806 1213 l 806 1090 l 292 1090 l 292 1213 z "},"Ṻ":{"ha":1094,"x_min":107,"x_max":988,"o":"m 547 -17 q 223 99 339 -17 q 107 428 107 214 l 107 972 l 332 972 l 332 436 q 549 175 332 175 q 710 238 654 175 q 765 436 765 301 l 765 972 l 988 972 l 988 428 q 872 99 988 214 q 547 -17 756 -17 m 292 1190 l 806 1190 l 806 1075 l 292 1075 l 292 1190 m 413 1283 q 347 1309 374 1283 q 321 1375 321 1335 q 347 1440 321 1414 q 413 1467 374 1467 q 479 1440 453 1467 q 506 1375 506 1414 q 479 1309 506 1335 q 413 1283 453 1283 m 685 1283 q 619 1309 646 1283 q 593 1375 593 1335 q 620 1440 593 1414 q 685 1467 647 1467 q 750 1440 724 1467 q 776 1375 776 1414 q 750 1309 776 1335 q 685 1283 724 1283 z "},"Ų":{"ha":1094,"x_min":107,"x_max":988,"o":"m 988 972 l 988 428 q 919 160 988 263 q 728 11 851 57 q 576 -69 619 -29 q 533 -149 533 -108 q 554 -195 533 -178 q 613 -212 575 -212 q 696 -192 661 -212 l 728 -290 q 664 -313 701 -304 q 588 -322 626 -322 q 447 -280 499 -322 q 396 -167 396 -237 q 478 -12 396 -81 q 204 119 301 6 q 107 428 107 233 l 107 972 l 332 972 l 332 436 q 549 175 332 175 q 710 238 654 175 q 765 436 765 301 l 765 972 l 988 972 z "},"Ů":{"ha":1094,"x_min":107,"x_max":988,"o":"m 547 -17 q 223 99 339 -17 q 107 428 107 214 l 107 972 l 332 972 l 332 436 q 549 175 332 175 q 710 238 654 175 q 765 436 765 301 l 765 972 l 988 972 l 988 428 q 872 99 988 214 q 547 -17 756 -17 m 547 1047 q 426 1096 475 1047 q 376 1215 376 1144 q 426 1335 376 1286 q 547 1383 475 1383 q 671 1335 621 1383 q 721 1215 721 1286 q 671 1096 721 1144 q 547 1047 621 1047 m 547 1131 q 608 1155 583 1131 q 632 1215 632 1179 q 608 1276 632 1251 q 547 1300 583 1300 q 488 1276 513 1300 q 464 1215 464 1251 q 488 1155 464 1179 q 547 1131 511 1131 z "},"Ũ":{"ha":1094,"x_min":107,"x_max":988,"o":"m 547 -17 q 223 99 339 -17 q 107 428 107 214 l 107 972 l 332 972 l 332 436 q 549 175 332 175 q 710 238 654 175 q 765 436 765 301 l 765 972 l 988 972 l 988 428 q 872 99 988 214 q 547 -17 756 -17 m 653 1047 q 587 1062 615 1047 q 524 1101 558 1076 q 487 1126 501 1118 q 458 1135 472 1135 q 411 1115 429 1135 q 392 1057 393 1094 l 282 1057 q 328 1205 285 1150 q 444 1260 372 1260 q 509 1245 481 1260 q 574 1204 538 1231 q 610 1179 596 1188 q 639 1171 625 1171 q 685 1191 667 1171 q 706 1246 704 1211 l 815 1246 q 769 1101 813 1156 q 653 1047 725 1047 z "},"Ṹ":{"ha":1094,"x_min":107,"x_max":988,"o":"m 547 -17 q 223 99 339 -17 q 107 428 107 214 l 107 972 l 332 972 l 332 436 q 549 175 332 175 q 710 238 654 175 q 765 436 765 301 l 765 972 l 988 972 l 988 428 q 872 99 988 214 q 547 -17 756 -17 m 651 1049 q 585 1060 614 1049 q 521 1094 556 1072 q 488 1113 504 1104 q 460 1121 472 1121 q 417 1104 432 1121 q 399 1057 401 1088 l 288 1057 q 331 1185 289 1140 q 449 1231 374 1231 q 510 1219 485 1231 q 575 1186 536 1208 q 612 1165 597 1172 q 640 1158 626 1158 q 683 1176 668 1158 q 701 1221 699 1193 l 810 1221 q 767 1094 808 1140 q 651 1049 725 1049 m 583 1443 l 804 1443 l 586 1275 l 429 1275 l 583 1443 z "},"V":{"ha":1036,"x_min":-12,"x_max":1050,"o":"m 1050 972 l 629 0 l 407 0 l -12 972 l 231 972 l 526 278 l 826 972 l 1050 972 z "},"W":{"ha":1615,"x_min":31,"x_max":1585,"o":"m 1585 972 l 1267 0 l 1025 0 l 811 658 l 590 0 l 350 0 l 31 972 l 264 972 l 483 289 l 713 972 l 921 972 l 1143 283 l 1369 972 l 1585 972 z "},"Ẃ":{"ha":1615,"x_min":31,"x_max":1585,"o":"m 1585 972 l 1267 0 l 1025 0 l 811 658 l 590 0 l 350 0 l 31 972 l 264 972 l 483 289 l 713 972 l 921 972 l 1143 283 l 1369 972 l 1585 972 m 869 1251 l 1103 1251 l 851 1051 l 682 1051 l 869 1251 z "},"Ŵ":{"ha":1615,"x_min":31,"x_max":1585,"o":"m 1585 972 l 1267 0 l 1025 0 l 811 658 l 590 0 l 350 0 l 31 972 l 264 972 l 483 289 l 713 972 l 921 972 l 1143 283 l 1369 972 l 1585 972 m 929 1051 l 808 1157 l 688 1051 l 529 1051 l 713 1251 l 904 1251 l 1088 1051 l 929 1051 z "},"Ẅ":{"ha":1615,"x_min":31,"x_max":1585,"o":"m 1585 972 l 1267 0 l 1025 0 l 811 658 l 590 0 l 350 0 l 31 972 l 264 972 l 483 289 l 713 972 l 921 972 l 1143 283 l 1369 972 l 1585 972 m 668 1058 q 599 1085 626 1058 q 571 1154 571 1113 q 599 1223 571 1196 q 668 1250 626 1250 q 737 1223 710 1250 q 764 1154 764 1196 q 737 1085 764 1113 q 668 1058 710 1058 m 949 1058 q 880 1085 907 1058 q 853 1154 853 1113 q 880 1223 853 1196 q 949 1250 907 1250 q 1018 1223 990 1250 q 1046 1154 1046 1196 q 1018 1085 1046 1113 q 949 1058 990 1058 z "},"Ẁ":{"ha":1615,"x_min":31,"x_max":1585,"o":"m 1585 972 l 1267 0 l 1025 0 l 811 658 l 590 0 l 350 0 l 31 972 l 264 972 l 483 289 l 713 972 l 921 972 l 1143 283 l 1369 972 l 1585 972 m 514 1251 l 747 1251 l 935 1051 l 765 1051 l 514 1251 z "},"X":{"ha":992,"x_min":4,"x_max":988,"o":"m 728 0 l 493 338 l 263 0 l 4 0 l 364 494 l 22 972 l 278 972 l 501 657 l 721 972 l 964 972 l 625 503 l 988 0 l 728 0 z "},"Y":{"ha":939,"x_min":-19,"x_max":960,"o":"m 582 344 l 582 0 l 357 0 l 357 347 l -19 972 l 219 972 l 479 540 l 739 972 l 960 972 l 582 344 z "},"Ý":{"ha":939,"x_min":-19,"x_max":960,"o":"m 582 344 l 582 0 l 357 0 l 357 347 l -19 972 l 219 972 l 479 540 l 739 972 l 960 972 l 582 344 m 531 1251 l 764 1251 l 513 1051 l 343 1051 l 531 1251 z "},"Ŷ":{"ha":939,"x_min":-19,"x_max":960,"o":"m 582 344 l 582 0 l 357 0 l 357 347 l -19 972 l 219 972 l 479 540 l 739 972 l 960 972 l 582 344 m 590 1051 l 469 1157 l 349 1051 l 190 1051 l 374 1251 l 565 1251 l 749 1051 l 590 1051 z "},"Ÿ":{"ha":939,"x_min":-19,"x_max":960,"o":"m 582 344 l 582 0 l 357 0 l 357 347 l -19 972 l 219 972 l 479 540 l 739 972 l 960 972 l 582 344 m 329 1058 q 260 1085 288 1058 q 232 1154 232 1113 q 260 1223 232 1196 q 329 1250 288 1250 q 398 1223 371 1250 q 425 1154 425 1196 q 398 1085 425 1113 q 329 1058 371 1058 m 610 1058 q 541 1085 568 1058 q 514 1154 514 1113 q 541 1223 514 1196 q 610 1250 568 1250 q 679 1223 651 1250 q 707 1154 707 1196 q 679 1085 707 1113 q 610 1058 651 1058 z "},"Ẏ":{"ha":939,"x_min":-19,"x_max":960,"o":"m 582 344 l 582 0 l 357 0 l 357 347 l -19 972 l 219 972 l 479 540 l 739 972 l 960 972 l 582 344 m 469 1058 q 385 1092 418 1058 q 353 1176 353 1125 q 385 1260 353 1226 q 469 1293 418 1293 q 553 1260 521 1293 q 586 1176 586 1226 q 553 1092 586 1125 q 469 1058 521 1058 z "},"Ỵ":{"ha":939,"x_min":-19,"x_max":960,"o":"m 582 344 l 582 0 l 357 0 l 357 347 l -19 972 l 219 972 l 479 540 l 739 972 l 960 972 l 582 344 m 469 -292 q 401 -266 428 -292 q 374 -199 374 -240 q 401 -129 374 -157 q 469 -101 428 -101 q 538 -129 510 -101 q 565 -199 565 -157 q 538 -266 565 -240 q 469 -292 511 -292 z "},"Ỳ":{"ha":939,"x_min":-19,"x_max":960,"o":"m 582 344 l 582 0 l 357 0 l 357 347 l -19 972 l 219 972 l 479 540 l 739 972 l 960 972 l 582 344 m 175 1251 l 408 1251 l 596 1051 l 426 1051 l 175 1251 z "},"Ỷ":{"ha":939,"x_min":-19,"x_max":960,"o":"m 582 344 l 582 0 l 357 0 l 357 347 l -19 972 l 219 972 l 479 540 l 739 972 l 960 972 l 582 344 m 443 1110 q 498 1149 482 1128 q 514 1194 514 1169 q 496 1237 514 1221 q 449 1253 478 1253 q 367 1226 407 1253 l 322 1314 q 472 1361 382 1361 q 592 1320 546 1361 q 639 1213 639 1279 q 511 1038 639 1096 l 443 1110 z "},"Ȳ":{"ha":939,"x_min":-19,"x_max":960,"o":"m 582 344 l 582 0 l 357 0 l 357 347 l -19 972 l 219 972 l 479 540 l 739 972 l 960 972 l 582 344 m 213 1213 l 726 1213 l 726 1090 l 213 1090 l 213 1213 z "},"Ỹ":{"ha":939,"x_min":-19,"x_max":960,"o":"m 582 344 l 582 0 l 357 0 l 357 347 l -19 972 l 219 972 l 479 540 l 739 972 l 960 972 l 582 344 m 574 1047 q 508 1062 536 1047 q 444 1101 479 1076 q 408 1126 422 1118 q 379 1135 393 1135 q 332 1115 350 1135 q 313 1057 314 1094 l 203 1057 q 249 1205 206 1150 q 365 1260 293 1260 q 430 1245 401 1260 q 494 1204 458 1231 q 531 1179 517 1188 q 560 1171 546 1171 q 606 1191 588 1171 q 626 1246 625 1211 l 736 1246 q 690 1101 733 1156 q 574 1047 646 1047 z "},"Z":{"ha":932,"x_min":53,"x_max":903,"o":"m 903 183 l 903 0 l 53 0 l 53 146 l 586 789 l 64 789 l 64 972 l 882 972 l 882 826 l 350 183 l 903 183 z "},"Ź":{"ha":932,"x_min":53,"x_max":903,"o":"m 903 183 l 903 0 l 53 0 l 53 146 l 586 789 l 64 789 l 64 972 l 882 972 l 882 826 l 350 183 l 903 183 m 539 1251 l 772 1251 l 521 1051 l 351 1051 l 539 1251 z "},"Ž":{"ha":932,"x_min":53,"x_max":903,"o":"m 903 183 l 903 0 l 53 0 l 53 146 l 586 789 l 64 789 l 64 972 l 882 972 l 882 826 l 350 183 l 903 183 m 757 1251 l 574 1051 l 382 1051 l 199 1251 l 357 1251 l 478 1147 l 599 1251 l 757 1251 z "},"Ż":{"ha":932,"x_min":53,"x_max":903,"o":"m 903 183 l 903 0 l 53 0 l 53 146 l 586 789 l 64 789 l 64 972 l 882 972 l 882 826 l 350 183 l 903 183 m 478 1058 q 394 1092 426 1058 q 361 1176 361 1125 q 394 1260 361 1226 q 478 1293 426 1293 q 562 1260 529 1293 q 594 1176 594 1226 q 562 1092 594 1125 q 478 1058 529 1058 z "},"Ẓ":{"ha":932,"x_min":53,"x_max":903,"o":"m 903 183 l 903 0 l 53 0 l 53 146 l 586 789 l 64 789 l 64 972 l 882 972 l 882 826 l 350 183 l 903 183 m 482 -292 q 413 -266 440 -292 q 386 -199 386 -240 q 413 -129 386 -157 q 482 -101 440 -101 q 550 -129 522 -101 q 578 -199 578 -157 q 551 -266 578 -240 q 482 -292 524 -292 z "},"a":{"ha":857,"x_min":51,"x_max":761,"o":"m 401 758 q 668 676 575 758 q 761 426 761 593 l 761 0 l 558 0 l 558 93 q 331 -11 497 -11 q 181 18 244 -11 q 85 99 118 47 q 51 215 51 150 q 130 379 51 319 q 372 439 208 439 l 544 439 q 501 548 544 510 q 372 586 458 586 q 255 567 313 586 q 157 517 197 549 l 79 668 q 226 735 140 711 q 401 758 311 758 m 385 135 q 483 160 440 135 q 544 236 526 186 l 544 313 l 396 313 q 263 225 263 313 q 295 159 263 183 q 385 135 328 135 z "},"á":{"ha":857,"x_min":51,"x_max":761,"o":"m 401 758 q 668 676 575 758 q 761 426 761 593 l 761 0 l 558 0 l 558 93 q 331 -11 497 -11 q 181 18 244 -11 q 85 99 118 47 q 51 215 51 150 q 130 379 51 319 q 372 439 208 439 l 544 439 q 501 548 544 510 q 372 586 458 586 q 255 567 313 586 q 157 517 197 549 l 79 668 q 226 735 140 711 q 401 758 311 758 m 385 135 q 483 160 440 135 q 544 236 526 186 l 544 313 l 396 313 q 263 225 263 313 q 295 159 263 183 q 385 135 328 135 m 485 1043 l 718 1043 l 467 843 l 297 843 l 485 1043 z "},"ă":{"ha":857,"x_min":51,"x_max":761,"o":"m 401 758 q 668 676 575 758 q 761 426 761 593 l 761 0 l 558 0 l 558 93 q 331 -11 497 -11 q 181 18 244 -11 q 85 99 118 47 q 51 215 51 150 q 130 379 51 319 q 372 439 208 439 l 544 439 q 501 548 544 510 q 372 586 458 586 q 255 567 313 586 q 157 517 197 549 l 79 668 q 226 735 140 711 q 401 758 311 758 m 385 135 q 483 160 440 135 q 544 236 526 186 l 544 313 l 396 313 q 263 225 263 313 q 295 159 263 183 q 385 135 328 135 m 424 832 q 243 889 314 832 q 168 1043 172 946 l 304 1043 q 340 972 306 999 q 424 944 374 944 q 508 972 474 944 q 543 1043 542 999 l 679 1043 q 604 889 675 946 q 424 832 533 832 z "},"ắ":{"ha":857,"x_min":51,"x_max":761,"o":"m 401 758 q 668 676 575 758 q 761 426 761 593 l 761 0 l 558 0 l 558 93 q 331 -11 497 -11 q 181 18 244 -11 q 85 99 118 47 q 51 215 51 150 q 130 379 51 319 q 372 439 208 439 l 544 439 q 501 548 544 510 q 372 586 458 586 q 255 567 313 586 q 157 517 197 549 l 79 668 q 226 735 140 711 q 401 758 311 758 m 385 135 q 483 160 440 135 q 544 236 526 186 l 544 313 l 396 313 q 263 225 263 313 q 295 159 263 183 q 385 135 328 135 m 424 832 q 245 878 315 832 q 168 1001 175 924 l 299 1001 q 338 954 303 972 q 424 936 372 936 q 510 954 475 936 q 549 1001 544 972 l 679 1001 q 602 878 672 924 q 424 832 532 832 m 458 1211 l 679 1211 l 461 1043 l 304 1043 l 458 1211 z "},"ặ":{"ha":857,"x_min":51,"x_max":761,"o":"m 401 758 q 668 676 575 758 q 761 426 761 593 l 761 0 l 558 0 l 558 93 q 331 -11 497 -11 q 181 18 244 -11 q 85 99 118 47 q 51 215 51 150 q 130 379 51 319 q 372 439 208 439 l 544 439 q 501 548 544 510 q 372 586 458 586 q 255 567 313 586 q 157 517 197 549 l 79 668 q 226 735 140 711 q 401 758 311 758 m 385 135 q 483 160 440 135 q 544 236 526 186 l 544 313 l 396 313 q 263 225 263 313 q 295 159 263 183 q 385 135 328 135 m 407 -292 q 338 -266 365 -292 q 311 -199 311 -240 q 338 -129 311 -157 q 407 -101 365 -101 q 475 -129 447 -101 q 503 -199 503 -157 q 476 -266 503 -240 q 407 -292 449 -292 m 424 832 q 243 889 314 832 q 168 1043 172 946 l 304 1043 q 340 972 306 999 q 424 944 374 944 q 508 972 474 944 q 543 1043 542 999 l 679 1043 q 604 889 675 946 q 424 832 533 832 z "},"ằ":{"ha":857,"x_min":51,"x_max":761,"o":"m 401 758 q 668 676 575 758 q 761 426 761 593 l 761 0 l 558 0 l 558 93 q 331 -11 497 -11 q 181 18 244 -11 q 85 99 118 47 q 51 215 51 150 q 130 379 51 319 q 372 439 208 439 l 544 439 q 501 548 544 510 q 372 586 458 586 q 255 567 313 586 q 157 517 197 549 l 79 668 q 226 735 140 711 q 401 758 311 758 m 385 135 q 483 160 440 135 q 544 236 526 186 l 544 313 l 396 313 q 263 225 263 313 q 295 159 263 183 q 385 135 328 135 m 424 832 q 245 878 315 832 q 168 1001 175 924 l 299 1001 q 338 954 303 972 q 424 936 372 936 q 510 954 475 936 q 549 1001 544 972 l 679 1001 q 602 878 672 924 q 424 832 532 832 m 169 1211 l 390 1211 l 543 1043 l 388 1043 l 169 1211 z "},"ẳ":{"ha":857,"x_min":51,"x_max":761,"o":"m 401 758 q 668 676 575 758 q 761 426 761 593 l 761 0 l 558 0 l 558 93 q 331 -11 497 -11 q 181 18 244 -11 q 85 99 118 47 q 51 215 51 150 q 130 379 51 319 q 372 439 208 439 l 544 439 q 501 548 544 510 q 372 586 458 586 q 255 567 313 586 q 157 517 197 549 l 79 668 q 226 735 140 711 q 401 758 311 758 m 385 135 q 483 160 440 135 q 544 236 526 186 l 544 313 l 396 313 q 263 225 263 313 q 295 159 263 183 q 385 135 328 135 m 424 832 q 245 878 315 832 q 168 1001 175 924 l 299 1001 q 338 954 303 972 q 424 936 372 936 q 510 954 475 936 q 549 1001 544 972 l 679 1001 q 602 878 672 924 q 424 832 532 832 m 406 1056 q 457 1114 457 1081 q 444 1143 457 1132 q 410 1154 431 1154 q 349 1138 381 1154 l 313 1204 q 428 1235 360 1235 q 521 1205 486 1235 q 556 1125 556 1175 q 528 1053 556 1085 q 458 1004 501 1021 l 406 1056 z "},"ẵ":{"ha":857,"x_min":51,"x_max":761,"o":"m 401 758 q 668 676 575 758 q 761 426 761 593 l 761 0 l 558 0 l 558 93 q 331 -11 497 -11 q 181 18 244 -11 q 85 99 118 47 q 51 215 51 150 q 130 379 51 319 q 372 439 208 439 l 544 439 q 501 548 544 510 q 372 586 458 586 q 255 567 313 586 q 157 517 197 549 l 79 668 q 226 735 140 711 q 401 758 311 758 m 385 135 q 483 160 440 135 q 544 236 526 186 l 544 313 l 396 313 q 263 225 263 313 q 295 159 263 183 q 385 135 328 135 m 424 832 q 245 878 315 832 q 168 1001 175 924 l 299 1001 q 338 954 303 972 q 424 936 372 936 q 510 954 475 936 q 549 1001 544 972 l 679 1001 q 602 878 672 924 q 424 832 532 832 m 526 1040 q 460 1052 489 1040 q 396 1086 431 1064 q 363 1104 379 1096 q 335 1113 347 1113 q 292 1096 307 1113 q 274 1049 276 1079 l 163 1049 q 206 1177 164 1132 q 324 1222 249 1222 q 385 1211 360 1222 q 450 1178 411 1200 q 487 1157 472 1164 q 515 1150 501 1150 q 558 1167 543 1150 q 576 1213 574 1185 l 685 1213 q 642 1086 683 1132 q 526 1040 600 1040 z "},"ǎ":{"ha":857,"x_min":51,"x_max":761,"o":"m 401 758 q 668 676 575 758 q 761 426 761 593 l 761 0 l 558 0 l 558 93 q 331 -11 497 -11 q 181 18 244 -11 q 85 99 118 47 q 51 215 51 150 q 130 379 51 319 q 372 439 208 439 l 544 439 q 501 548 544 510 q 372 586 458 586 q 255 567 313 586 q 157 517 197 549 l 79 668 q 226 735 140 711 q 401 758 311 758 m 385 135 q 483 160 440 135 q 544 236 526 186 l 544 313 l 396 313 q 263 225 263 313 q 295 159 263 183 q 385 135 328 135 m 703 1043 l 519 843 l 328 843 l 144 1043 l 303 1043 l 424 939 l 544 1043 l 703 1043 z "},"â":{"ha":857,"x_min":51,"x_max":761,"o":"m 401 758 q 668 676 575 758 q 761 426 761 593 l 761 0 l 558 0 l 558 93 q 331 -11 497 -11 q 181 18 244 -11 q 85 99 118 47 q 51 215 51 150 q 130 379 51 319 q 372 439 208 439 l 544 439 q 501 548 544 510 q 372 586 458 586 q 255 567 313 586 q 157 517 197 549 l 79 668 q 226 735 140 711 q 401 758 311 758 m 385 135 q 483 160 440 135 q 544 236 526 186 l 544 313 l 396 313 q 263 225 263 313 q 295 159 263 183 q 385 135 328 135 m 544 843 l 424 949 l 303 843 l 144 843 l 328 1043 l 519 1043 l 703 843 l 544 843 z "},"ấ":{"ha":857,"x_min":51,"x_max":965,"o":"m 401 758 q 668 676 575 758 q 761 426 761 593 l 761 0 l 558 0 l 558 93 q 331 -11 497 -11 q 181 18 244 -11 q 85 99 118 47 q 51 215 51 150 q 130 379 51 319 q 372 439 208 439 l 544 439 q 501 548 544 510 q 372 586 458 586 q 255 567 313 586 q 157 517 197 549 l 79 668 q 226 735 140 711 q 401 758 311 758 m 385 135 q 483 160 440 135 q 544 236 526 186 l 544 313 l 396 313 q 263 225 263 313 q 295 159 263 183 q 385 135 328 135 m 543 843 l 424 922 l 304 843 l 144 843 l 329 1001 l 518 1001 l 703 843 l 543 843 m 744 1144 l 965 1144 l 747 976 l 590 976 l 744 1144 z "},"ậ":{"ha":857,"x_min":51,"x_max":761,"o":"m 401 758 q 668 676 575 758 q 761 426 761 593 l 761 0 l 558 0 l 558 93 q 331 -11 497 -11 q 181 18 244 -11 q 85 99 118 47 q 51 215 51 150 q 130 379 51 319 q 372 439 208 439 l 544 439 q 501 548 544 510 q 372 586 458 586 q 255 567 313 586 q 157 517 197 549 l 79 668 q 226 735 140 711 q 401 758 311 758 m 385 135 q 483 160 440 135 q 544 236 526 186 l 544 313 l 396 313 q 263 225 263 313 q 295 159 263 183 q 385 135 328 135 m 407 -292 q 338 -266 365 -292 q 311 -199 311 -240 q 338 -129 311 -157 q 407 -101 365 -101 q 475 -129 447 -101 q 503 -199 503 -157 q 476 -266 503 -240 q 407 -292 449 -292 m 544 843 l 424 949 l 303 843 l 144 843 l 328 1043 l 519 1043 l 703 843 l 544 843 z "},"ầ":{"ha":857,"x_min":51,"x_max":829,"o":"m 401 758 q 668 676 575 758 q 761 426 761 593 l 761 0 l 558 0 l 558 93 q 331 -11 497 -11 q 181 18 244 -11 q 85 99 118 47 q 51 215 51 150 q 130 379 51 319 q 372 439 208 439 l 544 439 q 501 548 544 510 q 372 586 458 586 q 255 567 313 586 q 157 517 197 549 l 79 668 q 226 735 140 711 q 401 758 311 758 m 385 135 q 483 160 440 135 q 544 236 526 186 l 544 313 l 396 313 q 263 225 263 313 q 295 159 263 183 q 385 135 328 135 m 543 843 l 424 922 l 304 843 l 144 843 l 329 1001 l 518 1001 l 703 843 l 543 843 m 456 1144 l 676 1144 l 829 976 l 674 976 l 456 1144 z "},"ẩ":{"ha":857,"x_min":51,"x_max":768,"o":"m 401 758 q 668 676 575 758 q 761 426 761 593 l 761 0 l 558 0 l 558 93 q 331 -11 497 -11 q 181 18 244 -11 q 85 99 118 47 q 51 215 51 150 q 130 379 51 319 q 372 439 208 439 l 544 439 q 501 548 544 510 q 372 586 458 586 q 255 567 313 586 q 157 517 197 549 l 79 668 q 226 735 140 711 q 401 758 311 758 m 385 135 q 483 160 440 135 q 544 236 526 186 l 544 313 l 396 313 q 263 225 263 313 q 295 159 263 183 q 385 135 328 135 m 543 843 l 424 922 l 304 843 l 144 843 l 329 1001 l 518 1001 l 703 843 l 543 843 m 618 1001 q 669 1060 669 1026 q 656 1089 669 1078 q 622 1100 643 1100 q 561 1083 593 1100 l 525 1150 q 640 1181 572 1181 q 733 1151 699 1181 q 768 1071 768 1121 q 741 999 768 1031 q 671 950 714 967 l 618 1001 z "},"ẫ":{"ha":857,"x_min":51,"x_max":761,"o":"m 401 758 q 668 676 575 758 q 761 426 761 593 l 761 0 l 558 0 l 558 93 q 331 -11 497 -11 q 181 18 244 -11 q 85 99 118 47 q 51 215 51 150 q 130 379 51 319 q 372 439 208 439 l 544 439 q 501 548 544 510 q 372 586 458 586 q 255 567 313 586 q 157 517 197 549 l 79 668 q 226 735 140 711 q 401 758 311 758 m 385 135 q 483 160 440 135 q 544 236 526 186 l 544 313 l 396 313 q 263 225 263 313 q 295 159 263 183 q 385 135 328 135 m 543 843 l 424 922 l 304 843 l 144 843 l 329 1001 l 518 1001 l 703 843 l 543 843 m 526 1050 q 460 1062 489 1050 q 396 1096 431 1074 q 363 1114 379 1106 q 335 1122 347 1122 q 292 1106 307 1122 q 274 1058 276 1089 l 163 1058 q 206 1187 164 1142 q 324 1232 249 1232 q 385 1221 360 1232 q 450 1188 411 1210 q 487 1167 472 1174 q 515 1160 501 1160 q 558 1177 543 1160 q 576 1222 574 1194 l 685 1222 q 642 1096 683 1142 q 526 1050 600 1050 z "},"ȁ":{"ha":857,"x_min":51,"x_max":761,"o":"m 401 758 q 668 676 575 758 q 761 426 761 593 l 761 0 l 558 0 l 558 93 q 331 -11 497 -11 q 181 18 244 -11 q 85 99 118 47 q 51 215 51 150 q 130 379 51 319 q 372 439 208 439 l 544 439 q 501 548 544 510 q 372 586 458 586 q 255 567 313 586 q 157 517 197 549 l 79 668 q 226 735 140 711 q 401 758 311 758 m 385 135 q 483 160 440 135 q 544 236 526 186 l 544 313 l 396 313 q 263 225 263 313 q 295 159 263 183 q 385 135 328 135 m 60 1043 l 263 1043 l 363 843 l 204 843 l 60 1043 m 340 1043 l 543 1043 l 643 843 l 485 843 l 340 1043 z "},"ä":{"ha":857,"x_min":51,"x_max":761,"o":"m 401 758 q 668 676 575 758 q 761 426 761 593 l 761 0 l 558 0 l 558 93 q 331 -11 497 -11 q 181 18 244 -11 q 85 99 118 47 q 51 215 51 150 q 130 379 51 319 q 372 439 208 439 l 544 439 q 501 548 544 510 q 372 586 458 586 q 255 567 313 586 q 157 517 197 549 l 79 668 q 226 735 140 711 q 401 758 311 758 m 385 135 q 483 160 440 135 q 544 236 526 186 l 544 313 l 396 313 q 263 225 263 313 q 295 159 263 183 q 385 135 328 135 m 283 850 q 214 877 242 850 q 186 946 186 904 q 214 1015 186 988 q 283 1042 242 1042 q 352 1015 325 1042 q 379 946 379 988 q 352 877 379 904 q 283 850 325 850 m 564 850 q 495 877 522 850 q 468 946 468 904 q 495 1015 468 988 q 564 1042 522 1042 q 633 1015 606 1042 q 661 946 661 988 q 633 877 661 904 q 564 850 606 850 z "},"ạ":{"ha":857,"x_min":51,"x_max":761,"o":"m 401 758 q 668 676 575 758 q 761 426 761 593 l 761 0 l 558 0 l 558 93 q 331 -11 497 -11 q 181 18 244 -11 q 85 99 118 47 q 51 215 51 150 q 130 379 51 319 q 372 439 208 439 l 544 439 q 501 548 544 510 q 372 586 458 586 q 255 567 313 586 q 157 517 197 549 l 79 668 q 226 735 140 711 q 401 758 311 758 m 385 135 q 483 160 440 135 q 544 236 526 186 l 544 313 l 396 313 q 263 225 263 313 q 295 159 263 183 q 385 135 328 135 m 407 -292 q 338 -266 365 -292 q 311 -199 311 -240 q 338 -129 311 -157 q 407 -101 365 -101 q 475 -129 447 -101 q 503 -199 503 -157 q 476 -266 503 -240 q 407 -292 449 -292 z "},"à":{"ha":857,"x_min":51,"x_max":761,"o":"m 401 758 q 668 676 575 758 q 761 426 761 593 l 761 0 l 558 0 l 558 93 q 331 -11 497 -11 q 181 18 244 -11 q 85 99 118 47 q 51 215 51 150 q 130 379 51 319 q 372 439 208 439 l 544 439 q 501 548 544 510 q 372 586 458 586 q 255 567 313 586 q 157 517 197 549 l 79 668 q 226 735 140 711 q 401 758 311 758 m 385 135 q 483 160 440 135 q 544 236 526 186 l 544 313 l 396 313 q 263 225 263 313 q 295 159 263 183 q 385 135 328 135 m 129 1043 l 363 1043 l 550 843 l 381 843 l 129 1043 z "},"ả":{"ha":857,"x_min":51,"x_max":761,"o":"m 401 758 q 668 676 575 758 q 761 426 761 593 l 761 0 l 558 0 l 558 93 q 331 -11 497 -11 q 181 18 244 -11 q 85 99 118 47 q 51 215 51 150 q 130 379 51 319 q 372 439 208 439 l 544 439 q 501 548 544 510 q 372 586 458 586 q 255 567 313 586 q 157 517 197 549 l 79 668 q 226 735 140 711 q 401 758 311 758 m 385 135 q 483 160 440 135 q 544 236 526 186 l 544 313 l 396 313 q 263 225 263 313 q 295 159 263 183 q 385 135 328 135 m 397 901 q 452 940 436 919 q 468 986 468 961 q 450 1028 468 1013 q 403 1044 432 1044 q 321 1018 361 1044 l 276 1106 q 426 1153 336 1153 q 547 1112 500 1153 q 593 1004 593 1071 q 465 829 593 888 l 397 901 z "},"ȃ":{"ha":857,"x_min":51,"x_max":761,"o":"m 401 758 q 668 676 575 758 q 761 426 761 593 l 761 0 l 558 0 l 558 93 q 331 -11 497 -11 q 181 18 244 -11 q 85 99 118 47 q 51 215 51 150 q 130 379 51 319 q 372 439 208 439 l 544 439 q 501 548 544 510 q 372 586 458 586 q 255 567 313 586 q 157 517 197 549 l 79 668 q 226 735 140 711 q 401 758 311 758 m 385 135 q 483 160 440 135 q 544 236 526 186 l 544 313 l 396 313 q 263 225 263 313 q 295 159 263 183 q 385 135 328 135 m 168 843 q 243 997 172 940 q 424 1054 314 1054 q 604 997 533 1054 q 679 843 675 940 l 543 843 q 508 915 542 888 q 424 942 474 942 q 340 915 374 942 q 304 843 306 888 l 168 843 z "},"ā":{"ha":857,"x_min":51,"x_max":761,"o":"m 401 758 q 668 676 575 758 q 761 426 761 593 l 761 0 l 558 0 l 558 93 q 331 -11 497 -11 q 181 18 244 -11 q 85 99 118 47 q 51 215 51 150 q 130 379 51 319 q 372 439 208 439 l 544 439 q 501 548 544 510 q 372 586 458 586 q 255 567 313 586 q 157 517 197 549 l 79 668 q 226 735 140 711 q 401 758 311 758 m 385 135 q 483 160 440 135 q 544 236 526 186 l 544 313 l 396 313 q 263 225 263 313 q 295 159 263 183 q 385 135 328 135 m 167 1004 l 681 1004 l 681 882 l 167 882 l 167 1004 z "},"ą":{"ha":857,"x_min":51,"x_max":793,"o":"m 401 758 q 668 676 575 758 q 761 426 761 593 l 761 0 l 558 0 l 558 93 q 331 -11 497 -11 q 181 18 244 -11 q 85 99 118 47 q 51 215 51 150 q 130 379 51 319 q 372 439 208 439 l 544 439 q 501 548 544 510 q 372 586 458 586 q 255 567 313 586 q 157 517 197 549 l 79 668 q 226 735 140 711 q 401 758 311 758 m 385 135 q 483 160 440 135 q 544 236 526 186 l 544 313 l 396 313 q 263 225 263 313 q 295 159 263 183 q 385 135 328 135 m 653 -322 q 513 -280 564 -322 q 461 -167 461 -237 q 515 -40 461 -99 q 675 57 568 18 l 761 0 q 636 -74 674 -39 q 599 -149 599 -110 q 620 -195 599 -178 q 678 -212 642 -212 q 763 -192 725 -212 l 793 -290 q 729 -313 767 -304 q 653 -322 692 -322 z "},"å":{"ha":857,"x_min":51,"x_max":761,"o":"m 401 758 q 668 676 575 758 q 761 426 761 593 l 761 0 l 558 0 l 558 93 q 331 -11 497 -11 q 181 18 244 -11 q 85 99 118 47 q 51 215 51 150 q 130 379 51 319 q 372 439 208 439 l 544 439 q 501 548 544 510 q 372 586 458 586 q 255 567 313 586 q 157 517 197 549 l 79 668 q 226 735 140 711 q 401 758 311 758 m 385 135 q 483 160 440 135 q 544 236 526 186 l 544 313 l 396 313 q 263 225 263 313 q 295 159 263 183 q 385 135 328 135 m 422 822 q 301 871 350 822 q 251 990 251 919 q 301 1110 251 1061 q 422 1158 350 1158 q 546 1110 496 1158 q 596 990 596 1061 q 546 871 596 919 q 422 822 496 822 m 422 906 q 483 930 458 906 q 507 990 507 954 q 483 1051 507 1026 q 422 1075 458 1075 q 363 1051 388 1075 q 339 990 339 1026 q 363 930 339 954 q 422 906 386 906 z "},"ǻ":{"ha":857,"x_min":51,"x_max":761,"o":"m 401 758 q 668 676 575 758 q 761 426 761 593 l 761 0 l 558 0 l 558 93 q 331 -11 497 -11 q 181 18 244 -11 q 85 99 118 47 q 51 215 51 150 q 130 379 51 319 q 372 439 208 439 l 544 439 q 501 548 544 510 q 372 586 458 586 q 255 567 313 586 q 157 517 197 549 l 79 668 q 226 735 140 711 q 401 758 311 758 m 385 135 q 483 160 440 135 q 544 236 526 186 l 544 313 l 396 313 q 263 225 263 313 q 295 159 263 183 q 385 135 328 135 m 572 1078 q 596 990 596 1038 q 546 871 596 919 q 422 822 496 822 q 301 871 350 822 q 251 990 251 919 q 301 1110 251 1061 q 422 1158 350 1158 q 494 1144 457 1158 l 615 1269 l 722 1186 l 572 1078 m 422 906 q 483 930 458 906 q 507 990 507 954 q 483 1051 507 1026 q 422 1075 458 1075 q 363 1051 388 1075 q 339 990 339 1026 q 363 930 339 954 q 422 906 386 906 z "},"ã":{"ha":857,"x_min":51,"x_max":761,"o":"m 401 758 q 668 676 575 758 q 761 426 761 593 l 761 0 l 558 0 l 558 93 q 331 -11 497 -11 q 181 18 244 -11 q 85 99 118 47 q 51 215 51 150 q 130 379 51 319 q 372 439 208 439 l 544 439 q 501 548 544 510 q 372 586 458 586 q 255 567 313 586 q 157 517 197 549 l 79 668 q 226 735 140 711 q 401 758 311 758 m 385 135 q 483 160 440 135 q 544 236 526 186 l 544 313 l 396 313 q 263 225 263 313 q 295 159 263 183 q 385 135 328 135 m 528 839 q 462 853 490 839 q 399 893 433 868 q 362 918 376 910 q 333 926 347 926 q 286 906 304 926 q 267 849 268 886 l 157 849 q 203 997 160 942 q 319 1051 247 1051 q 384 1037 356 1051 q 449 996 413 1022 q 485 971 471 979 q 514 963 500 963 q 560 983 542 963 q 581 1038 579 1003 l 690 1038 q 644 893 688 947 q 528 839 600 839 z "},"æ":{"ha":1383,"x_min":51,"x_max":1338,"o":"m 1338 376 q 1333 314 1338 342 l 767 314 q 838 203 782 243 q 979 163 893 163 q 1168 235 1088 163 l 1283 110 q 1151 19 1229 50 q 975 -11 1072 -11 q 793 21 876 -11 q 651 118 710 53 q 365 -11 565 -11 q 135 53 219 -11 q 51 224 51 117 q 131 381 51 321 q 372 440 210 440 l 544 440 q 501 548 544 510 q 374 586 458 586 q 256 567 314 586 q 157 517 197 549 l 79 668 q 225 735 140 711 q 400 758 310 758 q 675 653 589 758 q 797 731 726 703 q 950 758 868 758 q 1146 711 1057 758 q 1286 576 1235 664 q 1338 376 1338 489 m 947 594 q 828 554 879 594 q 764 440 776 514 l 1128 440 q 1066 554 1117 514 q 947 594 1015 594 m 388 135 q 503 174 461 135 q 544 279 544 213 l 544 314 l 396 314 q 263 228 263 314 q 295 159 263 183 q 388 135 328 135 z "},"ǽ":{"ha":1383,"x_min":51,"x_max":1338,"o":"m 1338 376 q 1333 314 1338 342 l 767 314 q 838 203 782 243 q 979 163 893 163 q 1168 235 1088 163 l 1283 110 q 1151 19 1229 50 q 975 -11 1072 -11 q 793 21 876 -11 q 651 118 710 53 q 365 -11 565 -11 q 135 53 219 -11 q 51 224 51 117 q 131 381 51 321 q 372 440 210 440 l 544 440 q 501 548 544 510 q 374 586 458 586 q 256 567 314 586 q 157 517 197 549 l 79 668 q 225 735 140 711 q 400 758 310 758 q 675 653 589 758 q 797 731 726 703 q 950 758 868 758 q 1146 711 1057 758 q 1286 576 1235 664 q 1338 376 1338 489 m 947 594 q 828 554 879 594 q 764 440 776 514 l 1128 440 q 1066 554 1117 514 q 947 594 1015 594 m 388 135 q 503 174 461 135 q 544 279 544 213 l 544 314 l 396 314 q 263 228 263 314 q 295 159 263 183 q 388 135 328 135 m 714 1043 l 947 1043 l 696 843 l 526 843 l 714 1043 z "},"b":{"ha":958,"x_min":100,"x_max":914,"o":"m 542 758 q 731 710 646 758 q 865 576 817 663 q 914 374 914 489 q 865 172 914 258 q 731 37 817 85 q 542 -11 646 -11 q 307 86 388 -11 l 307 0 l 100 0 l 100 1031 l 317 1031 l 317 668 q 542 758 399 758 m 504 167 q 641 223 588 167 q 694 374 694 279 q 641 524 694 468 q 504 581 588 581 q 367 524 421 581 q 314 374 314 468 q 367 223 314 279 q 504 167 421 167 z "},"c":{"ha":821,"x_min":44,"x_max":796,"o":"m 461 -11 q 247 38 342 -11 q 98 175 151 88 q 44 374 44 263 q 98 572 44 485 q 247 709 151 660 q 461 758 342 758 q 667 709 579 758 q 796 568 756 660 l 628 478 q 460 581 569 581 q 319 525 375 581 q 264 374 264 469 q 319 222 264 278 q 460 167 375 167 q 628 269 571 167 l 796 178 q 667 39 756 89 q 461 -11 579 -11 z "},"ć":{"ha":821,"x_min":44,"x_max":796,"o":"m 461 -11 q 247 38 342 -11 q 98 175 151 88 q 44 374 44 263 q 98 572 44 485 q 247 709 151 660 q 461 758 342 758 q 667 709 579 758 q 796 568 756 660 l 628 478 q 460 581 569 581 q 319 525 375 581 q 264 374 264 469 q 319 222 264 278 q 460 167 375 167 q 628 269 571 167 l 796 178 q 667 39 756 89 q 461 -11 579 -11 m 496 1043 l 729 1043 l 478 843 l 308 843 l 496 1043 z "},"č":{"ha":821,"x_min":44,"x_max":796,"o":"m 461 -11 q 247 38 342 -11 q 98 175 151 88 q 44 374 44 263 q 98 572 44 485 q 247 709 151 660 q 461 758 342 758 q 667 709 579 758 q 796 568 756 660 l 628 478 q 460 581 569 581 q 319 525 375 581 q 264 374 264 469 q 319 222 264 278 q 460 167 375 167 q 628 269 571 167 l 796 178 q 667 39 756 89 q 461 -11 579 -11 m 714 1043 l 531 843 l 339 843 l 156 1043 l 314 1043 l 435 939 l 556 1043 l 714 1043 z "},"ç":{"ha":821,"x_min":44,"x_max":796,"o":"m 461 -11 q 247 38 342 -11 q 98 175 151 88 q 44 374 44 263 q 98 572 44 485 q 247 709 151 660 q 461 758 342 758 q 667 709 579 758 q 796 568 756 660 l 628 478 q 460 581 569 581 q 319 525 375 581 q 264 374 264 469 q 319 222 264 278 q 460 167 375 167 q 628 269 571 167 l 796 178 q 667 39 756 89 q 461 -11 579 -11 m 382 -322 q 311 -315 346 -322 q 253 -293 276 -307 l 286 -200 q 376 -221 331 -221 q 449 -176 449 -221 q 381 -136 449 -136 l 333 -136 l 369 11 l 485 11 l 465 -69 q 556 -108 526 -76 q 586 -185 586 -139 q 531 -285 586 -249 q 382 -322 475 -322 z "},"ḉ":{"ha":821,"x_min":44,"x_max":796,"o":"m 461 -11 q 247 38 342 -11 q 98 175 151 88 q 44 374 44 263 q 98 572 44 485 q 247 709 151 660 q 461 758 342 758 q 667 709 579 758 q 796 568 756 660 l 628 478 q 460 581 569 581 q 319 525 375 581 q 264 374 264 469 q 319 222 264 278 q 460 167 375 167 q 628 269 571 167 l 796 178 q 667 39 756 89 q 461 -11 579 -11 m 382 -322 q 311 -315 346 -322 q 253 -293 276 -307 l 286 -200 q 376 -221 331 -221 q 449 -176 449 -221 q 381 -136 449 -136 l 333 -136 l 369 11 l 485 11 l 465 -69 q 556 -108 526 -76 q 586 -185 586 -139 q 531 -285 586 -249 q 382 -322 475 -322 m 496 1043 l 729 1043 l 478 843 l 308 843 l 496 1043 z "},"ĉ":{"ha":821,"x_min":44,"x_max":796,"o":"m 461 -11 q 247 38 342 -11 q 98 175 151 88 q 44 374 44 263 q 98 572 44 485 q 247 709 151 660 q 461 758 342 758 q 667 709 579 758 q 796 568 756 660 l 628 478 q 460 581 569 581 q 319 525 375 581 q 264 374 264 469 q 319 222 264 278 q 460 167 375 167 q 628 269 571 167 l 796 178 q 667 39 756 89 q 461 -11 579 -11 m 556 843 l 435 949 l 314 843 l 156 843 l 339 1043 l 531 1043 l 714 843 l 556 843 z "},"ċ":{"ha":821,"x_min":44,"x_max":796,"o":"m 461 -11 q 247 38 342 -11 q 98 175 151 88 q 44 374 44 263 q 98 572 44 485 q 247 709 151 660 q 461 758 342 758 q 667 709 579 758 q 796 568 756 660 l 628 478 q 460 581 569 581 q 319 525 375 581 q 264 374 264 469 q 319 222 264 278 q 460 167 375 167 q 628 269 571 167 l 796 178 q 667 39 756 89 q 461 -11 579 -11 m 435 850 q 351 883 383 850 q 318 968 318 917 q 351 1051 318 1018 q 435 1085 383 1085 q 519 1051 486 1085 q 551 968 551 1018 q 519 883 551 917 q 435 850 486 850 z "},"d":{"ha":961,"x_min":47,"x_max":861,"o":"m 861 1031 l 861 0 l 654 0 l 654 86 q 421 -11 574 -11 q 230 36 315 -11 q 96 171 144 83 q 47 374 47 258 q 96 576 47 489 q 230 711 144 664 q 421 758 315 758 q 644 668 564 758 l 644 1031 l 861 1031 m 458 167 q 594 223 540 167 q 649 374 649 279 q 594 524 649 468 q 458 581 540 581 q 321 524 375 581 q 267 374 267 468 q 321 223 267 279 q 458 167 375 167 z "},"ð":{"ha":913,"x_min":44,"x_max":867,"o":"m 756 853 q 867 475 867 711 q 813 212 867 322 q 658 42 758 101 q 419 -17 557 -17 q 228 24 314 -17 q 94 138 143 64 q 44 307 44 211 q 91 471 44 400 q 218 581 138 542 q 397 619 299 619 q 642 519 557 619 l 642 522 q 561 778 642 690 l 210 643 l 165 753 l 425 853 q 329 863 385 863 q 142 833 229 863 l 115 1001 q 338 1029 224 1029 q 660 942 531 1029 l 785 990 l 829 881 l 756 853 m 436 151 q 565 194 515 151 q 614 301 614 238 q 565 409 614 367 q 440 451 515 451 q 313 411 360 451 q 265 301 265 371 q 313 192 265 233 q 436 151 360 151 z "},"ď":{"ha":961,"x_min":47,"x_max":1138,"o":"m 861 1031 l 861 0 l 654 0 l 654 86 q 421 -11 574 -11 q 230 36 315 -11 q 96 171 144 83 q 47 374 47 258 q 96 576 47 489 q 230 711 144 664 q 421 758 315 758 q 644 668 564 758 l 644 1031 l 861 1031 m 458 167 q 594 223 540 167 q 649 374 649 279 q 594 524 649 468 q 458 581 540 581 q 321 524 375 581 q 267 374 267 468 q 321 223 267 279 q 458 167 375 167 m 975 1088 l 1138 1088 l 1110 808 l 975 808 l 975 1088 z "},"đ":{"ha":961,"x_min":47,"x_max":963,"o":"m 861 1031 l 861 0 l 654 0 l 654 86 q 421 -11 574 -11 q 230 36 315 -11 q 96 171 144 83 q 47 374 47 258 q 96 576 47 489 q 230 711 144 664 q 421 758 315 758 q 644 668 564 758 l 644 1031 l 861 1031 m 458 167 q 594 223 540 167 q 649 374 649 279 q 594 524 649 468 q 458 581 540 581 q 321 524 375 581 q 267 374 267 468 q 321 223 267 279 q 458 167 375 167 m 390 949 l 963 949 l 963 824 l 390 824 l 390 949 z "},"ḍ":{"ha":961,"x_min":47,"x_max":861,"o":"m 861 1031 l 861 0 l 654 0 l 654 86 q 421 -11 574 -11 q 230 36 315 -11 q 96 171 144 83 q 47 374 47 258 q 96 576 47 489 q 230 711 144 664 q 421 758 315 758 q 644 668 564 758 l 644 1031 l 861 1031 m 458 167 q 594 223 540 167 q 649 374 649 279 q 594 524 649 468 q 458 581 540 581 q 321 524 375 581 q 267 374 267 468 q 321 223 267 279 q 458 167 375 167 m 504 -292 q 435 -266 463 -292 q 408 -199 408 -240 q 435 -129 408 -157 q 504 -101 463 -101 q 572 -129 544 -101 q 600 -199 600 -157 q 573 -266 600 -240 q 504 -292 546 -292 z "},"ḏ":{"ha":961,"x_min":47,"x_max":861,"o":"m 861 1031 l 861 0 l 654 0 l 654 86 q 421 -11 574 -11 q 230 36 315 -11 q 96 171 144 83 q 47 374 47 258 q 96 576 47 489 q 230 711 144 664 q 421 758 315 758 q 644 668 564 758 l 644 1031 l 861 1031 m 458 167 q 594 223 540 167 q 649 374 649 279 q 594 524 649 468 q 458 581 540 581 q 321 524 375 581 q 267 374 267 468 q 321 223 267 279 q 458 167 375 167 m 247 -132 l 761 -132 l 761 -253 l 247 -253 l 247 -132 z "},"ǆ":{"ha":1713,"x_min":47,"x_max":1665,"o":"m 861 1031 l 861 0 l 654 0 l 654 86 q 421 -11 574 -11 q 230 36 315 -11 q 96 171 144 83 q 47 374 47 258 q 96 576 47 489 q 230 711 144 664 q 421 758 315 758 q 644 668 564 758 l 644 1031 l 861 1031 m 458 167 q 594 223 540 167 q 649 374 649 279 q 594 524 649 468 q 458 581 540 581 q 321 524 375 581 q 267 374 267 468 q 321 223 267 279 q 458 167 375 167 m 1665 167 l 1665 0 l 999 0 l 999 131 l 1379 581 l 1008 581 l 1008 747 l 1653 747 l 1653 617 l 1272 167 l 1665 167 m 1611 1043 l 1428 843 l 1236 843 l 1053 1043 l 1211 1043 l 1332 939 l 1453 1043 l 1611 1043 z "},"e":{"ha":876,"x_min":44,"x_max":832,"o":"m 832 371 q 828 313 832 367 l 263 313 q 335 203 278 243 q 476 163 392 163 q 580 180 535 163 q 664 235 625 197 l 779 110 q 471 -11 674 -11 q 247 38 344 -11 q 97 175 150 88 q 44 374 44 263 q 97 572 44 483 q 240 709 149 660 q 443 758 331 758 q 642 711 553 758 q 781 576 731 664 q 832 371 832 488 m 444 594 q 321 553 371 594 q 260 439 271 511 l 628 439 q 567 552 617 510 q 444 594 517 594 z "},"é":{"ha":876,"x_min":44,"x_max":832,"o":"m 832 371 q 828 313 832 367 l 263 313 q 335 203 278 243 q 476 163 392 163 q 580 180 535 163 q 664 235 625 197 l 779 110 q 471 -11 674 -11 q 247 38 344 -11 q 97 175 150 88 q 44 374 44 263 q 97 572 44 483 q 240 709 149 660 q 443 758 331 758 q 642 711 553 758 q 781 576 731 664 q 832 371 832 488 m 444 594 q 321 553 371 594 q 260 439 271 511 l 628 439 q 567 552 617 510 q 444 594 517 594 m 500 1043 l 733 1043 l 482 843 l 313 843 l 500 1043 z "},"ĕ":{"ha":876,"x_min":44,"x_max":832,"o":"m 832 371 q 828 313 832 367 l 263 313 q 335 203 278 243 q 476 163 392 163 q 580 180 535 163 q 664 235 625 197 l 779 110 q 471 -11 674 -11 q 247 38 344 -11 q 97 175 150 88 q 44 374 44 263 q 97 572 44 483 q 240 709 149 660 q 443 758 331 758 q 642 711 553 758 q 781 576 731 664 q 832 371 832 488 m 444 594 q 321 553 371 594 q 260 439 271 511 l 628 439 q 567 552 617 510 q 444 594 517 594 m 439 832 q 258 889 329 832 q 183 1043 188 946 l 319 1043 q 355 972 321 999 q 439 944 389 944 q 523 972 489 944 q 558 1043 557 999 l 694 1043 q 619 889 690 946 q 439 832 549 832 z "},"ě":{"ha":876,"x_min":44,"x_max":832,"o":"m 832 371 q 828 313 832 367 l 263 313 q 335 203 278 243 q 476 163 392 163 q 580 180 535 163 q 664 235 625 197 l 779 110 q 471 -11 674 -11 q 247 38 344 -11 q 97 175 150 88 q 44 374 44 263 q 97 572 44 483 q 240 709 149 660 q 443 758 331 758 q 642 711 553 758 q 781 576 731 664 q 832 371 832 488 m 444 594 q 321 553 371 594 q 260 439 271 511 l 628 439 q 567 552 617 510 q 444 594 517 594 m 718 1043 l 535 843 l 343 843 l 160 1043 l 318 1043 l 439 939 l 560 1043 l 718 1043 z "},"ḝ":{"ha":876,"x_min":44,"x_max":832,"o":"m 832 371 q 828 313 832 367 l 263 313 q 335 203 278 243 q 476 163 392 163 q 580 180 535 163 q 664 235 625 197 l 779 110 q 471 -11 674 -11 q 247 38 344 -11 q 97 175 150 88 q 44 374 44 263 q 97 572 44 483 q 240 709 149 660 q 443 758 331 758 q 642 711 553 758 q 781 576 731 664 q 832 371 832 488 m 444 594 q 321 553 371 594 q 260 439 271 511 l 628 439 q 567 552 617 510 q 444 594 517 594 m 393 -322 q 322 -315 357 -322 q 264 -293 288 -307 l 297 -200 q 388 -221 342 -221 q 460 -176 460 -221 q 392 -136 460 -136 l 344 -136 l 381 11 l 496 11 l 476 -69 q 567 -108 538 -76 q 597 -185 597 -139 q 542 -285 597 -249 q 393 -322 486 -322 m 439 832 q 258 889 329 832 q 183 1043 188 946 l 319 1043 q 355 972 321 999 q 439 944 389 944 q 523 972 489 944 q 558 1043 557 999 l 694 1043 q 619 889 690 946 q 439 832 549 832 z "},"ê":{"ha":876,"x_min":44,"x_max":832,"o":"m 832 371 q 828 313 832 367 l 263 313 q 335 203 278 243 q 476 163 392 163 q 580 180 535 163 q 664 235 625 197 l 779 110 q 471 -11 674 -11 q 247 38 344 -11 q 97 175 150 88 q 44 374 44 263 q 97 572 44 483 q 240 709 149 660 q 443 758 331 758 q 642 711 553 758 q 781 576 731 664 q 832 371 832 488 m 444 594 q 321 553 371 594 q 260 439 271 511 l 628 439 q 567 552 617 510 q 444 594 517 594 m 560 843 l 439 949 l 318 843 l 160 843 l 343 1043 l 535 1043 l 718 843 l 560 843 z "},"ế":{"ha":876,"x_min":44,"x_max":981,"o":"m 832 371 q 828 313 832 367 l 263 313 q 335 203 278 243 q 476 163 392 163 q 580 180 535 163 q 664 235 625 197 l 779 110 q 471 -11 674 -11 q 247 38 344 -11 q 97 175 150 88 q 44 374 44 263 q 97 572 44 483 q 240 709 149 660 q 443 758 331 758 q 642 711 553 758 q 781 576 731 664 q 832 371 832 488 m 444 594 q 321 553 371 594 q 260 439 271 511 l 628 439 q 567 552 617 510 q 444 594 517 594 m 558 843 l 439 922 l 319 843 l 160 843 l 344 1001 l 533 1001 l 718 843 l 558 843 m 760 1144 l 981 1144 l 763 976 l 606 976 l 760 1144 z "},"ệ":{"ha":876,"x_min":44,"x_max":832,"o":"m 832 371 q 828 313 832 367 l 263 313 q 335 203 278 243 q 476 163 392 163 q 580 180 535 163 q 664 235 625 197 l 779 110 q 471 -11 674 -11 q 247 38 344 -11 q 97 175 150 88 q 44 374 44 263 q 97 572 44 483 q 240 709 149 660 q 443 758 331 758 q 642 711 553 758 q 781 576 731 664 q 832 371 832 488 m 444 594 q 321 553 371 594 q 260 439 271 511 l 628 439 q 567 552 617 510 q 444 594 517 594 m 439 -292 q 370 -266 397 -292 q 343 -199 343 -240 q 370 -129 343 -157 q 439 -101 397 -101 q 507 -129 479 -101 q 535 -199 535 -157 q 508 -266 535 -240 q 439 -292 481 -292 m 560 843 l 439 949 l 318 843 l 160 843 l 343 1043 l 535 1043 l 718 843 l 560 843 z "},"ề":{"ha":876,"x_min":44,"x_max":844,"o":"m 832 371 q 828 313 832 367 l 263 313 q 335 203 278 243 q 476 163 392 163 q 580 180 535 163 q 664 235 625 197 l 779 110 q 471 -11 674 -11 q 247 38 344 -11 q 97 175 150 88 q 44 374 44 263 q 97 572 44 483 q 240 709 149 660 q 443 758 331 758 q 642 711 553 758 q 781 576 731 664 q 832 371 832 488 m 444 594 q 321 553 371 594 q 260 439 271 511 l 628 439 q 567 552 617 510 q 444 594 517 594 m 558 843 l 439 922 l 319 843 l 160 843 l 344 1001 l 533 1001 l 718 843 l 558 843 m 471 1144 l 692 1144 l 844 976 l 689 976 l 471 1144 z "},"ể":{"ha":876,"x_min":44,"x_max":832,"o":"m 832 371 q 828 313 832 367 l 263 313 q 335 203 278 243 q 476 163 392 163 q 580 180 535 163 q 664 235 625 197 l 779 110 q 471 -11 674 -11 q 247 38 344 -11 q 97 175 150 88 q 44 374 44 263 q 97 572 44 483 q 240 709 149 660 q 443 758 331 758 q 642 711 553 758 q 781 576 731 664 q 832 371 832 488 m 444 594 q 321 553 371 594 q 260 439 271 511 l 628 439 q 567 552 617 510 q 444 594 517 594 m 558 843 l 439 922 l 319 843 l 160 843 l 344 1001 l 533 1001 l 718 843 l 558 843 m 633 1001 q 685 1060 685 1026 q 672 1089 685 1078 q 638 1100 658 1100 q 576 1083 608 1100 l 540 1150 q 656 1181 588 1181 q 749 1151 714 1181 q 783 1071 783 1121 q 756 999 783 1031 q 686 950 729 967 l 633 1001 z "},"ễ":{"ha":876,"x_min":44,"x_max":832,"o":"m 832 371 q 828 313 832 367 l 263 313 q 335 203 278 243 q 476 163 392 163 q 580 180 535 163 q 664 235 625 197 l 779 110 q 471 -11 674 -11 q 247 38 344 -11 q 97 175 150 88 q 44 374 44 263 q 97 572 44 483 q 240 709 149 660 q 443 758 331 758 q 642 711 553 758 q 781 576 731 664 q 832 371 832 488 m 444 594 q 321 553 371 594 q 260 439 271 511 l 628 439 q 567 552 617 510 q 444 594 517 594 m 558 843 l 439 922 l 319 843 l 160 843 l 344 1001 l 533 1001 l 718 843 l 558 843 m 542 1050 q 475 1062 504 1050 q 411 1096 446 1074 q 378 1114 394 1106 q 350 1122 363 1122 q 307 1106 322 1122 q 289 1058 292 1089 l 178 1058 q 222 1187 179 1142 q 339 1232 264 1232 q 401 1221 375 1232 q 465 1188 426 1210 q 502 1167 488 1174 q 531 1160 517 1160 q 574 1177 558 1160 q 592 1222 589 1194 l 700 1222 q 657 1096 699 1142 q 542 1050 615 1050 z "},"ȅ":{"ha":876,"x_min":44,"x_max":832,"o":"m 832 371 q 828 313 832 367 l 263 313 q 335 203 278 243 q 476 163 392 163 q 580 180 535 163 q 664 235 625 197 l 779 110 q 471 -11 674 -11 q 247 38 344 -11 q 97 175 150 88 q 44 374 44 263 q 97 572 44 483 q 240 709 149 660 q 443 758 331 758 q 642 711 553 758 q 781 576 731 664 q 832 371 832 488 m 444 594 q 321 553 371 594 q 260 439 271 511 l 628 439 q 567 552 617 510 q 444 594 517 594 m 75 1043 l 278 1043 l 378 843 l 219 843 l 75 1043 m 356 1043 l 558 1043 l 658 843 l 500 843 l 356 1043 z "},"ë":{"ha":876,"x_min":44,"x_max":832,"o":"m 832 371 q 828 313 832 367 l 263 313 q 335 203 278 243 q 476 163 392 163 q 580 180 535 163 q 664 235 625 197 l 779 110 q 471 -11 674 -11 q 247 38 344 -11 q 97 175 150 88 q 44 374 44 263 q 97 572 44 483 q 240 709 149 660 q 443 758 331 758 q 642 711 553 758 q 781 576 731 664 q 832 371 832 488 m 444 594 q 321 553 371 594 q 260 439 271 511 l 628 439 q 567 552 617 510 q 444 594 517 594 m 299 850 q 229 877 257 850 q 201 946 201 904 q 229 1015 201 988 q 299 1042 257 1042 q 367 1015 340 1042 q 394 946 394 988 q 367 877 394 904 q 299 850 340 850 m 579 850 q 510 877 538 850 q 483 946 483 904 q 510 1015 483 988 q 579 1042 538 1042 q 649 1015 621 1042 q 676 946 676 988 q 649 877 676 904 q 579 850 621 850 z "},"ė":{"ha":876,"x_min":44,"x_max":832,"o":"m 832 371 q 828 313 832 367 l 263 313 q 335 203 278 243 q 476 163 392 163 q 580 180 535 163 q 664 235 625 197 l 779 110 q 471 -11 674 -11 q 247 38 344 -11 q 97 175 150 88 q 44 374 44 263 q 97 572 44 483 q 240 709 149 660 q 443 758 331 758 q 642 711 553 758 q 781 576 731 664 q 832 371 832 488 m 444 594 q 321 553 371 594 q 260 439 271 511 l 628 439 q 567 552 617 510 q 444 594 517 594 m 439 850 q 355 883 388 850 q 322 968 322 917 q 355 1051 322 1018 q 439 1085 388 1085 q 523 1051 490 1085 q 556 968 556 1018 q 523 883 556 917 q 439 850 490 850 z "},"ẹ":{"ha":876,"x_min":44,"x_max":832,"o":"m 832 371 q 828 313 832 367 l 263 313 q 335 203 278 243 q 476 163 392 163 q 580 180 535 163 q 664 235 625 197 l 779 110 q 471 -11 674 -11 q 247 38 344 -11 q 97 175 150 88 q 44 374 44 263 q 97 572 44 483 q 240 709 149 660 q 443 758 331 758 q 642 711 553 758 q 781 576 731 664 q 832 371 832 488 m 444 594 q 321 553 371 594 q 260 439 271 511 l 628 439 q 567 552 617 510 q 444 594 517 594 m 439 -292 q 370 -266 397 -292 q 343 -199 343 -240 q 370 -129 343 -157 q 439 -101 397 -101 q 507 -129 479 -101 q 535 -199 535 -157 q 508 -266 535 -240 q 439 -292 481 -292 z "},"è":{"ha":876,"x_min":44,"x_max":832,"o":"m 832 371 q 828 313 832 367 l 263 313 q 335 203 278 243 q 476 163 392 163 q 580 180 535 163 q 664 235 625 197 l 779 110 q 471 -11 674 -11 q 247 38 344 -11 q 97 175 150 88 q 44 374 44 263 q 97 572 44 483 q 240 709 149 660 q 443 758 331 758 q 642 711 553 758 q 781 576 731 664 q 832 371 832 488 m 444 594 q 321 553 371 594 q 260 439 271 511 l 628 439 q 567 552 617 510 q 444 594 517 594 m 144 1043 l 378 1043 l 565 843 l 396 843 l 144 1043 z "},"ẻ":{"ha":876,"x_min":44,"x_max":832,"o":"m 832 371 q 828 313 832 367 l 263 313 q 335 203 278 243 q 476 163 392 163 q 580 180 535 163 q 664 235 625 197 l 779 110 q 471 -11 674 -11 q 247 38 344 -11 q 97 175 150 88 q 44 374 44 263 q 97 572 44 483 q 240 709 149 660 q 443 758 331 758 q 642 711 553 758 q 781 576 731 664 q 832 371 832 488 m 444 594 q 321 553 371 594 q 260 439 271 511 l 628 439 q 567 552 617 510 q 444 594 517 594 m 413 901 q 467 940 451 919 q 483 986 483 961 q 465 1028 483 1013 q 418 1044 447 1044 q 336 1018 376 1044 l 292 1106 q 442 1153 351 1153 q 562 1112 515 1153 q 608 1004 608 1071 q 481 829 608 888 l 413 901 z "},"ȇ":{"ha":876,"x_min":44,"x_max":832,"o":"m 832 371 q 828 313 832 367 l 263 313 q 335 203 278 243 q 476 163 392 163 q 580 180 535 163 q 664 235 625 197 l 779 110 q 471 -11 674 -11 q 247 38 344 -11 q 97 175 150 88 q 44 374 44 263 q 97 572 44 483 q 240 709 149 660 q 443 758 331 758 q 642 711 553 758 q 781 576 731 664 q 832 371 832 488 m 444 594 q 321 553 371 594 q 260 439 271 511 l 628 439 q 567 552 617 510 q 444 594 517 594 m 183 843 q 258 997 188 940 q 439 1054 329 1054 q 619 997 549 1054 q 694 843 690 940 l 558 843 q 523 915 557 888 q 439 942 489 942 q 355 915 389 942 q 319 843 321 888 l 183 843 z "},"ē":{"ha":876,"x_min":44,"x_max":832,"o":"m 832 371 q 828 313 832 367 l 263 313 q 335 203 278 243 q 476 163 392 163 q 580 180 535 163 q 664 235 625 197 l 779 110 q 471 -11 674 -11 q 247 38 344 -11 q 97 175 150 88 q 44 374 44 263 q 97 572 44 483 q 240 709 149 660 q 443 758 331 758 q 642 711 553 758 q 781 576 731 664 q 832 371 832 488 m 444 594 q 321 553 371 594 q 260 439 271 511 l 628 439 q 567 552 617 510 q 444 594 517 594 m 182 1004 l 696 1004 l 696 882 l 182 882 l 182 1004 z "},"ḗ":{"ha":876,"x_min":44,"x_max":832,"o":"m 832 371 q 828 313 832 367 l 263 313 q 335 203 278 243 q 476 163 392 163 q 580 180 535 163 q 664 235 625 197 l 779 110 q 471 -11 674 -11 q 247 38 344 -11 q 97 175 150 88 q 44 374 44 263 q 97 572 44 483 q 240 709 149 660 q 443 758 331 758 q 642 711 553 758 q 781 576 731 664 q 832 371 832 488 m 444 594 q 321 553 371 594 q 260 439 271 511 l 628 439 q 567 552 617 510 q 444 594 517 594 m 182 981 l 696 981 l 696 865 l 182 865 l 182 981 m 474 1235 l 694 1235 l 476 1067 l 319 1067 l 474 1235 z "},"ḕ":{"ha":876,"x_min":44,"x_max":832,"o":"m 832 371 q 828 313 832 367 l 263 313 q 335 203 278 243 q 476 163 392 163 q 580 180 535 163 q 664 235 625 197 l 779 110 q 471 -11 674 -11 q 247 38 344 -11 q 97 175 150 88 q 44 374 44 263 q 97 572 44 483 q 240 709 149 660 q 443 758 331 758 q 642 711 553 758 q 781 576 731 664 q 832 371 832 488 m 444 594 q 321 553 371 594 q 260 439 271 511 l 628 439 q 567 552 617 510 q 444 594 517 594 m 182 981 l 696 981 l 696 865 l 182 865 l 182 981 m 185 1235 l 406 1235 l 558 1067 l 403 1067 l 185 1235 z "},"ę":{"ha":876,"x_min":44,"x_max":832,"o":"m 832 371 q 828 313 832 367 l 263 313 q 335 203 278 243 q 476 163 392 163 q 580 180 535 163 q 664 235 625 197 l 781 110 q 724 60 753 81 q 603 -51 636 -4 q 569 -142 569 -99 q 591 -194 569 -175 q 650 -212 613 -212 q 732 -192 694 -212 l 764 -290 q 699 -313 738 -304 q 624 -322 661 -322 q 483 -278 535 -322 q 432 -161 432 -235 q 449 -83 432 -122 q 500 -10 467 -43 q 471 -11 490 -11 q 247 38 344 -11 q 97 175 150 88 q 44 374 44 263 q 97 572 44 483 q 240 709 149 660 q 443 758 331 758 q 642 711 553 758 q 781 576 731 664 q 832 371 832 488 m 444 594 q 321 553 371 594 q 260 439 271 511 l 628 439 q 567 552 617 510 q 444 594 517 594 z "},"ẽ":{"ha":876,"x_min":44,"x_max":832,"o":"m 832 371 q 828 313 832 367 l 263 313 q 335 203 278 243 q 476 163 392 163 q 580 180 535 163 q 664 235 625 197 l 779 110 q 471 -11 674 -11 q 247 38 344 -11 q 97 175 150 88 q 44 374 44 263 q 97 572 44 483 q 240 709 149 660 q 443 758 331 758 q 642 711 553 758 q 781 576 731 664 q 832 371 832 488 m 444 594 q 321 553 371 594 q 260 439 271 511 l 628 439 q 567 552 617 510 q 444 594 517 594 m 543 839 q 477 853 506 839 q 414 893 449 868 q 377 918 392 910 q 349 926 363 926 q 301 906 319 926 q 282 849 283 886 l 172 849 q 219 997 175 942 q 335 1051 263 1051 q 399 1037 371 1051 q 464 996 428 1022 q 501 971 486 979 q 529 963 515 963 q 576 983 557 963 q 596 1038 594 1003 l 706 1038 q 659 893 703 947 q 543 839 615 839 z "},"ə":{"ha":876,"x_min":44,"x_max":832,"o":"m 44 376 q 49 435 44 381 l 614 435 q 542 544 599 504 q 400 585 485 585 q 297 567 342 585 q 213 513 251 550 l 97 638 q 406 758 203 758 q 629 709 532 758 q 779 572 726 660 q 832 374 832 485 q 780 176 832 264 q 637 38 728 88 q 433 -11 546 -11 q 235 36 324 -11 q 95 172 146 83 q 44 376 44 260 m 432 153 q 556 194 506 153 q 617 308 606 236 l 249 308 q 310 195 260 238 q 432 153 360 153 z "},"ʒ":{"ha":769,"x_min":-25,"x_max":736,"o":"m 465 333 q 667 237 597 314 q 736 43 736 160 q 692 -119 736 -46 q 559 -237 649 -193 q 338 -281 469 -281 q 137 -252 233 -281 q -25 -172 40 -224 l 51 1 q 179 -68 106 -43 q 329 -93 253 -93 q 464 -57 415 -93 q 513 43 513 -21 q 468 141 513 106 q 332 176 424 176 l 229 176 l 229 321 l 435 568 l 14 568 l 14 747 l 689 747 l 689 601 l 465 333 z "},"ǯ":{"ha":769,"x_min":-25,"x_max":736,"o":"m 465 333 q 667 237 597 314 q 736 43 736 160 q 692 -119 736 -46 q 559 -237 649 -193 q 338 -281 469 -281 q 137 -252 233 -281 q -25 -172 40 -224 l 51 1 q 179 -68 106 -43 q 329 -93 253 -93 q 464 -57 415 -93 q 513 43 513 -21 q 468 141 513 106 q 332 176 424 176 l 229 176 l 229 321 l 435 568 l 14 568 l 14 747 l 689 747 l 689 601 l 465 333 m 619 1043 l 436 843 l 244 843 l 61 1043 l 219 1043 l 340 939 l 461 1043 l 619 1043 z "},"f":{"ha":538,"x_min":11,"x_max":581,"o":"m 338 731 l 529 731 l 529 564 l 343 564 l 343 0 l 126 0 l 126 564 l 11 564 l 11 731 l 126 731 l 126 764 q 202 967 126 892 q 415 1042 278 1042 q 508 1031 464 1042 q 581 1001 551 1021 l 524 844 q 436 871 486 871 q 338 763 338 871 l 338 731 z "},"g":{"ha":972,"x_min":44,"x_max":871,"o":"m 871 747 l 871 125 q 764 -181 871 -81 q 451 -281 657 -281 q 246 -254 343 -281 q 85 -178 149 -228 l 171 -22 q 290 -84 218 -61 q 435 -107 363 -107 q 601 -56 547 -107 q 654 97 654 -6 l 654 129 q 418 36 569 36 q 230 81 315 36 q 94 208 144 126 q 44 397 44 290 q 94 586 44 504 q 230 713 144 668 q 418 758 315 758 q 665 651 581 758 l 665 747 l 871 747 m 461 214 q 602 265 547 214 q 657 397 657 315 q 602 530 657 479 q 461 581 547 581 q 319 530 375 581 q 264 397 264 479 q 319 265 264 315 q 461 214 375 214 z "},"ğ":{"ha":972,"x_min":44,"x_max":871,"o":"m 871 747 l 871 125 q 764 -181 871 -81 q 451 -281 657 -281 q 246 -254 343 -281 q 85 -178 149 -228 l 171 -22 q 290 -84 218 -61 q 435 -107 363 -107 q 601 -56 547 -107 q 654 97 654 -6 l 654 129 q 418 36 569 36 q 230 81 315 36 q 94 208 144 126 q 44 397 44 290 q 94 586 44 504 q 230 713 144 668 q 418 758 315 758 q 665 651 581 758 l 665 747 l 871 747 m 461 214 q 602 265 547 214 q 657 397 657 315 q 602 530 657 479 q 461 581 547 581 q 319 530 375 581 q 264 397 264 479 q 319 265 264 315 q 461 214 375 214 m 474 832 q 293 889 364 832 q 218 1043 222 946 l 354 1043 q 390 972 356 999 q 474 944 424 944 q 558 972 524 944 q 593 1043 592 999 l 729 1043 q 654 889 725 946 q 474 832 583 832 z "},"ǧ":{"ha":972,"x_min":44,"x_max":871,"o":"m 871 747 l 871 125 q 764 -181 871 -81 q 451 -281 657 -281 q 246 -254 343 -281 q 85 -178 149 -228 l 171 -22 q 290 -84 218 -61 q 435 -107 363 -107 q 601 -56 547 -107 q 654 97 654 -6 l 654 129 q 418 36 569 36 q 230 81 315 36 q 94 208 144 126 q 44 397 44 290 q 94 586 44 504 q 230 713 144 668 q 418 758 315 758 q 665 651 581 758 l 665 747 l 871 747 m 461 214 q 602 265 547 214 q 657 397 657 315 q 602 530 657 479 q 461 581 547 581 q 319 530 375 581 q 264 397 264 479 q 319 265 264 315 q 461 214 375 214 m 753 1043 l 569 843 l 378 843 l 194 1043 l 353 1043 l 474 939 l 594 1043 l 753 1043 z "},"ĝ":{"ha":972,"x_min":44,"x_max":871,"o":"m 871 747 l 871 125 q 764 -181 871 -81 q 451 -281 657 -281 q 246 -254 343 -281 q 85 -178 149 -228 l 171 -22 q 290 -84 218 -61 q 435 -107 363 -107 q 601 -56 547 -107 q 654 97 654 -6 l 654 129 q 418 36 569 36 q 230 81 315 36 q 94 208 144 126 q 44 397 44 290 q 94 586 44 504 q 230 713 144 668 q 418 758 315 758 q 665 651 581 758 l 665 747 l 871 747 m 461 214 q 602 265 547 214 q 657 397 657 315 q 602 530 657 479 q 461 581 547 581 q 319 530 375 581 q 264 397 264 479 q 319 265 264 315 q 461 214 375 214 m 594 843 l 474 949 l 353 843 l 194 843 l 378 1043 l 569 1043 l 753 843 l 594 843 z "},"ģ":{"ha":972,"x_min":44,"x_max":871,"o":"m 871 747 l 871 125 q 764 -181 871 -81 q 451 -281 657 -281 q 246 -254 343 -281 q 85 -178 149 -228 l 171 -22 q 290 -84 218 -61 q 435 -107 363 -107 q 601 -56 547 -107 q 654 97 654 -6 l 654 129 q 418 36 569 36 q 230 81 315 36 q 94 208 144 126 q 44 397 44 290 q 94 586 44 504 q 230 713 144 668 q 418 758 315 758 q 665 651 581 758 l 665 747 l 871 747 m 461 214 q 602 265 547 214 q 657 397 657 315 q 602 530 657 479 q 461 581 547 581 q 319 530 375 581 q 264 397 264 479 q 319 265 264 315 q 461 214 375 214 m 525 989 q 583 915 583 972 q 556 854 583 876 q 474 832 528 832 q 392 855 419 832 q 364 915 364 878 q 393 1004 364 950 l 456 1129 l 572 1129 l 525 989 z "},"ġ":{"ha":972,"x_min":44,"x_max":871,"o":"m 871 747 l 871 125 q 764 -181 871 -81 q 451 -281 657 -281 q 246 -254 343 -281 q 85 -178 149 -228 l 171 -22 q 290 -84 218 -61 q 435 -107 363 -107 q 601 -56 547 -107 q 654 97 654 -6 l 654 129 q 418 36 569 36 q 230 81 315 36 q 94 208 144 126 q 44 397 44 290 q 94 586 44 504 q 230 713 144 668 q 418 758 315 758 q 665 651 581 758 l 665 747 l 871 747 m 461 214 q 602 265 547 214 q 657 397 657 315 q 602 530 657 479 q 461 581 547 581 q 319 530 375 581 q 264 397 264 479 q 319 265 264 315 q 461 214 375 214 m 474 850 q 390 883 422 850 q 357 968 357 917 q 390 1051 357 1018 q 474 1085 422 1085 q 558 1051 525 1085 q 590 968 590 1018 q 558 883 590 917 q 474 850 525 850 z "},"ḡ":{"ha":972,"x_min":44,"x_max":871,"o":"m 871 747 l 871 125 q 764 -181 871 -81 q 451 -281 657 -281 q 246 -254 343 -281 q 85 -178 149 -228 l 171 -22 q 290 -84 218 -61 q 435 -107 363 -107 q 601 -56 547 -107 q 654 97 654 -6 l 654 129 q 418 36 569 36 q 230 81 315 36 q 94 208 144 126 q 44 397 44 290 q 94 586 44 504 q 230 713 144 668 q 418 758 315 758 q 665 651 581 758 l 665 747 l 871 747 m 461 214 q 602 265 547 214 q 657 397 657 315 q 602 530 657 479 q 461 581 547 581 q 319 530 375 581 q 264 397 264 479 q 319 265 264 315 q 461 214 375 214 m 217 1004 l 731 1004 l 731 882 l 217 882 l 217 1004 z "},"ǥ":{"ha":988,"x_min":44,"x_max":960,"o":"m 960 -53 l 844 -53 q 449 -281 764 -281 q 245 -253 342 -281 q 85 -178 149 -226 l 171 -28 q 290 -90 218 -67 q 436 -112 363 -112 q 610 -53 556 -112 l 379 -53 l 379 53 l 653 53 q 654 92 654 65 l 654 181 q 413 90 568 90 q 222 133 306 90 q 92 251 139 175 q 44 425 44 328 q 92 597 44 522 q 222 715 139 672 q 413 757 306 757 q 557 731 492 757 q 665 654 622 706 l 665 747 l 871 747 l 871 125 q 867 54 871 88 l 960 54 l 960 -53 m 461 251 q 603 299 549 251 q 657 425 657 346 q 603 550 657 503 q 461 597 549 597 q 319 550 374 597 q 264 425 264 503 q 319 299 264 346 q 461 251 374 251 z "},"h":{"ha":960,"x_min":100,"x_max":864,"o":"m 554 758 q 778 675 693 758 q 864 428 864 592 l 864 0 l 647 0 l 647 394 q 608 527 647 483 q 496 571 569 571 q 365 520 414 571 q 317 369 317 469 l 317 0 l 100 0 l 100 1031 l 317 1031 l 317 669 q 421 735 360 713 q 554 758 482 758 z "},"ħ":{"ha":960,"x_min":0,"x_max":864,"o":"m 554 758 q 778 675 693 758 q 864 428 864 592 l 864 0 l 647 0 l 647 394 q 608 527 647 483 q 496 571 569 571 q 365 520 414 571 q 317 369 317 469 l 317 0 l 100 0 l 100 1031 l 317 1031 l 317 669 q 421 735 360 713 q 554 758 482 758 m 0 949 l 572 949 l 572 824 l 0 824 l 0 949 z "},"ḫ":{"ha":960,"x_min":100,"x_max":864,"o":"m 554 758 q 778 675 693 758 q 864 428 864 592 l 864 0 l 647 0 l 647 394 q 608 527 647 483 q 496 571 569 571 q 365 520 414 571 q 317 369 317 469 l 317 0 l 100 0 l 100 1031 l 317 1031 l 317 669 q 421 735 360 713 q 554 758 482 758 m 483 -301 q 304 -247 375 -301 q 228 -103 233 -192 l 357 -103 q 394 -170 358 -144 q 483 -196 429 -196 q 573 -170 538 -196 q 610 -103 608 -144 l 739 -103 q 663 -247 733 -192 q 483 -301 592 -301 z "},"ȟ":{"ha":960,"x_min":-71,"x_max":864,"o":"m 554 758 q 778 675 693 758 q 864 428 864 592 l 864 0 l 647 0 l 647 394 q 608 527 647 483 q 496 571 569 571 q 365 520 414 571 q 317 369 317 469 l 317 0 l 100 0 l 100 1031 l 317 1031 l 317 669 q 421 735 360 713 q 554 758 482 758 m 488 1326 l 304 1126 l 113 1126 l -71 1326 l 88 1326 l 208 1222 l 329 1326 l 488 1326 z "},"ĥ":{"ha":960,"x_min":-71,"x_max":864,"o":"m 554 758 q 778 675 693 758 q 864 428 864 592 l 864 0 l 647 0 l 647 394 q 608 527 647 483 q 496 571 569 571 q 365 520 414 571 q 317 369 317 469 l 317 0 l 100 0 l 100 1031 l 317 1031 l 317 669 q 421 735 360 713 q 554 758 482 758 m 329 1110 l 208 1215 l 88 1110 l -71 1110 l 113 1310 l 304 1310 l 488 1110 l 329 1110 z "},"ḥ":{"ha":960,"x_min":100,"x_max":864,"o":"m 554 758 q 778 675 693 758 q 864 428 864 592 l 864 0 l 647 0 l 647 394 q 608 527 647 483 q 496 571 569 571 q 365 520 414 571 q 317 369 317 469 l 317 0 l 100 0 l 100 1031 l 317 1031 l 317 669 q 421 735 360 713 q 554 758 482 758 m 483 -292 q 415 -266 442 -292 q 388 -199 388 -240 q 415 -129 388 -157 q 483 -101 442 -101 q 551 -129 524 -101 q 579 -199 579 -157 q 552 -266 579 -240 q 483 -292 525 -292 z "},"i":{"ha":418,"x_min":74,"x_max":343,"o":"m 100 747 l 317 747 l 317 0 l 100 0 l 100 747 m 208 851 q 111 886 149 851 q 74 972 74 921 q 111 1058 74 1024 q 208 1093 149 1093 q 306 1060 268 1093 q 343 976 343 1026 q 306 887 343 922 q 208 851 268 851 z "},"ı":{"ha":418,"x_min":100,"x_max":317,"o":"m 100 747 l 317 747 l 317 0 l 100 0 l 100 747 z "},"í":{"ha":418,"x_min":82,"x_max":503,"o":"m 100 747 l 317 747 l 317 0 l 100 0 l 100 747 m 269 1043 l 503 1043 l 251 843 l 82 843 l 269 1043 z "},"ĭ":{"ha":418,"x_min":-12,"x_max":429,"o":"m 100 747 l 317 747 l 317 0 l 100 0 l 100 747 m 208 832 q 51 890 113 832 q -12 1043 -11 947 l 118 1043 q 142 970 118 997 q 208 943 167 943 q 274 970 250 943 q 299 1043 299 997 l 429 1043 q 366 890 428 947 q 208 832 304 832 z "},"î":{"ha":418,"x_min":-36,"x_max":453,"o":"m 100 747 l 317 747 l 317 0 l 100 0 l 100 747 m 299 843 l 208 940 l 118 843 l -36 843 l 115 1043 l 301 1043 l 453 843 l 299 843 z "},"ȉ":{"ha":418,"x_min":-156,"x_max":428,"o":"m 100 747 l 317 747 l 317 0 l 100 0 l 100 747 m -156 1043 l 47 1043 l 147 843 l -11 843 l -156 1043 m 125 1043 l 328 1043 l 428 843 l 269 843 l 125 1043 z "},"ï":{"ha":418,"x_min":4,"x_max":413,"o":"m 100 747 l 317 747 l 317 0 l 100 0 l 100 747 m 94 851 q 30 878 56 851 q 4 946 4 904 q 30 1014 4 988 q 94 1040 56 1040 q 160 1014 133 1040 q 186 946 186 988 q 160 878 186 904 q 94 851 133 851 m 322 851 q 257 878 283 851 q 231 946 231 904 q 257 1014 231 988 q 322 1040 283 1040 q 387 1014 361 1040 q 413 946 413 988 q 387 878 413 904 q 322 851 361 851 z "},"ḯ":{"ha":418,"x_min":-19,"x_max":464,"o":"m 100 747 l 317 747 l 317 0 l 100 0 l 100 747 m 72 850 q 7 876 33 850 q -19 942 -19 901 q 7 1007 -19 981 q 72 1033 33 1033 q 139 1007 113 1033 q 165 942 165 981 q 139 876 165 901 q 72 850 113 850 m 344 850 q 279 876 306 850 q 253 942 253 901 q 280 1007 253 981 q 344 1033 307 1033 q 410 1007 383 1033 q 436 942 436 981 q 410 876 436 901 q 344 850 383 850 m 243 1235 l 464 1235 l 246 1067 l 89 1067 l 243 1235 z "},"ị":{"ha":418,"x_min":74,"x_max":343,"o":"m 100 747 l 317 747 l 317 0 l 100 0 l 100 747 m 208 851 q 111 886 149 851 q 74 972 74 921 q 111 1058 74 1024 q 208 1093 149 1093 q 306 1060 268 1093 q 343 976 343 1026 q 306 887 343 922 q 208 851 268 851 m 208 -292 q 140 -266 167 -292 q 113 -199 113 -240 q 140 -129 113 -157 q 208 -101 167 -101 q 276 -129 249 -101 q 304 -199 304 -157 q 277 -266 304 -240 q 208 -292 250 -292 z "},"ì":{"ha":418,"x_min":-86,"x_max":335,"o":"m 100 747 l 317 747 l 317 0 l 100 0 l 100 747 m -86 1043 l 147 1043 l 335 843 l 165 843 l -86 1043 z "},"ỉ":{"ha":418,"x_min":61,"x_max":378,"o":"m 100 747 l 317 747 l 317 0 l 100 0 l 100 747 m 182 901 q 237 940 221 919 q 253 986 253 961 q 235 1028 253 1013 q 188 1044 217 1044 q 106 1018 146 1044 l 61 1106 q 211 1153 121 1153 q 331 1112 285 1153 q 378 1004 378 1071 q 250 829 378 888 l 182 901 z "},"ȋ":{"ha":418,"x_min":-12,"x_max":429,"o":"m 100 747 l 317 747 l 317 0 l 100 0 l 100 747 m -12 843 q 51 997 -11 939 q 208 1054 113 1054 q 366 997 304 1054 q 429 843 428 939 l 299 843 q 275 916 299 889 q 208 943 251 943 q 142 916 165 943 q 118 843 118 889 l -12 843 z "},"ĳ":{"ha":844,"x_min":74,"x_max":771,"o":"m 100 747 l 317 747 l 317 0 l 100 0 l 100 747 m 208 851 q 111 886 149 851 q 74 972 74 921 q 111 1058 74 1024 q 208 1093 149 1093 q 306 1060 268 1093 q 343 976 343 1026 q 306 887 343 922 q 208 851 268 851 m 463 -281 q 289 -239 349 -281 l 347 -82 q 439 -108 385 -108 q 504 -81 481 -108 q 528 0 528 -54 l 528 747 l 744 747 l 744 1 q 670 -205 744 -129 q 463 -281 596 -281 m 636 851 q 539 886 576 851 q 501 972 501 921 q 539 1058 501 1024 q 636 1093 576 1093 q 733 1060 696 1093 q 771 976 771 1026 q 733 887 771 922 q 636 851 696 851 z "},"ī":{"ha":418,"x_min":0,"x_max":417,"o":"m 100 747 l 317 747 l 317 0 l 100 0 l 100 747 m 0 1004 l 417 1004 l 417 882 l 0 882 l 0 1004 z "},"į":{"ha":418,"x_min":74,"x_max":360,"o":"m 100 747 l 317 747 l 317 0 l 100 0 l 100 747 m 208 851 q 111 886 149 851 q 74 972 74 921 q 111 1058 74 1024 q 208 1093 149 1093 q 306 1060 268 1093 q 343 976 343 1026 q 306 887 343 922 q 208 851 268 851 m 257 -322 q 136 -280 182 -322 q 90 -168 90 -237 q 131 -45 90 -103 q 250 57 171 13 l 317 0 q 247 -76 267 -40 q 226 -147 226 -111 q 243 -194 226 -176 q 285 -212 260 -212 q 329 -199 310 -212 l 360 -293 q 257 -322 319 -322 z "},"ĩ":{"ha":418,"x_min":-21,"x_max":438,"o":"m 100 747 l 317 747 l 317 0 l 100 0 l 100 747 m 300 839 q 239 854 265 839 q 182 897 213 869 q 167 910 179 900 q 147 924 156 919 q 131 929 139 929 q 99 908 110 929 q 88 849 88 888 l -21 849 q 15 999 -21 947 q 117 1051 50 1051 q 178 1036 151 1051 q 235 993 204 1021 q 249 981 238 990 q 269 966 261 971 q 286 961 278 961 q 318 981 307 961 q 329 1038 329 1001 l 438 1038 q 402 890 438 942 q 300 839 367 839 z "},"j":{"ha":426,"x_min":-129,"x_max":353,"o":"m 44 -281 q -129 -239 -69 -281 l -71 -82 q 21 -108 -33 -108 q 86 -81 63 -108 q 110 0 110 -54 l 110 747 l 326 747 l 326 1 q 252 -205 326 -129 q 44 -281 178 -281 m 218 851 q 121 886 158 851 q 83 972 83 921 q 121 1058 83 1024 q 218 1093 158 1093 q 315 1060 278 1093 q 353 976 353 1026 q 315 887 353 922 q 218 851 278 851 z "},"ȷ":{"ha":426,"x_min":-129,"x_max":326,"o":"m 44 -281 q -129 -239 -69 -281 l -71 -82 q 21 -108 -33 -108 q 86 -81 63 -108 q 110 0 110 -54 l 110 747 l 326 747 l 326 1 q 252 -205 326 -129 q 44 -281 178 -281 z "},"ĵ":{"ha":426,"x_min":-129,"x_max":463,"o":"m 44 -281 q -129 -239 -69 -281 l -71 -82 q 21 -108 -33 -108 q 86 -81 63 -108 q 110 0 110 -54 l 110 747 l 326 747 l 326 1 q 252 -205 326 -129 q 44 -281 178 -281 m 308 843 l 218 940 l 128 843 l -26 843 l 125 1043 l 311 1043 l 463 843 l 308 843 z "},"k":{"ha":917,"x_min":100,"x_max":919,"o":"m 421 293 l 317 190 l 317 0 l 100 0 l 100 1031 l 317 1031 l 317 447 l 633 747 l 892 747 l 581 431 l 919 0 l 657 0 l 421 293 z "},"ǩ":{"ha":917,"x_min":-71,"x_max":919,"o":"m 421 293 l 317 190 l 317 0 l 100 0 l 100 1031 l 317 1031 l 317 447 l 633 747 l 892 747 l 581 431 l 919 0 l 657 0 l 421 293 m 488 1326 l 304 1126 l 113 1126 l -71 1326 l 88 1326 l 208 1222 l 329 1326 l 488 1326 z "},"ķ":{"ha":917,"x_min":100,"x_max":919,"o":"m 421 293 l 317 190 l 317 0 l 100 0 l 100 1031 l 317 1031 l 317 447 l 633 747 l 892 747 l 581 431 l 919 0 l 657 0 l 421 293 m 442 -101 q 512 -124 486 -101 q 538 -185 538 -147 q 513 -275 538 -228 l 464 -369 l 363 -369 l 397 -258 q 359 -231 372 -250 q 346 -185 346 -212 q 372 -124 346 -147 q 442 -101 397 -101 z "},"ĸ":{"ha":896,"x_min":100,"x_max":919,"o":"m 421 293 l 317 190 l 317 0 l 100 0 l 100 747 l 317 747 l 317 447 l 633 747 l 892 747 l 581 431 l 919 0 l 657 0 l 421 293 z "},"l":{"ha":418,"x_min":100,"x_max":317,"o":"m 100 1031 l 317 1031 l 317 0 l 100 0 l 100 1031 z "},"ĺ":{"ha":418,"x_min":82,"x_max":503,"o":"m 100 1031 l 317 1031 l 317 0 l 100 0 l 100 1031 m 269 1326 l 503 1326 l 251 1126 l 82 1126 l 269 1326 z "},"ľ":{"ha":418,"x_min":100,"x_max":590,"o":"m 100 1031 l 317 1031 l 317 0 l 100 0 l 100 1031 m 428 1088 l 590 1088 l 563 808 l 428 808 l 428 1088 z "},"ļ":{"ha":418,"x_min":100,"x_max":317,"o":"m 100 1031 l 317 1031 l 317 0 l 100 0 l 100 1031 m 208 -101 q 278 -124 253 -101 q 304 -185 304 -147 q 279 -275 304 -228 l 231 -369 l 129 -369 l 164 -258 q 126 -231 139 -250 q 113 -185 113 -212 q 138 -124 113 -147 q 208 -101 164 -101 z "},"ŀ":{"ha":583,"x_min":100,"x_max":610,"o":"m 100 1031 l 317 1031 l 317 0 l 100 0 l 100 1031 m 500 394 q 422 426 453 394 q 392 504 392 457 q 422 582 392 551 q 500 613 453 613 q 578 582 547 613 q 610 504 610 551 q 578 426 610 457 q 500 394 547 394 z "},"ḷ":{"ha":418,"x_min":100,"x_max":317,"o":"m 100 1031 l 317 1031 l 317 0 l 100 0 l 100 1031 m 208 -292 q 140 -266 167 -292 q 113 -199 113 -240 q 140 -129 113 -157 q 208 -101 167 -101 q 276 -129 249 -101 q 304 -199 304 -157 q 277 -266 304 -240 q 208 -292 250 -292 z "},"ǉ":{"ha":844,"x_min":100,"x_max":771,"o":"m 100 1031 l 317 1031 l 317 0 l 100 0 l 100 1031 m 463 -281 q 289 -239 349 -281 l 347 -82 q 439 -108 385 -108 q 504 -81 481 -108 q 528 0 528 -54 l 528 747 l 744 747 l 744 1 q 670 -205 744 -129 q 463 -281 596 -281 m 636 851 q 539 886 576 851 q 501 972 501 921 q 539 1058 501 1024 q 636 1093 576 1093 q 733 1060 696 1093 q 771 976 771 1026 q 733 887 771 922 q 636 851 696 851 z "},"ḻ":{"ha":418,"x_min":-49,"x_max":465,"o":"m 100 1031 l 317 1031 l 317 0 l 100 0 l 100 1031 m -49 -132 l 465 -132 l 465 -253 l -49 -253 l -49 -132 z "},"ł":{"ha":454,"x_min":-39,"x_max":490,"o":"m 118 1031 l 335 1031 l 335 0 l 118 0 l 118 1031 m -39 390 l 411 729 l 490 618 l 42 282 l -39 390 z "},"m":{"ha":1457,"x_min":100,"x_max":1363,"o":"m 1057 758 q 1280 676 1197 758 q 1363 428 1363 593 l 1363 0 l 1146 0 l 1146 394 q 1109 527 1146 483 q 1004 571 1072 571 q 883 522 928 571 q 839 375 839 472 l 839 0 l 622 0 l 622 394 q 481 571 622 571 q 361 522 406 571 q 317 375 317 472 l 317 0 l 100 0 l 100 747 l 307 747 l 307 661 q 409 733 349 708 q 542 758 469 758 q 685 727 621 758 q 788 636 749 696 q 903 726 833 694 q 1057 758 974 758 z "},"ṃ":{"ha":1457,"x_min":100,"x_max":1363,"o":"m 1057 758 q 1280 676 1197 758 q 1363 428 1363 593 l 1363 0 l 1146 0 l 1146 394 q 1109 527 1146 483 q 1004 571 1072 571 q 883 522 928 571 q 839 375 839 472 l 839 0 l 622 0 l 622 394 q 481 571 622 571 q 361 522 406 571 q 317 375 317 472 l 317 0 l 100 0 l 100 747 l 307 747 l 307 661 q 409 733 349 708 q 542 758 469 758 q 685 727 621 758 q 788 636 749 696 q 903 726 833 694 q 1057 758 974 758 m 729 -292 q 660 -266 688 -292 q 633 -199 633 -240 q 660 -129 633 -157 q 729 -101 688 -101 q 797 -129 769 -101 q 825 -199 825 -157 q 798 -266 825 -240 q 729 -292 771 -292 z "},"n":{"ha":960,"x_min":100,"x_max":864,"o":"m 554 758 q 778 675 693 758 q 864 428 864 592 l 864 0 l 647 0 l 647 394 q 608 527 647 483 q 496 571 569 571 q 365 520 414 571 q 317 369 317 469 l 317 0 l 100 0 l 100 747 l 307 747 l 307 660 q 414 733 350 707 q 554 758 478 758 z "},"ń":{"ha":960,"x_min":100,"x_max":864,"o":"m 554 758 q 778 675 693 758 q 864 428 864 592 l 864 0 l 647 0 l 647 394 q 608 527 647 483 q 496 571 569 571 q 365 520 414 571 q 317 369 317 469 l 317 0 l 100 0 l 100 747 l 307 747 l 307 660 q 414 733 350 707 q 554 758 478 758 m 544 1043 l 778 1043 l 526 843 l 357 843 l 544 1043 z "},"ŉ":{"ha":1139,"x_min":57,"x_max":1044,"o":"m 60 972 l 201 972 l 171 608 l 57 608 l 60 972 m 735 758 q 959 675 874 758 q 1044 428 1044 592 l 1044 0 l 828 0 l 828 394 q 789 527 828 483 q 676 571 750 571 q 546 520 594 571 q 497 369 497 469 l 497 0 l 281 0 l 281 747 l 488 747 l 488 660 q 594 733 531 707 q 735 758 658 758 z "},"ň":{"ha":960,"x_min":100,"x_max":864,"o":"m 554 758 q 778 675 693 758 q 864 428 864 592 l 864 0 l 647 0 l 647 394 q 608 527 647 483 q 496 571 569 571 q 365 520 414 571 q 317 369 317 469 l 317 0 l 100 0 l 100 747 l 307 747 l 307 660 q 414 733 350 707 q 554 758 478 758 m 763 1043 l 579 843 l 388 843 l 204 1043 l 363 1043 l 483 939 l 604 1043 l 763 1043 z "},"ņ":{"ha":960,"x_min":100,"x_max":864,"o":"m 554 758 q 778 675 693 758 q 864 428 864 592 l 864 0 l 647 0 l 647 394 q 608 527 647 483 q 496 571 569 571 q 365 520 414 571 q 317 369 317 469 l 317 0 l 100 0 l 100 747 l 307 747 l 307 660 q 414 733 350 707 q 554 758 478 758 m 483 -101 q 553 -124 528 -101 q 579 -185 579 -147 q 554 -275 579 -228 l 506 -369 l 404 -369 l 439 -258 q 401 -231 414 -250 q 388 -185 388 -212 q 413 -124 388 -147 q 483 -101 439 -101 z "},"ṅ":{"ha":960,"x_min":100,"x_max":864,"o":"m 554 758 q 778 675 693 758 q 864 428 864 592 l 864 0 l 647 0 l 647 394 q 608 527 647 483 q 496 571 569 571 q 365 520 414 571 q 317 369 317 469 l 317 0 l 100 0 l 100 747 l 307 747 l 307 660 q 414 733 350 707 q 554 758 478 758 m 483 850 q 399 883 432 850 q 367 968 367 917 q 399 1051 367 1018 q 483 1085 432 1085 q 567 1051 535 1085 q 600 968 600 1018 q 567 883 600 917 q 483 850 535 850 z "},"ṇ":{"ha":960,"x_min":100,"x_max":864,"o":"m 554 758 q 778 675 693 758 q 864 428 864 592 l 864 0 l 647 0 l 647 394 q 608 527 647 483 q 496 571 569 571 q 365 520 414 571 q 317 369 317 469 l 317 0 l 100 0 l 100 747 l 307 747 l 307 660 q 414 733 350 707 q 554 758 478 758 m 483 -292 q 415 -266 442 -292 q 388 -199 388 -240 q 415 -129 388 -157 q 483 -101 442 -101 q 551 -129 524 -101 q 579 -199 579 -157 q 552 -266 579 -240 q 483 -292 525 -292 z "},"ŋ":{"ha":960,"x_min":100,"x_max":864,"o":"m 554 758 q 778 675 693 758 q 864 428 864 592 l 864 1 q 790 -205 864 -129 q 583 -281 717 -281 q 408 -239 469 -281 l 467 -82 q 558 -108 504 -108 q 624 -81 601 -108 q 647 0 647 -54 l 647 394 q 608 527 647 483 q 496 571 569 571 q 365 520 414 571 q 317 369 317 469 l 317 0 l 100 0 l 100 747 l 307 747 l 307 660 q 414 733 350 707 q 554 758 478 758 z "},"ǌ":{"ha":1386,"x_min":100,"x_max":1313,"o":"m 554 758 q 778 675 693 758 q 864 428 864 592 l 864 0 l 647 0 l 647 394 q 608 527 647 483 q 496 571 569 571 q 365 520 414 571 q 317 369 317 469 l 317 0 l 100 0 l 100 747 l 307 747 l 307 660 q 414 733 350 707 q 554 758 478 758 m 1004 -281 q 831 -239 890 -281 l 889 -82 q 981 -108 926 -108 q 1046 -81 1022 -108 q 1069 0 1069 -54 l 1069 747 l 1286 747 l 1286 1 q 1212 -205 1286 -129 q 1004 -281 1138 -281 m 1178 851 q 1081 886 1118 851 q 1043 972 1043 921 q 1081 1058 1043 1024 q 1178 1093 1118 1093 q 1275 1060 1238 1093 q 1313 976 1313 1026 q 1275 887 1313 922 q 1178 851 1238 851 z "},"ṉ":{"ha":960,"x_min":100,"x_max":864,"o":"m 554 758 q 778 675 693 758 q 864 428 864 592 l 864 0 l 647 0 l 647 394 q 608 527 647 483 q 496 571 569 571 q 365 520 414 571 q 317 369 317 469 l 317 0 l 100 0 l 100 747 l 307 747 l 307 660 q 414 733 350 707 q 554 758 478 758 m 226 -132 l 740 -132 l 740 -253 l 226 -253 l 226 -132 z "},"ñ":{"ha":960,"x_min":100,"x_max":864,"o":"m 554 758 q 778 675 693 758 q 864 428 864 592 l 864 0 l 647 0 l 647 394 q 608 527 647 483 q 496 571 569 571 q 365 520 414 571 q 317 369 317 469 l 317 0 l 100 0 l 100 747 l 307 747 l 307 660 q 414 733 350 707 q 554 758 478 758 m 588 839 q 522 853 550 839 q 458 893 493 868 q 422 918 436 910 q 393 926 407 926 q 346 906 364 926 q 326 849 328 886 l 217 849 q 263 997 219 942 q 379 1051 307 1051 q 444 1037 415 1051 q 508 996 472 1022 q 545 971 531 979 q 574 963 560 963 q 620 983 601 963 q 640 1038 639 1003 l 750 1038 q 703 893 747 947 q 588 839 660 839 z "},"o":{"ha":910,"x_min":44,"x_max":865,"o":"m 456 -11 q 244 38 338 -11 q 97 175 150 88 q 44 374 44 263 q 97 572 44 485 q 244 709 150 660 q 456 758 338 758 q 667 709 574 758 q 813 572 760 660 q 865 374 865 485 q 813 175 865 263 q 667 38 760 88 q 456 -11 574 -11 m 456 167 q 592 223 539 167 q 646 374 646 279 q 592 524 646 468 q 456 581 539 581 q 318 524 372 581 q 264 374 264 468 q 318 223 264 279 q 456 167 372 167 z "},"ó":{"ha":910,"x_min":44,"x_max":865,"o":"m 456 -11 q 244 38 338 -11 q 97 175 150 88 q 44 374 44 263 q 97 572 44 485 q 244 709 150 660 q 456 758 338 758 q 667 709 574 758 q 813 572 760 660 q 865 374 865 485 q 813 175 865 263 q 667 38 760 88 q 456 -11 574 -11 m 456 167 q 592 223 539 167 q 646 374 646 279 q 592 524 646 468 q 456 581 539 581 q 318 524 372 581 q 264 374 264 468 q 318 223 264 279 q 456 167 372 167 m 514 1043 l 747 1043 l 496 843 l 326 843 l 514 1043 z "},"ŏ":{"ha":910,"x_min":44,"x_max":865,"o":"m 456 -11 q 244 38 338 -11 q 97 175 150 88 q 44 374 44 263 q 97 572 44 485 q 244 709 150 660 q 456 758 338 758 q 667 709 574 758 q 813 572 760 660 q 865 374 865 485 q 813 175 865 263 q 667 38 760 88 q 456 -11 574 -11 m 456 167 q 592 223 539 167 q 646 374 646 279 q 592 524 646 468 q 456 581 539 581 q 318 524 372 581 q 264 374 264 468 q 318 223 264 279 q 456 167 372 167 m 453 832 q 272 889 343 832 q 197 1043 201 946 l 333 1043 q 369 972 335 999 q 453 944 403 944 q 537 972 503 944 q 572 1043 571 999 l 708 1043 q 633 889 704 946 q 453 832 563 832 z "},"ô":{"ha":910,"x_min":44,"x_max":865,"o":"m 456 -11 q 244 38 338 -11 q 97 175 150 88 q 44 374 44 263 q 97 572 44 485 q 244 709 150 660 q 456 758 338 758 q 667 709 574 758 q 813 572 760 660 q 865 374 865 485 q 813 175 865 263 q 667 38 760 88 q 456 -11 574 -11 m 456 167 q 592 223 539 167 q 646 374 646 279 q 592 524 646 468 q 456 581 539 581 q 318 524 372 581 q 264 374 264 468 q 318 223 264 279 q 456 167 372 167 m 574 843 l 453 949 l 332 843 l 174 843 l 357 1043 l 549 1043 l 732 843 l 574 843 z "},"ố":{"ha":910,"x_min":44,"x_max":994,"o":"m 456 -11 q 244 38 338 -11 q 97 175 150 88 q 44 374 44 263 q 97 572 44 485 q 244 709 150 660 q 456 758 338 758 q 667 709 574 758 q 813 572 760 660 q 865 374 865 485 q 813 175 865 263 q 667 38 760 88 q 456 -11 574 -11 m 456 167 q 592 223 539 167 q 646 374 646 279 q 592 524 646 468 q 456 581 539 581 q 318 524 372 581 q 264 374 264 468 q 318 223 264 279 q 456 167 372 167 m 572 843 l 453 922 l 333 843 l 174 843 l 358 1001 l 547 1001 l 732 843 l 572 843 m 774 1144 l 994 1144 l 776 976 l 619 976 l 774 1144 z "},"ộ":{"ha":910,"x_min":44,"x_max":865,"o":"m 456 -11 q 244 38 338 -11 q 97 175 150 88 q 44 374 44 263 q 97 572 44 485 q 244 709 150 660 q 456 758 338 758 q 667 709 574 758 q 813 572 760 660 q 865 374 865 485 q 813 175 865 263 q 667 38 760 88 q 456 -11 574 -11 m 456 167 q 592 223 539 167 q 646 374 646 279 q 592 524 646 468 q 456 581 539 581 q 318 524 372 581 q 264 374 264 468 q 318 223 264 279 q 456 167 372 167 m 453 -292 q 384 -266 411 -292 q 357 -199 357 -240 q 384 -129 357 -157 q 453 -101 411 -101 q 521 -129 493 -101 q 549 -199 549 -157 q 522 -266 549 -240 q 453 -292 494 -292 m 574 843 l 453 949 l 332 843 l 174 843 l 357 1043 l 549 1043 l 732 843 l 574 843 z "},"ồ":{"ha":910,"x_min":44,"x_max":865,"o":"m 456 -11 q 244 38 338 -11 q 97 175 150 88 q 44 374 44 263 q 97 572 44 485 q 244 709 150 660 q 456 758 338 758 q 667 709 574 758 q 813 572 760 660 q 865 374 865 485 q 813 175 865 263 q 667 38 760 88 q 456 -11 574 -11 m 456 167 q 592 223 539 167 q 646 374 646 279 q 592 524 646 468 q 456 581 539 581 q 318 524 372 581 q 264 374 264 468 q 318 223 264 279 q 456 167 372 167 m 572 843 l 453 922 l 333 843 l 174 843 l 358 1001 l 547 1001 l 732 843 l 572 843 m 485 1144 l 706 1144 l 858 976 l 703 976 l 485 1144 z "},"ổ":{"ha":910,"x_min":44,"x_max":865,"o":"m 456 -11 q 244 38 338 -11 q 97 175 150 88 q 44 374 44 263 q 97 572 44 485 q 244 709 150 660 q 456 758 338 758 q 667 709 574 758 q 813 572 760 660 q 865 374 865 485 q 813 175 865 263 q 667 38 760 88 q 456 -11 574 -11 m 456 167 q 592 223 539 167 q 646 374 646 279 q 592 524 646 468 q 456 581 539 581 q 318 524 372 581 q 264 374 264 468 q 318 223 264 279 q 456 167 372 167 m 572 843 l 453 922 l 333 843 l 174 843 l 358 1001 l 547 1001 l 732 843 l 572 843 m 647 1001 q 699 1060 699 1026 q 685 1089 699 1078 q 651 1100 672 1100 q 590 1083 622 1100 l 554 1150 q 669 1181 601 1181 q 763 1151 728 1181 q 797 1071 797 1121 q 770 999 797 1031 q 700 950 743 967 l 647 1001 z "},"ỗ":{"ha":910,"x_min":44,"x_max":865,"o":"m 456 -11 q 244 38 338 -11 q 97 175 150 88 q 44 374 44 263 q 97 572 44 485 q 244 709 150 660 q 456 758 338 758 q 667 709 574 758 q 813 572 760 660 q 865 374 865 485 q 813 175 865 263 q 667 38 760 88 q 456 -11 574 -11 m 456 167 q 592 223 539 167 q 646 374 646 279 q 592 524 646 468 q 456 581 539 581 q 318 524 372 581 q 264 374 264 468 q 318 223 264 279 q 456 167 372 167 m 572 843 l 453 922 l 333 843 l 174 843 l 358 1001 l 547 1001 l 732 843 l 572 843 m 556 1050 q 489 1062 518 1050 q 425 1096 460 1074 q 392 1114 408 1106 q 364 1122 376 1122 q 321 1106 336 1122 q 303 1058 306 1089 l 192 1058 q 235 1187 193 1142 q 353 1232 278 1232 q 415 1221 389 1232 q 479 1188 440 1210 q 516 1167 501 1174 q 544 1160 531 1160 q 588 1177 572 1160 q 606 1222 603 1194 l 714 1222 q 671 1096 713 1142 q 556 1050 629 1050 z "},"ȍ":{"ha":910,"x_min":44,"x_max":865,"o":"m 456 -11 q 244 38 338 -11 q 97 175 150 88 q 44 374 44 263 q 97 572 44 485 q 244 709 150 660 q 456 758 338 758 q 667 709 574 758 q 813 572 760 660 q 865 374 865 485 q 813 175 865 263 q 667 38 760 88 q 456 -11 574 -11 m 456 167 q 592 223 539 167 q 646 374 646 279 q 592 524 646 468 q 456 581 539 581 q 318 524 372 581 q 264 374 264 468 q 318 223 264 279 q 456 167 372 167 m 89 1043 l 292 1043 l 392 843 l 233 843 l 89 1043 m 369 1043 l 572 1043 l 672 843 l 514 843 l 369 1043 z "},"ö":{"ha":910,"x_min":44,"x_max":865,"o":"m 456 -11 q 244 38 338 -11 q 97 175 150 88 q 44 374 44 263 q 97 572 44 485 q 244 709 150 660 q 456 758 338 758 q 667 709 574 758 q 813 572 760 660 q 865 374 865 485 q 813 175 865 263 q 667 38 760 88 q 456 -11 574 -11 m 456 167 q 592 223 539 167 q 646 374 646 279 q 592 524 646 468 q 456 581 539 581 q 318 524 372 581 q 264 374 264 468 q 318 223 264 279 q 456 167 372 167 m 313 850 q 243 877 271 850 q 215 946 215 904 q 243 1015 215 988 q 313 1042 271 1042 q 381 1015 354 1042 q 408 946 408 988 q 381 877 408 904 q 313 850 354 850 m 593 850 q 524 877 551 850 q 497 946 497 904 q 524 1015 497 988 q 593 1042 551 1042 q 663 1015 635 1042 q 690 946 690 988 q 663 877 690 904 q 593 850 635 850 z "},"ȫ":{"ha":910,"x_min":44,"x_max":865,"o":"m 456 -11 q 244 38 338 -11 q 97 175 150 88 q 44 374 44 263 q 97 572 44 485 q 244 709 150 660 q 456 758 338 758 q 667 709 574 758 q 813 572 760 660 q 865 374 865 485 q 813 175 865 263 q 667 38 760 88 q 456 -11 574 -11 m 456 167 q 592 223 539 167 q 646 374 646 279 q 592 524 646 468 q 456 581 539 581 q 318 524 372 581 q 264 374 264 468 q 318 223 264 279 q 456 167 372 167 m 317 850 q 251 876 278 850 q 225 942 225 901 q 251 1007 225 981 q 317 1033 278 1033 q 383 1007 357 1033 q 410 942 410 981 q 383 876 410 901 q 317 850 357 850 m 589 850 q 524 876 550 850 q 497 942 497 901 q 524 1007 497 981 q 589 1033 551 1033 q 654 1007 628 1033 q 681 942 681 981 q 654 876 681 901 q 589 850 628 850 m 196 1204 l 710 1204 l 710 1089 l 196 1089 l 196 1204 z "},"ȱ":{"ha":910,"x_min":44,"x_max":865,"o":"m 456 -11 q 244 38 338 -11 q 97 175 150 88 q 44 374 44 263 q 97 572 44 485 q 244 709 150 660 q 456 758 338 758 q 667 709 574 758 q 813 572 760 660 q 865 374 865 485 q 813 175 865 263 q 667 38 760 88 q 456 -11 574 -11 m 456 167 q 592 223 539 167 q 646 374 646 279 q 592 524 646 468 q 456 581 539 581 q 318 524 372 581 q 264 374 264 468 q 318 223 264 279 q 456 167 372 167 m 453 849 q 384 875 411 849 q 357 943 357 901 q 384 1012 357 985 q 453 1039 411 1039 q 522 1012 494 1039 q 549 943 549 985 q 522 875 549 901 q 453 849 494 849 m 196 1214 l 710 1214 l 710 1099 l 196 1099 l 196 1214 z "},"ọ":{"ha":910,"x_min":44,"x_max":865,"o":"m 456 -11 q 244 38 338 -11 q 97 175 150 88 q 44 374 44 263 q 97 572 44 485 q 244 709 150 660 q 456 758 338 758 q 667 709 574 758 q 813 572 760 660 q 865 374 865 485 q 813 175 865 263 q 667 38 760 88 q 456 -11 574 -11 m 456 167 q 592 223 539 167 q 646 374 646 279 q 592 524 646 468 q 456 581 539 581 q 318 524 372 581 q 264 374 264 468 q 318 223 264 279 q 456 167 372 167 m 453 -292 q 384 -266 411 -292 q 357 -199 357 -240 q 384 -129 357 -157 q 453 -101 411 -101 q 521 -129 493 -101 q 549 -199 549 -157 q 522 -266 549 -240 q 453 -292 494 -292 z "},"ò":{"ha":910,"x_min":44,"x_max":865,"o":"m 456 -11 q 244 38 338 -11 q 97 175 150 88 q 44 374 44 263 q 97 572 44 485 q 244 709 150 660 q 456 758 338 758 q 667 709 574 758 q 813 572 760 660 q 865 374 865 485 q 813 175 865 263 q 667 38 760 88 q 456 -11 574 -11 m 456 167 q 592 223 539 167 q 646 374 646 279 q 592 524 646 468 q 456 581 539 581 q 318 524 372 581 q 264 374 264 468 q 318 223 264 279 q 456 167 372 167 m 158 1043 l 392 1043 l 579 843 l 410 843 l 158 1043 z "},"ỏ":{"ha":910,"x_min":44,"x_max":865,"o":"m 456 -11 q 244 38 338 -11 q 97 175 150 88 q 44 374 44 263 q 97 572 44 485 q 244 709 150 660 q 456 758 338 758 q 667 709 574 758 q 813 572 760 660 q 865 374 865 485 q 813 175 865 263 q 667 38 760 88 q 456 -11 574 -11 m 456 167 q 592 223 539 167 q 646 374 646 279 q 592 524 646 468 q 456 581 539 581 q 318 524 372 581 q 264 374 264 468 q 318 223 264 279 q 456 167 372 167 m 426 901 q 481 940 465 919 q 497 986 497 961 q 479 1028 497 1013 q 432 1044 461 1044 q 350 1018 390 1044 l 306 1106 q 456 1153 365 1153 q 576 1112 529 1153 q 622 1004 622 1071 q 494 829 622 888 l 426 901 z "},"ơ":{"ha":910,"x_min":44,"x_max":865,"o":"m 750 649 q 835 527 806 597 q 865 374 865 457 q 813 175 865 263 q 667 38 760 88 q 456 -11 574 -11 q 244 38 338 -11 q 97 175 150 88 q 44 374 44 263 q 98 572 44 485 q 245 709 151 660 q 457 758 339 758 q 554 751 485 758 q 622 746 601 746 q 688 771 665 746 q 711 836 711 796 q 682 919 711 881 l 808 967 q 856 828 856 903 q 828 722 856 768 q 750 649 800 675 m 456 167 q 592 223 538 167 q 646 374 646 279 q 592 524 646 468 q 456 581 539 581 q 318 524 372 581 q 264 374 264 468 q 318 223 264 279 q 456 167 372 167 z "},"ớ":{"ha":910,"x_min":44,"x_max":865,"o":"m 750 649 q 835 527 806 597 q 865 374 865 457 q 813 175 865 263 q 667 38 760 88 q 456 -11 574 -11 q 244 38 338 -11 q 97 175 150 88 q 44 374 44 263 q 98 572 44 485 q 245 709 151 660 q 457 758 339 758 q 554 751 485 758 q 622 746 601 746 q 688 771 665 746 q 711 836 711 796 q 682 919 711 881 l 808 967 q 856 828 856 903 q 828 722 856 768 q 750 649 800 675 m 456 167 q 592 223 538 167 q 646 374 646 279 q 592 524 646 468 q 456 581 539 581 q 318 524 372 581 q 264 374 264 468 q 318 223 264 279 q 456 167 372 167 m 517 1043 l 750 1043 l 499 843 l 329 843 l 517 1043 z "},"ợ":{"ha":910,"x_min":44,"x_max":865,"o":"m 750 649 q 835 527 806 597 q 865 374 865 457 q 813 175 865 263 q 667 38 760 88 q 456 -11 574 -11 q 244 38 338 -11 q 97 175 150 88 q 44 374 44 263 q 98 572 44 485 q 245 709 151 660 q 457 758 339 758 q 554 751 485 758 q 622 746 601 746 q 688 771 665 746 q 711 836 711 796 q 682 919 711 881 l 808 967 q 856 828 856 903 q 828 722 856 768 q 750 649 800 675 m 456 167 q 592 223 538 167 q 646 374 646 279 q 592 524 646 468 q 456 581 539 581 q 318 524 372 581 q 264 374 264 468 q 318 223 264 279 q 456 167 372 167 m 456 -292 q 387 -266 414 -292 q 360 -199 360 -240 q 387 -129 360 -157 q 456 -101 414 -101 q 524 -129 496 -101 q 551 -199 551 -157 q 524 -266 551 -240 q 456 -292 497 -292 z "},"ờ":{"ha":910,"x_min":44,"x_max":865,"o":"m 750 649 q 835 527 806 597 q 865 374 865 457 q 813 175 865 263 q 667 38 760 88 q 456 -11 574 -11 q 244 38 338 -11 q 97 175 150 88 q 44 374 44 263 q 98 572 44 485 q 245 709 151 660 q 457 758 339 758 q 554 751 485 758 q 622 746 601 746 q 688 771 665 746 q 711 836 711 796 q 682 919 711 881 l 808 967 q 856 828 856 903 q 828 722 856 768 q 750 649 800 675 m 456 167 q 592 223 538 167 q 646 374 646 279 q 592 524 646 468 q 456 581 539 581 q 318 524 372 581 q 264 374 264 468 q 318 223 264 279 q 456 167 372 167 m 161 1043 l 394 1043 l 582 843 l 413 843 l 161 1043 z "},"ở":{"ha":910,"x_min":44,"x_max":865,"o":"m 750 649 q 835 527 806 597 q 865 374 865 457 q 813 175 865 263 q 667 38 760 88 q 456 -11 574 -11 q 244 38 338 -11 q 97 175 150 88 q 44 374 44 263 q 98 572 44 485 q 245 709 151 660 q 457 758 339 758 q 554 751 485 758 q 622 746 601 746 q 688 771 665 746 q 711 836 711 796 q 682 919 711 881 l 808 967 q 856 828 856 903 q 828 722 856 768 q 750 649 800 675 m 456 167 q 592 223 538 167 q 646 374 646 279 q 592 524 646 468 q 456 581 539 581 q 318 524 372 581 q 264 374 264 468 q 318 223 264 279 q 456 167 372 167 m 429 901 q 484 940 468 919 q 500 986 500 961 q 482 1028 500 1013 q 435 1044 464 1044 q 353 1018 393 1044 l 308 1106 q 458 1153 368 1153 q 578 1112 532 1153 q 625 1004 625 1071 q 497 829 625 888 l 429 901 z "},"ỡ":{"ha":910,"x_min":44,"x_max":865,"o":"m 750 649 q 835 527 806 597 q 865 374 865 457 q 813 175 865 263 q 667 38 760 88 q 456 -11 574 -11 q 244 38 338 -11 q 97 175 150 88 q 44 374 44 263 q 98 572 44 485 q 245 709 151 660 q 457 758 339 758 q 554 751 485 758 q 622 746 601 746 q 688 771 665 746 q 711 836 711 796 q 682 919 711 881 l 808 967 q 856 828 856 903 q 828 722 856 768 q 750 649 800 675 m 456 167 q 592 223 538 167 q 646 374 646 279 q 592 524 646 468 q 456 581 539 581 q 318 524 372 581 q 264 374 264 468 q 318 223 264 279 q 456 167 372 167 m 533 839 q 476 853 500 839 q 421 893 451 868 q 389 918 402 910 q 364 926 376 926 q 323 906 339 926 q 306 849 308 886 l 211 849 q 251 997 213 942 q 352 1051 289 1051 q 408 1037 383 1051 q 464 996 433 1022 q 496 971 484 979 q 521 963 509 963 q 561 983 545 963 q 579 1038 578 1003 l 674 1038 q 634 893 672 947 q 533 839 596 839 z "},"ő":{"ha":910,"x_min":44,"x_max":865,"o":"m 456 -11 q 244 38 338 -11 q 97 175 150 88 q 44 374 44 263 q 97 572 44 485 q 244 709 150 660 q 456 758 338 758 q 667 709 574 758 q 813 572 760 660 q 865 374 865 485 q 813 175 865 263 q 667 38 760 88 q 456 -11 574 -11 m 456 167 q 592 223 539 167 q 646 374 646 279 q 592 524 646 468 q 456 581 539 581 q 318 524 372 581 q 264 374 264 468 q 318 223 264 279 q 456 167 372 167 m 333 1043 l 536 1043 l 392 843 l 233 843 l 333 1043 m 614 1043 l 817 1043 l 672 843 l 514 843 l 614 1043 z "},"ȏ":{"ha":910,"x_min":44,"x_max":865,"o":"m 456 -11 q 244 38 338 -11 q 97 175 150 88 q 44 374 44 263 q 97 572 44 485 q 244 709 150 660 q 456 758 338 758 q 667 709 574 758 q 813 572 760 660 q 865 374 865 485 q 813 175 865 263 q 667 38 760 88 q 456 -11 574 -11 m 456 167 q 592 223 539 167 q 646 374 646 279 q 592 524 646 468 q 456 581 539 581 q 318 524 372 581 q 264 374 264 468 q 318 223 264 279 q 456 167 372 167 m 197 843 q 272 997 201 940 q 453 1054 343 1054 q 633 997 563 1054 q 708 843 704 940 l 572 843 q 537 915 571 888 q 453 942 503 942 q 369 915 403 942 q 333 843 335 888 l 197 843 z "},"ō":{"ha":910,"x_min":44,"x_max":865,"o":"m 456 -11 q 244 38 338 -11 q 97 175 150 88 q 44 374 44 263 q 97 572 44 485 q 244 709 150 660 q 456 758 338 758 q 667 709 574 758 q 813 572 760 660 q 865 374 865 485 q 813 175 865 263 q 667 38 760 88 q 456 -11 574 -11 m 456 167 q 592 223 539 167 q 646 374 646 279 q 592 524 646 468 q 456 581 539 581 q 318 524 372 581 q 264 374 264 468 q 318 223 264 279 q 456 167 372 167 m 196 1004 l 710 1004 l 710 882 l 196 882 l 196 1004 z "},"ṓ":{"ha":910,"x_min":44,"x_max":865,"o":"m 456 -11 q 244 38 338 -11 q 97 175 150 88 q 44 374 44 263 q 97 572 44 485 q 244 709 150 660 q 456 758 338 758 q 667 709 574 758 q 813 572 760 660 q 865 374 865 485 q 813 175 865 263 q 667 38 760 88 q 456 -11 574 -11 m 456 167 q 592 223 539 167 q 646 374 646 279 q 592 524 646 468 q 456 581 539 581 q 318 524 372 581 q 264 374 264 468 q 318 223 264 279 q 456 167 372 167 m 196 981 l 710 981 l 710 865 l 196 865 l 196 981 m 488 1235 l 708 1235 l 490 1067 l 333 1067 l 488 1235 z "},"ṑ":{"ha":910,"x_min":44,"x_max":865,"o":"m 456 -11 q 244 38 338 -11 q 97 175 150 88 q 44 374 44 263 q 97 572 44 485 q 244 709 150 660 q 456 758 338 758 q 667 709 574 758 q 813 572 760 660 q 865 374 865 485 q 813 175 865 263 q 667 38 760 88 q 456 -11 574 -11 m 456 167 q 592 223 539 167 q 646 374 646 279 q 592 524 646 468 q 456 581 539 581 q 318 524 372 581 q 264 374 264 468 q 318 223 264 279 q 456 167 372 167 m 196 981 l 710 981 l 710 865 l 196 865 l 196 981 m 199 1235 l 419 1235 l 572 1067 l 417 1067 l 199 1235 z "},"ǫ":{"ha":910,"x_min":44,"x_max":865,"o":"m 622 18 q 481 -63 521 -22 q 442 -147 442 -104 q 463 -194 442 -176 q 522 -212 485 -212 q 606 -192 568 -212 l 638 -290 q 573 -313 611 -304 q 497 -322 535 -322 q 356 -280 407 -322 q 306 -168 306 -237 q 394 -7 306 -74 q 213 57 292 6 q 89 190 133 108 q 44 374 44 272 q 97 572 44 485 q 244 709 150 660 q 456 758 338 758 q 667 709 574 758 q 813 572 760 660 q 865 374 865 485 q 800 158 865 251 q 622 18 735 65 m 264 374 q 318 223 264 279 q 456 167 372 167 q 592 223 539 167 q 646 374 646 279 q 592 524 646 468 q 456 581 539 581 q 318 524 372 581 q 264 374 264 468 z "},"ø":{"ha":910,"x_min":44,"x_max":865,"o":"m 456 -11 q 244 38 338 -11 q 97 175 150 88 q 44 374 44 263 q 97 572 44 485 q 244 709 150 660 q 456 758 338 758 q 667 709 574 758 q 813 572 760 660 q 865 374 865 485 q 813 175 865 263 q 667 38 760 88 q 456 -11 574 -11 m 456 167 q 592 223 539 167 q 646 374 646 279 q 592 524 646 468 q 456 581 539 581 q 318 524 372 581 q 264 374 264 468 q 318 223 264 279 q 456 167 372 167 m 704 839 l 813 839 l 200 -99 l 93 -99 l 704 839 z "},"ǿ":{"ha":910,"x_min":44,"x_max":865,"o":"m 456 -11 q 244 38 338 -11 q 97 175 150 88 q 44 374 44 263 q 97 572 44 485 q 244 709 150 660 q 456 758 338 758 q 667 709 574 758 q 813 572 760 660 q 865 374 865 485 q 813 175 865 263 q 667 38 760 88 q 456 -11 574 -11 m 456 167 q 592 223 539 167 q 646 374 646 279 q 592 524 646 468 q 456 581 539 581 q 318 524 372 581 q 264 374 264 468 q 318 223 264 279 q 456 167 372 167 m 704 839 l 813 839 l 200 -99 l 93 -99 l 704 839 m 510 1043 l 743 1043 l 492 843 l 322 843 l 510 1043 z "},"õ":{"ha":910,"x_min":44,"x_max":865,"o":"m 456 -11 q 244 38 338 -11 q 97 175 150 88 q 44 374 44 263 q 97 572 44 485 q 244 709 150 660 q 456 758 338 758 q 667 709 574 758 q 813 572 760 660 q 865 374 865 485 q 813 175 865 263 q 667 38 760 88 q 456 -11 574 -11 m 456 167 q 592 223 539 167 q 646 374 646 279 q 592 524 646 468 q 456 581 539 581 q 318 524 372 581 q 264 374 264 468 q 318 223 264 279 q 456 167 372 167 m 557 839 q 491 853 519 839 q 428 893 463 868 q 391 918 406 910 q 363 926 376 926 q 315 906 333 926 q 296 849 297 886 l 186 849 q 233 997 189 942 q 349 1051 276 1051 q 413 1037 385 1051 q 478 996 442 1022 q 515 971 500 979 q 543 963 529 963 q 590 983 571 963 q 610 1038 608 1003 l 719 1038 q 673 893 717 947 q 557 839 629 839 z "},"ṍ":{"ha":910,"x_min":44,"x_max":865,"o":"m 456 -11 q 244 38 338 -11 q 97 175 150 88 q 44 374 44 263 q 97 572 44 485 q 244 709 150 660 q 456 758 338 758 q 667 709 574 758 q 813 572 760 660 q 865 374 865 485 q 813 175 865 263 q 667 38 760 88 q 456 -11 574 -11 m 456 167 q 592 223 539 167 q 646 374 646 279 q 592 524 646 468 q 456 581 539 581 q 318 524 372 581 q 264 374 264 468 q 318 223 264 279 q 456 167 372 167 m 556 840 q 489 852 518 840 q 425 886 460 864 q 392 904 408 896 q 364 913 376 913 q 321 896 336 913 q 303 849 306 879 l 192 849 q 235 977 193 932 q 353 1022 278 1022 q 415 1011 389 1022 q 479 978 440 1000 q 516 957 501 964 q 544 950 531 950 q 588 967 572 950 q 606 1013 603 985 l 714 1013 q 671 886 713 932 q 556 840 629 840 m 488 1235 l 708 1235 l 490 1067 l 333 1067 l 488 1235 z "},"ṏ":{"ha":910,"x_min":44,"x_max":865,"o":"m 456 -11 q 244 38 338 -11 q 97 175 150 88 q 44 374 44 263 q 97 572 44 485 q 244 709 150 660 q 456 758 338 758 q 667 709 574 758 q 813 572 760 660 q 865 374 865 485 q 813 175 865 263 q 667 38 760 88 q 456 -11 574 -11 m 456 167 q 592 223 539 167 q 646 374 646 279 q 592 524 646 468 q 456 581 539 581 q 318 524 372 581 q 264 374 264 468 q 318 223 264 279 q 456 167 372 167 m 556 840 q 489 852 518 840 q 425 886 460 864 q 392 904 408 896 q 364 913 376 913 q 321 896 336 913 q 303 849 306 879 l 192 849 q 235 977 193 932 q 353 1022 278 1022 q 415 1011 389 1022 q 479 978 440 1000 q 516 957 501 964 q 544 950 531 950 q 588 967 572 950 q 606 1013 603 985 l 714 1013 q 671 886 713 932 q 556 840 629 840 m 317 1074 q 251 1099 278 1074 q 225 1165 225 1125 q 251 1231 225 1204 q 317 1257 278 1257 q 383 1231 357 1257 q 410 1165 410 1204 q 383 1099 410 1125 q 317 1074 357 1074 m 589 1074 q 524 1099 550 1074 q 497 1165 497 1125 q 524 1231 497 1204 q 589 1257 551 1257 q 654 1231 628 1257 q 681 1165 681 1204 q 654 1099 681 1125 q 589 1074 628 1074 z "},"ȭ":{"ha":910,"x_min":44,"x_max":865,"o":"m 456 -11 q 244 38 338 -11 q 97 175 150 88 q 44 374 44 263 q 97 572 44 485 q 244 709 150 660 q 456 758 338 758 q 667 709 574 758 q 813 572 760 660 q 865 374 865 485 q 813 175 865 263 q 667 38 760 88 q 456 -11 574 -11 m 456 167 q 592 223 539 167 q 646 374 646 279 q 592 524 646 468 q 456 581 539 581 q 318 524 372 581 q 264 374 264 468 q 318 223 264 279 q 456 167 372 167 m 556 840 q 489 852 518 840 q 425 886 460 864 q 392 904 408 896 q 364 913 376 913 q 321 896 336 913 q 303 849 306 879 l 192 849 q 235 977 193 932 q 353 1022 278 1022 q 415 1011 389 1022 q 479 978 440 1000 q 516 957 501 964 q 544 950 531 950 q 588 967 572 950 q 606 1013 603 985 l 714 1013 q 671 886 713 932 q 556 840 629 840 m 196 1204 l 710 1204 l 710 1089 l 196 1089 l 196 1204 z "},"œ":{"ha":1478,"x_min":44,"x_max":1433,"o":"m 1433 372 q 1429 313 1433 340 l 863 313 q 935 202 878 242 q 1078 163 992 163 q 1178 181 1133 163 q 1264 235 1224 199 l 1381 110 q 1249 19 1328 50 q 1071 -11 1169 -11 q 887 23 968 -11 q 753 118 806 57 q 624 23 700 57 q 453 -11 547 -11 q 243 38 336 -11 q 97 175 150 88 q 44 374 44 263 q 97 572 44 485 q 243 709 150 660 q 453 758 336 758 q 624 725 547 758 q 751 631 701 692 q 877 725 801 692 q 1044 758 953 758 q 1242 711 1154 758 q 1382 576 1331 664 q 1433 372 1433 489 m 1044 594 q 921 553 971 594 q 860 439 871 511 l 1226 439 q 1167 552 1215 510 q 1044 594 1118 594 m 456 167 q 592 223 539 167 q 646 374 646 279 q 592 524 646 468 q 456 581 539 581 q 318 524 372 581 q 264 374 264 468 q 318 223 264 279 q 456 167 372 167 z "},"p":{"ha":958,"x_min":100,"x_max":914,"o":"m 542 758 q 731 710 646 758 q 865 576 817 663 q 914 374 914 489 q 865 172 914 258 q 731 37 817 85 q 542 -11 646 -11 q 317 79 399 -11 l 317 -269 l 100 -269 l 100 747 l 307 747 l 307 661 q 542 758 388 758 m 504 167 q 641 223 588 167 q 694 374 694 279 q 641 524 694 468 q 504 581 588 581 q 367 524 421 581 q 314 374 314 468 q 367 223 314 279 q 504 167 421 167 z "},"þ":{"ha":958,"x_min":100,"x_max":914,"o":"m 542 758 q 731 710 646 758 q 865 576 817 663 q 914 374 914 489 q 865 172 914 258 q 731 37 817 85 q 542 -11 646 -11 q 317 79 399 -11 l 317 -269 l 100 -269 l 100 1031 l 317 1031 l 317 672 q 542 758 397 758 m 504 167 q 641 223 588 167 q 694 374 694 279 q 641 524 694 468 q 504 581 588 581 q 367 524 421 581 q 314 374 314 468 q 367 223 314 279 q 504 167 421 167 z "},"q":{"ha":958,"x_min":44,"x_max":858,"o":"m 858 747 l 858 -269 l 642 -269 l 642 79 q 418 -11 561 -11 q 227 36 313 -11 q 93 171 142 83 q 44 374 44 258 q 93 576 44 489 q 227 711 142 664 q 418 758 313 758 q 651 661 571 758 l 651 747 l 858 747 m 456 167 q 592 223 538 167 q 646 374 646 279 q 592 524 646 468 q 456 581 538 581 q 318 524 372 581 q 264 374 264 468 q 318 223 264 279 q 456 167 372 167 z "},"r":{"ha":599,"x_min":100,"x_max":564,"o":"m 307 649 q 412 731 346 703 q 564 758 478 758 l 564 558 q 515 561 528 561 q 369 509 422 561 q 317 353 317 457 l 317 0 l 100 0 l 100 747 l 307 747 l 307 649 z "},"ŕ":{"ha":599,"x_min":100,"x_max":626,"o":"m 307 649 q 412 731 346 703 q 564 758 478 758 l 564 558 q 515 561 528 561 q 369 509 422 561 q 317 353 317 457 l 317 0 l 100 0 l 100 747 l 307 747 l 307 649 m 393 1043 l 626 1043 l 375 843 l 206 843 l 393 1043 z "},"ř":{"ha":599,"x_min":53,"x_max":611,"o":"m 307 649 q 412 731 346 703 q 564 758 478 758 l 564 558 q 515 561 528 561 q 369 509 422 561 q 317 353 317 457 l 317 0 l 100 0 l 100 747 l 307 747 l 307 649 m 611 1043 l 428 843 l 236 843 l 53 1043 l 211 1043 l 332 939 l 453 1043 l 611 1043 z "},"ŗ":{"ha":599,"x_min":100,"x_max":564,"o":"m 307 649 q 412 731 346 703 q 564 758 478 758 l 564 558 q 515 561 528 561 q 369 509 422 561 q 317 353 317 457 l 317 0 l 100 0 l 100 747 l 307 747 l 307 649 m 208 -101 q 278 -124 253 -101 q 304 -185 304 -147 q 279 -275 304 -228 l 231 -369 l 129 -369 l 164 -258 q 126 -231 139 -250 q 113 -185 113 -212 q 138 -124 113 -147 q 208 -101 164 -101 z "},"ȑ":{"ha":599,"x_min":-32,"x_max":564,"o":"m 307 649 q 412 731 346 703 q 564 758 478 758 l 564 558 q 515 561 528 561 q 369 509 422 561 q 317 353 317 457 l 317 0 l 100 0 l 100 747 l 307 747 l 307 649 m -32 1043 l 171 1043 l 271 843 l 113 843 l -32 1043 m 249 1043 l 451 1043 l 551 843 l 393 843 l 249 1043 z "},"ṛ":{"ha":599,"x_min":100,"x_max":564,"o":"m 307 649 q 412 731 346 703 q 564 758 478 758 l 564 558 q 515 561 528 561 q 369 509 422 561 q 317 353 317 457 l 317 0 l 100 0 l 100 747 l 307 747 l 307 649 m 208 -292 q 140 -266 167 -292 q 113 -199 113 -240 q 140 -129 113 -157 q 208 -101 167 -101 q 276 -129 249 -101 q 304 -199 304 -157 q 277 -266 304 -240 q 208 -292 250 -292 z "},"ȓ":{"ha":599,"x_min":76,"x_max":588,"o":"m 307 649 q 412 731 346 703 q 564 758 478 758 l 564 558 q 515 561 528 561 q 369 509 422 561 q 317 353 317 457 l 317 0 l 100 0 l 100 747 l 307 747 l 307 649 m 76 843 q 151 997 81 940 q 332 1054 222 1054 q 513 997 442 1054 q 588 843 583 940 l 451 843 q 416 915 450 888 q 332 942 382 942 q 248 915 282 942 q 213 843 214 888 l 76 843 z "},"ṟ":{"ha":599,"x_min":-49,"x_max":564,"o":"m 307 649 q 412 731 346 703 q 564 758 478 758 l 564 558 q 515 561 528 561 q 369 509 422 561 q 317 353 317 457 l 317 0 l 100 0 l 100 747 l 307 747 l 307 649 m -49 -132 l 465 -132 l 465 -253 l -49 -253 l -49 -132 z "},"s":{"ha":738,"x_min":28,"x_max":704,"o":"m 351 -11 q 169 12 258 -11 q 28 69 81 35 l 100 225 q 221 173 150 193 q 360 153 292 153 q 497 221 497 153 q 460 267 497 253 q 344 290 422 281 q 193 322 253 304 q 90 386 133 340 q 46 517 46 432 q 87 642 46 588 q 206 728 128 697 q 392 758 285 758 q 549 741 471 758 q 679 693 628 724 l 607 539 q 392 594 508 594 q 288 575 322 594 q 253 525 253 556 q 290 476 253 490 q 410 450 328 463 q 560 417 501 435 q 661 354 618 400 q 704 226 704 308 q 663 103 704 157 q 541 19 621 49 q 351 -11 461 -11 z "},"ś":{"ha":738,"x_min":28,"x_max":704,"o":"m 351 -11 q 169 12 258 -11 q 28 69 81 35 l 100 225 q 221 173 150 193 q 360 153 292 153 q 497 221 497 153 q 460 267 497 253 q 344 290 422 281 q 193 322 253 304 q 90 386 133 340 q 46 517 46 432 q 87 642 46 588 q 206 728 128 697 q 392 758 285 758 q 549 741 471 758 q 679 693 628 724 l 607 539 q 392 594 508 594 q 288 575 322 594 q 253 525 253 556 q 290 476 253 490 q 410 450 328 463 q 560 417 501 435 q 661 354 618 400 q 704 226 704 308 q 663 103 704 157 q 541 19 621 49 q 351 -11 461 -11 m 424 1043 l 657 1043 l 406 843 l 236 843 l 424 1043 z "},"ṥ":{"ha":738,"x_min":28,"x_max":704,"o":"m 351 -11 q 169 12 258 -11 q 28 69 81 35 l 100 225 q 221 173 150 193 q 360 153 292 153 q 497 221 497 153 q 460 267 497 253 q 344 290 422 281 q 193 322 253 304 q 90 386 133 340 q 46 517 46 432 q 87 642 46 588 q 206 728 128 697 q 392 758 285 758 q 549 741 471 758 q 679 693 628 724 l 607 539 q 392 594 508 594 q 288 575 322 594 q 253 525 253 556 q 290 476 253 490 q 410 450 328 463 q 560 417 501 435 q 661 354 618 400 q 704 226 704 308 q 663 103 704 157 q 541 19 621 49 q 351 -11 461 -11 m 397 1011 l 618 1011 l 400 843 l 243 843 l 397 1011 m 363 1072 q 294 1099 321 1072 q 267 1167 267 1125 q 294 1235 267 1208 q 363 1263 321 1263 q 431 1235 404 1263 q 458 1167 458 1208 q 431 1099 458 1125 q 363 1072 404 1072 z "},"ꞌ":{"ha":406,"x_min":94,"x_max":310,"o":"m 96 944 l 310 944 l 282 413 l 94 413 l 96 944 z "},"š":{"ha":738,"x_min":28,"x_max":704,"o":"m 351 -11 q 169 12 258 -11 q 28 69 81 35 l 100 225 q 221 173 150 193 q 360 153 292 153 q 497 221 497 153 q 460 267 497 253 q 344 290 422 281 q 193 322 253 304 q 90 386 133 340 q 46 517 46 432 q 87 642 46 588 q 206 728 128 697 q 392 758 285 758 q 549 741 471 758 q 679 693 628 724 l 607 539 q 392 594 508 594 q 288 575 322 594 q 253 525 253 556 q 290 476 253 490 q 410 450 328 463 q 560 417 501 435 q 661 354 618 400 q 704 226 704 308 q 663 103 704 157 q 541 19 621 49 q 351 -11 461 -11 m 642 1043 l 458 843 l 267 843 l 83 1043 l 242 1043 l 363 939 l 483 1043 l 642 1043 z "}}}
